  0
SECTION
  2
HEADER
  9
$ACADVER
  1
AC1009
  9
$FILLMODE
 70
0
  9
$EXTMIN
 10
-4.2688
 20
-5.6788
 30
0.0000
  9
$EXTMAX
 10
142.5042
 20
84.1648
 30
0.0000
  0
ENDSEC
  0
SECTION
  2
TABLES
  0
TABLE
  2
LTYPE
 70
1
  0
LTYPE
  2
CONTINUOUS
 70
64
  3
Solid line
 72
65
 73
0
 40
0
  0
ENDTAB
  0
TABLE
  2
LAYER
 70
255
  0
LAYER
  2
17
 70
64
 62
110
  6
CONTINUOUS
  0
LAYER
  2
20
 70
64
 62
31
  6
CONTINUOUS
  0
LAYER
  2
21
 70
64
 62
253
  6
CONTINUOUS
  0
LAYER
  2
22
 70
64
 62
253
  6
CONTINUOUS
  0
LAYER
  2
25
 70
64
 62
253
  6
CONTINUOUS
  0
LAYER
  2
26
 70
64
 62
253
  6
CONTINUOUS
  0
ENDTAB
  0
ENDSEC
  0
SECTION
  2
BLOCKS
  0
BLOCK
  8
0
  2
RECT
 70
64
 10
0.0000
 20
0.0000
 30
0.0000
  3
RECT
  0
SOLID
  8
0
 10
-0.5000
 20
-0.5000
 30
0.0000
 11
0.5000
 21
-0.5000
 31
0.0000
 12
-0.5000
 22
0.5000
 32
0.0000
 13
0.5000
 23
0.5000
 33
0.0000
  0
ENDBLK
  8
0
  0
BLOCK
  8
0
  2
PIE
 70
64
 10
0.0000
 20
0.0000
 30
0.0000
  3
PIE
  0
CIRCLE
  8
0
 10
0.0000
 20
0.0000
 30
0.0000
 40
0.5000
  0
ENDBLK
  8
0
  0
BLOCK
  8
0
  2
OCTAGONP
 70
64
 10
0.0000
 20
0.0000
 30
0.0000
  3
OCTAGONP
  0
POLYLINE
  8
0
 66
1
 10
0.0000
 20
0.0000
 30
0.0000
 40
0.0000
 41
0.0000
 70
1
  0
VERTEX
  8
0
 10
-0.5000
 20
-0.2071
 30
0.0000
  0
VERTEX
  8
0
 10
-0.5000
 20
0.2071
 30
0.0000
  0
VERTEX
  8
0
 10
-0.2071
 20
0.5000
 30
0.0000
  0
VERTEX
  8
0
 10
0.2071
 20
0.5000
 30
0.0000
  0
VERTEX
  8
0
 10
0.5000
 20
0.2071
 30
0.0000
  0
VERTEX
  8
0
 10
0.5000
 20
-0.2071
 30
0.0000
  0
VERTEX
  8
0
 10
0.2071
 20
-0.5000
 30
0.0000
  0
VERTEX
  8
0
 10
-0.2071
 20
-0.5000
 30
0.0000
  0
SEQEND
  8
0
  0
ENDBLK
  8
0
  0
BLOCK
  8
0
  2
SQUAREP
 70
64
 10
0.0000
 20
0.0000
 30
0.0000
  3
SQUAREP
  0
SOLID
  8
0
 10
-0.5000
 20
-0.5000
 30
0.0000
 11
0.5000
 21
-0.5000
 31
0.0000
 12
-0.5000
 22
0.5000
 32
0.0000
 13
0.5000
 23
0.5000
 33
0.0000
  0
ENDBLK
  8
0
  0
BLOCK
  8
0
  2
ROUNDP
 70
64
 10
0.0000
 20
0.0000
 30
0.0000
  3
ROUNDP
  0
CIRCLE
  8
0
 10
0.0000
 20
0.0000
 30
0.0000
 40
0.5000
  0
ENDBLK
  8
0
  0
BLOCK
  8
0
  2
ANNULUSP
 70
64
 10
0.0000
 20
0.0000
 30
0.0000
  3
ANNULUSP
  0
CIRCLE
  8
0
 10
0.0000
 20
0.0000
 30
0.0000
 40
0.5000
  0
ENDBLK
  8
0
  0
BLOCK
  8
0
  2
THERMALP
 70
64
 10
0.0000
 20
0.0000
 30
0.0000
  3
THERMALP
  0
LINE
  8
0
 10
-0.2379
 20
0.4500
 30
0.0000
 11
0.2379
 21
0.4500
 31
0.0000
  0
LINE
  8
0
 10
0.4500
 20
0.2379
 30
0.0000
 11
0.4500
 21
-0.2379
 31
0.0000
  0
LINE
  8
0
 10
0.2379
 20
-0.4500
 30
0.0000
 11
-0.2379
 21
-0.4500
 31
0.0000
  0
LINE
  8
0
 10
-0.4500
 20
-0.2379
 30
0.0000
 11
-0.4500
 21
0.2379
 31
0.0000
  0
ENDBLK
  8
0
  0
BLOCK
  8
0
  2
OCTAGONV
 70
64
 10
0.0000
 20
0.0000
 30
0.0000
  3
OCTAGONV
  0
POLYLINE
  8
0
 66
1
 10
0.0000
 20
0.0000
 30
0.0000
 40
0.0000
 41
0.0000
 70
1
  0
VERTEX
  8
0
 10
-0.5000
 20
-0.2071
 30
0.0000
  0
VERTEX
  8
0
 10
-0.5000
 20
0.2071
 30
0.0000
  0
VERTEX
  8
0
 10
-0.2071
 20
0.5000
 30
0.0000
  0
VERTEX
  8
0
 10
0.2071
 20
0.5000
 30
0.0000
  0
VERTEX
  8
0
 10
0.5000
 20
0.2071
 30
0.0000
  0
VERTEX
  8
0
 10
0.5000
 20
-0.2071
 30
0.0000
  0
VERTEX
  8
0
 10
0.2071
 20
-0.5000
 30
0.0000
  0
VERTEX
  8
0
 10
-0.2071
 20
-0.5000
 30
0.0000
  0
SEQEND
  8
0
  0
ENDBLK
  8
0
  0
BLOCK
  8
0
  2
SQUAREV
 70
64
 10
0.0000
 20
0.0000
 30
0.0000
  3
SQUAREV
  0
SOLID
  8
0
 10
-0.5000
 20
-0.5000
 30
0.0000
 11
0.5000
 21
-0.5000
 31
0.0000
 12
-0.5000
 22
0.5000
 32
0.0000
 13
0.5000
 23
0.5000
 33
0.0000
  0
ENDBLK
  8
0
  0
BLOCK
  8
0
  2
ROUNDV
 70
64
 10
0.0000
 20
0.0000
 30
0.0000
  3
ROUNDV
  0
CIRCLE
  8
0
 10
0.0000
 20
0.0000
 30
0.0000
 40
0.5000
  0
ENDBLK
  8
0
  0
BLOCK
  8
0
  2
ANNULUSV
 70
64
 10
0.0000
 20
0.0000
 30
0.0000
  3
ANNULUSV
  0
CIRCLE
  8
0
 10
0.0000
 20
0.0000
 30
0.0000
 40
0.5000
  0
ENDBLK
  8
0
  0
BLOCK
  8
0
  2
THERMALV
 70
64
 10
0.0000
 20
0.0000
 30
0.0000
  3
THERMALV
  0
LINE
  8
0
 10
-0.2379
 20
0.4500
 30
0.0000
 11
0.2379
 21
0.4500
 31
0.0000
  0
LINE
  8
0
 10
0.4500
 20
0.2379
 30
0.0000
 11
0.4500
 21
-0.2379
 31
0.0000
  0
LINE
  8
0
 10
0.2379
 20
-0.4500
 30
0.0000
 11
-0.2379
 21
-0.4500
 31
0.0000
  0
LINE
  8
0
 10
-0.4500
 20
-0.2379
 30
0.0000
 11
-0.4500
 21
0.2379
 31
0.0000
  0
ENDBLK
  8
0
  0
ENDSEC
  0
SECTION
  2
ENTITIES
  0
LINE
  8
20
 10
0.0000
 20
66.4210
 30
0.0000
 11
0.0000
 21
10.7950
 31
0.0000
  0
ARC
  8
20
 10
10.7950
 20
10.7950
 30
0.0000
 40
10.7950
 50
180.0000
 51
270.0000
  0
LINE
  8
20
 10
10.7950
 20
0.0000
 30
0.0000
 11
127.5080
 21
0.0000
 31
0.0000
  0
ARC
  8
20
 10
127.5080
 20
11.8110
 30
0.0000
 40
11.8110
 50
270.0000
 51
0.0000
  0
LINE
  8
20
 10
139.3190
 20
11.8110
 30
0.0000
 11
139.3190
 21
67.3100
 31
0.0000
  0
ARC
  8
20
 10
130.4290
 20
67.3100
 30
0.0000
 40
8.8900
 50
0.0000
 51
90.0000
  0
LINE
  8
20
 10
130.4290
 20
76.2000
 30
0.0000
 11
9.7790
 21
76.2000
 31
0.0000
  0
ARC
  8
20
 10
9.7790
 20
66.4210
 30
0.0000
 40
9.7790
 50
90.0000
 51
180.0000
  0
LINE
  8
25
 10
71.0325
 20
71.7042
 30
0.0000
 11
70.6712
 21
71.7042
 31
0.0000
  0
ARC
  8
25
 10
70.6712
 20
72.0654
 30
0.0000
 40
0.3612
 50
180.0000
 51
270.0000
  0
LINE
  8
25
 10
70.3100
 20
72.0654
 30
0.0000
 11
70.3100
 21
72.9686
 31
0.0000
  0
ARC
  8
25
 10
70.6712
 20
72.9686
 30
0.0000
 40
0.3612
 50
90.0005
 51
180.0000
  0
LINE
  8
25
 10
70.6712
 20
73.3298
 30
0.0000
 11
71.0325
 21
73.3298
 31
0.0000
  0
LINE
  8
25
 10
71.5262
 20
71.7042
 30
0.0000
 11
72.0681
 21
73.3298
 31
0.0000
  0
LINE
  8
25
 10
72.0681
 20
73.3298
 30
0.0000
 11
72.6100
 21
71.7042
 31
0.0000
  0
LINE
  8
25
 10
72.4745
 20
72.1106
 30
0.0000
 11
71.6617
 21
72.1106
 31
0.0000
  0
LINE
  8
25
 10
73.2318
 20
71.7042
 30
0.0000
 11
73.2318
 21
73.3298
 31
0.0000
  0
LINE
  8
25
 10
73.2318
 20
73.3298
 30
0.0000
 11
74.1349
 21
71.7042
 31
0.0000
  0
LINE
  8
25
 10
74.1349
 20
71.7042
 30
0.0000
 11
74.1349
 21
73.3298
 31
0.0000
  0
LINE
  8
25
 10
7.5184
 20
13.4592
 30
0.0000
 11
8.6021
 21
13.4592
 31
0.0000
  0
LINE
  8
25
 10
8.0603
 20
12.9173
 30
0.0000
 11
8.0603
 21
14.0010
 31
0.0000
  0
LINE
  8
25
 10
9.2760
 20
14.0914
 30
0.0000
 11
9.7276
 21
14.4526
 31
0.0000
  0
LINE
  8
25
 10
9.7276
 20
14.4526
 30
0.0000
 11
9.7276
 21
12.8270
 31
0.0000
  0
LINE
  8
25
 10
9.2760
 20
12.8270
 30
0.0000
 11
10.1791
 21
12.8270
 31
0.0000
  0
ARC
  8
25
 10
11.3359
 20
14.0462
 30
0.0000
 40
0.4064
 50
0.0000
 51
90.0000
  0
ARC
  8
25
 10
11.3359
 20
13.9305
 30
0.0000
 40
0.5221
 50
90.0001
 51
162.0549
  0
ARC
  8
25
 10
11.3058
 20
14.0462
 30
0.0000
 40
0.4365
 50
313.6036
 51
359.9997
  0
LINE
  8
25
 10
11.6068
 20
13.7301
 30
0.0000
 11
10.8392
 21
12.8270
 31
0.0000
  0
LINE
  8
25
 10
10.8392
 20
12.8270
 30
0.0000
 11
11.7423
 21
12.8270
 31
0.0000
  0
LINE
  8
25
 10
12.3120
 20
14.4526
 30
0.0000
 11
12.8538
 21
12.8270
 31
0.0000
  0
LINE
  8
25
 10
12.8538
 20
12.8270
 30
0.0000
 11
13.3957
 21
14.4526
 31
0.0000
  0
LINE
  8
25
 10
8.7856
 20
63.6665
 30
0.0000
 11
9.0565
 21
63.6665
 31
0.0000
  0
LINE
  8
25
 10
9.0565
 20
63.6665
 30
0.0000
 11
9.0565
 21
62.7634
 31
0.0000
  0
LINE
  8
25
 10
9.0565
 20
62.7634
 30
0.0000
 11
8.5146
 21
62.7634
 31
0.0000
  0
ARC
  8
25
 10
8.5146
 20
63.1246
 30
0.0000
 40
0.3612
 50
180.0000
 51
270.0000
  0
LINE
  8
25
 10
8.1534
 20
63.1246
 30
0.0000
 11
8.1534
 21
64.0278
 31
0.0000
  0
ARC
  8
25
 10
8.5146
 20
64.0278
 30
0.0000
 40
0.3612
 50
90.0005
 51
180.0000
  0
LINE
  8
25
 10
8.5146
 20
64.3890
 30
0.0000
 11
9.0565
 21
64.3890
 31
0.0000
  0
LINE
  8
25
 10
9.8207
 20
62.7634
 30
0.0000
 11
9.8207
 21
64.3890
 31
0.0000
  0
LINE
  8
25
 10
9.8207
 20
64.3890
 30
0.0000
 11
10.7238
 21
62.7634
 31
0.0000
  0
LINE
  8
25
 10
10.7238
 20
62.7634
 30
0.0000
 11
10.7238
 21
64.3890
 31
0.0000
  0
LINE
  8
25
 10
11.4881
 20
62.7634
 30
0.0000
 11
11.4881
 21
64.3890
 31
0.0000
  0
LINE
  8
25
 10
11.4881
 20
64.3890
 30
0.0000
 11
11.9396
 21
64.3890
 31
0.0000
  0
ARC
  8
25
 10
11.9396
 20
63.9374
 30
0.0000
 40
0.4516
 50
0.0000
 51
90.0000
  0
LINE
  8
25
 10
12.3912
 20
63.9374
 30
0.0000
 11
12.3912
 21
63.2150
 31
0.0000
  0
ARC
  8
25
 10
11.9396
 20
63.2150
 30
0.0000
 40
0.4516
 50
269.9996
 51
0.0000
  0
LINE
  8
25
 10
11.9396
 20
62.7634
 30
0.0000
 11
11.4881
 21
62.7634
 31
0.0000
  0
LINE
  8
25
 10
50.9270
 20
60.4492
 30
0.0000
 11
52.0107
 21
60.4492
 31
0.0000
  0
LINE
  8
25
 10
51.4689
 20
59.9073
 30
0.0000
 11
51.4689
 21
60.9910
 31
0.0000
  0
LINE
  8
25
 10
52.6846
 20
61.0814
 30
0.0000
 11
53.1362
 21
61.4426
 31
0.0000
  0
LINE
  8
25
 10
53.1362
 20
61.4426
 30
0.0000
 11
53.1362
 21
59.8170
 31
0.0000
  0
LINE
  8
25
 10
52.6846
 20
59.8170
 30
0.0000
 11
53.5877
 21
59.8170
 31
0.0000
  0
ARC
  8
25
 10
54.7445
 20
61.0362
 30
0.0000
 40
0.4064
 50
0.0000
 51
90.0000
  0
ARC
  8
25
 10
54.7445
 20
60.9205
 30
0.0000
 40
0.5221
 50
90.0001
 51
162.0549
  0
ARC
  8
25
 10
54.7144
 20
61.0362
 30
0.0000
 40
0.4365
 50
313.6036
 51
359.9997
  0
LINE
  8
25
 10
55.0154
 20
60.7201
 30
0.0000
 11
54.2478
 21
59.8170
 31
0.0000
  0
LINE
  8
25
 10
54.2478
 20
59.8170
 30
0.0000
 11
55.1509
 21
59.8170
 31
0.0000
  0
LINE
  8
25
 10
55.7206
 20
61.4426
 30
0.0000
 11
56.2624
 21
59.8170
 31
0.0000
  0
LINE
  8
25
 10
56.2624
 20
59.8170
 30
0.0000
 11
56.8043
 21
61.4426
 31
0.0000
  0
LINE
  8
25
 10
88.3412
 20
60.4492
 30
0.0000
 11
89.4249
 21
60.4492
 31
0.0000
  0
LINE
  8
25
 10
88.8831
 20
59.9073
 30
0.0000
 11
88.8831
 21
60.9910
 31
0.0000
  0
LINE
  8
25
 10
90.0988
 20
61.0814
 30
0.0000
 11
90.5504
 21
61.4426
 31
0.0000
  0
LINE
  8
25
 10
90.5504
 20
61.4426
 30
0.0000
 11
90.5504
 21
59.8170
 31
0.0000
  0
LINE
  8
25
 10
90.0988
 20
59.8170
 30
0.0000
 11
91.0020
 21
59.8170
 31
0.0000
  0
ARC
  8
25
 10
92.1587
 20
61.0362
 30
0.0000
 40
0.4064
 50
0.0000
 51
90.0000
  0
ARC
  8
25
 10
92.1587
 20
60.9205
 30
0.0000
 40
0.5221
 50
90.0001
 51
162.0549
  0
ARC
  8
25
 10
92.1286
 20
61.0362
 30
0.0000
 40
0.4365
 50
313.6036
 51
359.9997
  0
LINE
  8
25
 10
92.4296
 20
60.7201
 30
0.0000
 11
91.6620
 21
59.8170
 31
0.0000
  0
LINE
  8
25
 10
91.6620
 20
59.8170
 30
0.0000
 11
92.5651
 21
59.8170
 31
0.0000
  0
LINE
  8
25
 10
93.1348
 20
61.4426
 30
0.0000
 11
93.6766
 21
59.8170
 31
0.0000
  0
LINE
  8
25
 10
93.6766
 20
59.8170
 30
0.0000
 11
94.2185
 21
61.4426
 31
0.0000
  0
LINE
  8
25
 10
126.0094
 20
60.4492
 30
0.0000
 11
127.0931
 21
60.4492
 31
0.0000
  0
LINE
  8
25
 10
126.5513
 20
59.9073
 30
0.0000
 11
126.5513
 21
60.9910
 31
0.0000
  0
LINE
  8
25
 10
127.7670
 20
61.0814
 30
0.0000
 11
128.2186
 21
61.4426
 31
0.0000
  0
LINE
  8
25
 10
128.2186
 20
61.4426
 30
0.0000
 11
128.2186
 21
59.8170
 31
0.0000
  0
LINE
  8
25
 10
127.7670
 20
59.8170
 30
0.0000
 11
128.6702
 21
59.8170
 31
0.0000
  0
ARC
  8
25
 10
129.8269
 20
61.0362
 30
0.0000
 40
0.4064
 50
0.0000
 51
90.0000
  0
ARC
  8
25
 10
129.8269
 20
60.9205
 30
0.0000
 40
0.5221
 50
90.0001
 51
162.0549
  0
ARC
  8
25
 10
129.7968
 20
61.0362
 30
0.0000
 40
0.4365
 50
313.6036
 51
359.9997
  0
LINE
  8
25
 10
130.0978
 20
60.7201
 30
0.0000
 11
129.3302
 21
59.8170
 31
0.0000
  0
LINE
  8
25
 10
129.3302
 20
59.8170
 30
0.0000
 11
130.2333
 21
59.8170
 31
0.0000
  0
LINE
  8
25
 10
130.8030
 20
61.4426
 30
0.0000
 11
131.3448
 21
59.8170
 31
0.0000
  0
LINE
  8
25
 10
131.3448
 20
59.8170
 30
0.0000
 11
131.8867
 21
61.4426
 31
0.0000
  0
LINE
  8
25
 10
104.0130
 20
18.6662
 30
0.0000
 11
105.0967
 21
18.6662
 31
0.0000
  0
LINE
  8
25
 10
104.5549
 20
18.1243
 30
0.0000
 11
104.5549
 21
19.2080
 31
0.0000
  0
LINE
  8
25
 10
105.7706
 20
19.2984
 30
0.0000
 11
106.2222
 21
19.6596
 31
0.0000
  0
LINE
  8
25
 10
106.2222
 20
19.6596
 30
0.0000
 11
106.2222
 21
18.0340
 31
0.0000
  0
LINE
  8
25
 10
105.7706
 20
18.0340
 30
0.0000
 11
106.6737
 21
18.0340
 31
0.0000
  0
ARC
  8
25
 10
107.8305
 20
19.2532
 30
0.0000
 40
0.4064
 50
0.0000
 51
90.0000
  0
ARC
  8
25
 10
107.8305
 20
19.1375
 30
0.0000
 40
0.5221
 50
90.0001
 51
162.0549
  0
ARC
  8
25
 10
107.8004
 20
19.2532
 30
0.0000
 40
0.4365
 50
313.6036
 51
359.9997
  0
LINE
  8
25
 10
108.1014
 20
18.9371
 30
0.0000
 11
107.3338
 21
18.0340
 31
0.0000
  0
LINE
  8
25
 10
107.3338
 20
18.0340
 30
0.0000
 11
108.2369
 21
18.0340
 31
0.0000
  0
LINE
  8
25
 10
108.8066
 20
19.6596
 30
0.0000
 11
109.3484
 21
18.0340
 31
0.0000
  0
LINE
  8
25
 10
109.3484
 20
18.0340
 30
0.0000
 11
109.8903
 21
19.6596
 31
0.0000
  0
LINE
  8
25
 10
65.1764
 20
18.6662
 30
0.0000
 11
66.2601
 21
18.6662
 31
0.0000
  0
LINE
  8
25
 10
65.7183
 20
18.1243
 30
0.0000
 11
65.7183
 21
19.2080
 31
0.0000
  0
LINE
  8
25
 10
66.9340
 20
19.2984
 30
0.0000
 11
67.3856
 21
19.6596
 31
0.0000
  0
LINE
  8
25
 10
67.3856
 20
19.6596
 30
0.0000
 11
67.3856
 21
18.0340
 31
0.0000
  0
LINE
  8
25
 10
66.9340
 20
18.0340
 30
0.0000
 11
67.8372
 21
18.0340
 31
0.0000
  0
ARC
  8
25
 10
68.9939
 20
19.2532
 30
0.0000
 40
0.4064
 50
0.0000
 51
90.0000
  0
ARC
  8
25
 10
68.9939
 20
19.1375
 30
0.0000
 40
0.5221
 50
90.0001
 51
162.0549
  0
ARC
  8
25
 10
68.9638
 20
19.2532
 30
0.0000
 40
0.4365
 50
313.6036
 51
359.9997
  0
LINE
  8
25
 10
69.2648
 20
18.9371
 30
0.0000
 11
68.4972
 21
18.0340
 31
0.0000
  0
LINE
  8
25
 10
68.4972
 20
18.0340
 30
0.0000
 11
69.4003
 21
18.0340
 31
0.0000
  0
LINE
  8
25
 10
69.9700
 20
19.6596
 30
0.0000
 11
70.5118
 21
18.0340
 31
0.0000
  0
LINE
  8
25
 10
70.5118
 20
18.0340
 30
0.0000
 11
71.0537
 21
19.6596
 31
0.0000
  0
LINE
  8
25
 10
25.6540
 20
18.7170
 30
0.0000
 11
26.7377
 21
18.7170
 31
0.0000
  0
LINE
  8
25
 10
26.1959
 20
18.1751
 30
0.0000
 11
26.1959
 21
19.2588
 31
0.0000
  0
LINE
  8
25
 10
27.4116
 20
19.3492
 30
0.0000
 11
27.8632
 21
19.7104
 31
0.0000
  0
LINE
  8
25
 10
27.8632
 20
19.7104
 30
0.0000
 11
27.8632
 21
18.0848
 31
0.0000
  0
LINE
  8
25
 10
27.4116
 20
18.0848
 30
0.0000
 11
28.3148
 21
18.0848
 31
0.0000
  0
ARC
  8
25
 10
29.4715
 20
19.3040
 30
0.0000
 40
0.4064
 50
0.0000
 51
90.0000
  0
ARC
  8
25
 10
29.4715
 20
19.1883
 30
0.0000
 40
0.5221
 50
90.0001
 51
162.0549
  0
ARC
  8
25
 10
29.4414
 20
19.3040
 30
0.0000
 40
0.4365
 50
313.6036
 51
359.9997
  0
LINE
  8
25
 10
29.7424
 20
18.9879
 30
0.0000
 11
28.9748
 21
18.0848
 31
0.0000
  0
LINE
  8
25
 10
28.9748
 20
18.0848
 30
0.0000
 11
29.8779
 21
18.0848
 31
0.0000
  0
LINE
  8
25
 10
30.4476
 20
19.7104
 30
0.0000
 11
30.9894
 21
18.0848
 31
0.0000
  0
LINE
  8
25
 10
30.9894
 20
18.0848
 30
0.0000
 11
31.5313
 21
19.7104
 31
0.0000
  0
LINE
  8
25
 10
113.5634
 20
13.8063
 30
0.0000
 11
114.0150
 21
13.8063
 31
0.0000
  0
ARC
  8
25
 10
114.0150
 20
13.3548
 30
0.0000
 40
0.4516
 50
270.0000
 51
90.0000
  0
LINE
  8
25
 10
114.0150
 20
12.9032
 30
0.0000
 11
113.5634
 21
12.9032
 31
0.0000
  0
LINE
  8
25
 10
113.5634
 20
12.9032
 30
0.0000
 11
113.5634
 21
14.5288
 31
0.0000
  0
LINE
  8
25
 10
113.5634
 20
14.5288
 30
0.0000
 11
114.0150
 21
14.5288
 31
0.0000
  0
ARC
  8
25
 10
114.0150
 20
14.1676
 30
0.0000
 40
0.3612
 50
270.0000
 51
90.0000
  0
LINE
  8
25
 10
115.7546
 20
13.5354
 30
0.0000
 11
115.3482
 21
13.5354
 31
0.0000
  0
ARC
  8
25
 10
115.3482
 20
13.2193
 30
0.0000
 40
0.3161
 50
90.0000
 51
270.0000
  0
LINE
  8
25
 10
115.3482
 20
12.9032
 30
0.0000
 11
115.7546
 21
12.9032
 31
0.0000
  0
LINE
  8
25
 10
115.7546
 20
12.9032
 30
0.0000
 11
115.7546
 21
13.7160
 31
0.0000
  0
ARC
  8
25
 10
115.4837
 20
13.7160
 30
0.0000
 40
0.2709
 50
0.0000
 51
90.0000
  0
LINE
  8
25
 10
115.4837
 20
13.9869
 30
0.0000
 11
115.1224
 21
13.9869
 31
0.0000
  0
LINE
  8
25
 10
117.0802
 20
12.9032
 30
0.0000
 11
116.7189
 21
12.9032
 31
0.0000
  0
ARC
  8
25
 10
116.7189
 20
13.1741
 30
0.0000
 40
0.2709
 50
180.0000
 51
270.0000
  0
LINE
  8
25
 10
116.4480
 20
13.1741
 30
0.0000
 11
116.4480
 21
13.7160
 31
0.0000
  0
ARC
  8
25
 10
116.7189
 20
13.7160
 30
0.0000
 40
0.2709
 50
90.0000
 51
180.0000
  0
LINE
  8
25
 10
116.7189
 20
13.9869
 30
0.0000
 11
117.0802
 21
13.9869
 31
0.0000
  0
LINE
  8
25
 10
117.7136
 20
12.9032
 30
0.0000
 11
117.7136
 21
14.5288
 31
0.0000
  0
LINE
  8
25
 10
118.4361
 20
13.9869
 30
0.0000
 11
117.7136
 21
13.4451
 31
0.0000
  0
LINE
  8
25
 10
118.4361
 20
12.9032
 30
0.0000
 11
118.0297
 21
13.6708
 31
0.0000
  0
LINE
  8
25
 10
119.0588
 20
12.3613
 30
0.0000
 11
119.0588
 21
13.9869
 31
0.0000
  0
LINE
  8
25
 10
119.0588
 20
13.9869
 30
0.0000
 11
119.5103
 21
13.9869
 31
0.0000
  0
ARC
  8
25
 10
119.5103
 20
13.7160
 30
0.0000
 40
0.2709
 50
0.0007
 51
90.0000
  0
LINE
  8
25
 10
119.7813
 20
13.7160
 30
0.0000
 11
119.7813
 21
13.1741
 31
0.0000
  0
ARC
  8
25
 10
119.5103
 20
13.1741
 30
0.0000
 40
0.2709
 50
270.0000
 51
0.0000
  0
LINE
  8
25
 10
119.5103
 20
12.9032
 30
0.0000
 11
119.0588
 21
12.9032
 31
0.0000
  0
LINE
  8
25
 10
120.4298
 20
14.5288
 30
0.0000
 11
120.4298
 21
13.1741
 31
0.0000
  0
ARC
  8
25
 10
120.7008
 20
13.1741
 30
0.0000
 40
0.2709
 50
180.0000
 51
270.0000
  0
LINE
  8
25
 10
121.9550
 20
13.5354
 30
0.0000
 11
121.5486
 21
13.5354
 31
0.0000
  0
ARC
  8
25
 10
121.5486
 20
13.2193
 30
0.0000
 40
0.3161
 50
90.0000
 51
270.0000
  0
LINE
  8
25
 10
121.5486
 20
12.9032
 30
0.0000
 11
121.9550
 21
12.9032
 31
0.0000
  0
LINE
  8
25
 10
121.9550
 20
12.9032
 30
0.0000
 11
121.9550
 21
13.7160
 31
0.0000
  0
ARC
  8
25
 10
121.6840
 20
13.7160
 30
0.0000
 40
0.2709
 50
0.0000
 51
90.0000
  0
LINE
  8
25
 10
121.6840
 20
13.9869
 30
0.0000
 11
121.3228
 21
13.9869
 31
0.0000
  0
LINE
  8
25
 10
122.6987
 20
12.9032
 30
0.0000
 11
122.6987
 21
13.9869
 31
0.0000
  0
LINE
  8
25
 10
122.6987
 20
13.9869
 30
0.0000
 11
123.1503
 21
13.9869
 31
0.0000
  0
ARC
  8
25
 10
123.1503
 20
13.7160
 30
0.0000
 40
0.2709
 50
0.0007
 51
90.0000
  0
LINE
  8
25
 10
123.4212
 20
13.7160
 30
0.0000
 11
123.4212
 21
12.9032
 31
0.0000
  0
LINE
  8
25
 10
124.8280
 20
12.9032
 30
0.0000
 11
124.3765
 21
12.9032
 31
0.0000
  0
ARC
  8
25
 10
124.3765
 20
13.1741
 30
0.0000
 40
0.2709
 50
180.0000
 51
270.0000
  0
LINE
  8
25
 10
124.1055
 20
13.1741
 30
0.0000
 11
124.1055
 21
13.6257
 31
0.0000
  0
ARC
  8
25
 10
124.4668
 20
13.6257
 30
0.0000
 40
0.3612
 50
0.0000
 51
180.0000
  0
LINE
  8
25
 10
124.8280
 20
13.6257
 30
0.0000
 11
124.8280
 21
13.4451
 31
0.0000
  0
LINE
  8
25
 10
124.8280
 20
13.4451
 30
0.0000
 11
124.1055
 21
13.4451
 31
0.0000
  0
LINE
  8
25
 10
126.2418
 20
13.9869
 30
0.0000
 11
126.6030
 21
12.9032
 31
0.0000
  0
LINE
  8
25
 10
126.6030
 20
12.9032
 30
0.0000
 11
126.9643
 21
13.9869
 31
0.0000
  0
LINE
  8
25
 10
127.6243
 20
12.9032
 30
0.0000
 11
127.6243
 21
14.5288
 31
0.0000
  0
LINE
  8
25
 10
127.6243
 20
14.5288
 30
0.0000
 11
128.1662
 21
13.6257
 31
0.0000
  0
LINE
  8
25
 10
128.1662
 20
13.6257
 30
0.0000
 11
128.7080
 21
14.5288
 31
0.0000
  0
LINE
  8
25
 10
128.7080
 20
14.5288
 30
0.0000
 11
128.7080
 21
12.9032
 31
0.0000
  0
LINE
  8
25
 10
130.1353
 20
13.5354
 30
0.0000
 11
129.7289
 21
13.5354
 31
0.0000
  0
ARC
  8
25
 10
129.7289
 20
13.2193
 30
0.0000
 40
0.3161
 50
90.0000
 51
270.0000
  0
LINE
  8
25
 10
129.7289
 20
12.9032
 30
0.0000
 11
130.1353
 21
12.9032
 31
0.0000
  0
LINE
  8
25
 10
130.1353
 20
12.9032
 30
0.0000
 11
130.1353
 21
13.7160
 31
0.0000
  0
ARC
  8
25
 10
129.8644
 20
13.7160
 30
0.0000
 40
0.2709
 50
0.0000
 51
90.0000
  0
LINE
  8
25
 10
129.8644
 20
13.9869
 30
0.0000
 11
129.5031
 21
13.9869
 31
0.0000
  0
LINE
  8
25
 10
130.8875
 20
12.9032
 30
0.0000
 11
130.8875
 21
13.9869
 31
0.0000
  0
LINE
  8
25
 10
130.8875
 20
13.9869
 30
0.0000
 11
131.4294
 21
13.9869
 31
0.0000
  0
LINE
  8
25
 10
131.4294
 20
13.9869
 30
0.0000
 11
131.4294
 21
13.8063
 31
0.0000
  0
LINE
  8
25
 10
132.5551
 20
12.9032
 30
0.0000
 11
132.1938
 21
12.9032
 31
0.0000
  0
ARC
  8
25
 10
132.1938
 20
13.1741
 30
0.0000
 40
0.2709
 50
180.0000
 51
270.0000
  0
LINE
  8
25
 10
131.9229
 20
13.1741
 30
0.0000
 11
131.9229
 21
13.7160
 31
0.0000
  0
ARC
  8
25
 10
132.1938
 20
13.7160
 30
0.0000
 40
0.2709
 50
90.0000
 51
180.0000
  0
LINE
  8
25
 10
132.1938
 20
13.9869
 30
0.0000
 11
132.5551
 21
13.9869
 31
0.0000
  0
LINE
  8
25
 10
133.1716
 20
12.9032
 30
0.0000
 11
133.1716
 21
14.5288
 31
0.0000
  0
LINE
  8
25
 10
133.1716
 20
13.9869
 30
0.0000
 11
133.6232
 21
13.9869
 31
0.0000
  0
ARC
  8
25
 10
133.6232
 20
13.7160
 30
0.0000
 40
0.2709
 50
0.0007
 51
90.0000
  0
LINE
  8
25
 10
133.8941
 20
13.7160
 30
0.0000
 11
133.8941
 21
12.9032
 31
0.0000
  0
LINE
  8
25
 10
113.5634
 20
10.2362
 30
0.0000
 11
113.5634
 21
11.8618
 31
0.0000
  0
LINE
  8
25
 10
113.5634
 20
11.8618
 30
0.0000
 11
114.1053
 21
10.9587
 31
0.0000
  0
LINE
  8
25
 10
114.1053
 20
10.9587
 30
0.0000
 11
114.6471
 21
11.8618
 31
0.0000
  0
LINE
  8
25
 10
114.6471
 20
11.8618
 30
0.0000
 11
114.6471
 21
10.2362
 31
0.0000
  0
LINE
  8
25
 10
116.0817
 20
10.2362
 30
0.0000
 11
115.6302
 21
10.2362
 31
0.0000
  0
ARC
  8
25
 10
115.6302
 20
10.5071
 30
0.0000
 40
0.2709
 50
180.0000
 51
270.0000
  0
LINE
  8
25
 10
115.3593
 20
10.5071
 30
0.0000
 11
115.3593
 21
10.9587
 31
0.0000
  0
ARC
  8
25
 10
115.7205
 20
10.9587
 30
0.0000
 40
0.3612
 50
0.0000
 51
180.0000
  0
LINE
  8
25
 10
116.0817
 20
10.9587
 30
0.0000
 11
116.0817
 21
10.7781
 31
0.0000
  0
LINE
  8
25
 10
116.0817
 20
10.7781
 30
0.0000
 11
115.3593
 21
10.7781
 31
0.0000
  0
LINE
  8
25
 10
116.7376
 20
11.8618
 30
0.0000
 11
116.7376
 21
10.5071
 31
0.0000
  0
ARC
  8
25
 10
117.0086
 20
10.5071
 30
0.0000
 40
0.2709
 50
180.0000
 51
270.0000
  0
LINE
  8
25
 10
118.1816
 20
10.2362
 30
0.0000
 11
117.8203
 21
10.2362
 31
0.0000
  0
ARC
  8
25
 10
117.8203
 20
10.5071
 30
0.0000
 40
0.2709
 50
180.0000
 51
270.0000
  0
LINE
  8
25
 10
117.5494
 20
10.5071
 30
0.0000
 11
117.5494
 21
11.0490
 31
0.0000
  0
ARC
  8
25
 10
117.8203
 20
11.0490
 30
0.0000
 40
0.2709
 50
90.0000
 51
180.0000
  0
LINE
  8
25
 10
117.8203
 20
11.3199
 30
0.0000
 11
118.1816
 21
11.3199
 31
0.0000
  0
LINE
  8
25
 10
118.7981
 20
10.2362
 30
0.0000
 11
118.7981
 21
11.8618
 31
0.0000
  0
LINE
  8
25
 10
118.7981
 20
11.3199
 30
0.0000
 11
119.2497
 21
11.3199
 31
0.0000
  0
ARC
  8
25
 10
119.2497
 20
11.0490
 30
0.0000
 40
0.2709
 50
0.0007
 51
90.0000
  0
LINE
  8
25
 10
119.5206
 20
11.0490
 30
0.0000
 11
119.5206
 21
10.2362
 31
0.0000
  0
LINE
  8
25
 10
120.2049
 20
10.5974
 30
0.0000
 11
120.2049
 21
10.9587
 31
0.0000
  0
ARC
  8
25
 10
120.5662
 20
10.9587
 30
0.0000
 40
0.3612
 50
0.0000
 51
180.0000
  0
LINE
  8
25
 10
120.9274
 20
10.9587
 30
0.0000
 11
120.9274
 21
10.5974
 31
0.0000
  0
ARC
  8
25
 10
120.5662
 20
10.5974
 30
0.0000
 40
0.3612
 50
180.0000
 51
0.0000
  0
LINE
  8
25
 10
121.6202
 20
10.2362
 30
0.0000
 11
121.6202
 21
11.3199
 31
0.0000
  0
LINE
  8
25
 10
121.6202
 20
11.3199
 30
0.0000
 11
122.1621
 21
11.3199
 31
0.0000
  0
LINE
  8
25
 10
122.1621
 20
11.3199
 30
0.0000
 11
122.1621
 21
11.1393
 31
0.0000
  0
LINE
  8
25
 10
123.5535
 20
10.2362
 30
0.0000
 11
123.5535
 21
11.8618
 31
0.0000
  0
LINE
  8
25
 10
123.5535
 20
11.8618
 30
0.0000
 11
124.0050
 21
11.8618
 31
0.0000
  0
ARC
  8
25
 10
124.0050
 20
11.4102
 30
0.0000
 40
0.4516
 50
0.0000
 51
90.0000
  0
LINE
  8
25
 10
124.4566
 20
11.4102
 30
0.0000
 11
124.4566
 21
10.6878
 31
0.0000
  0
ARC
  8
25
 10
124.0050
 20
10.6878
 30
0.0000
 40
0.4516
 50
269.9996
 51
0.0000
  0
LINE
  8
25
 10
124.0050
 20
10.2362
 30
0.0000
 11
123.5535
 21
10.2362
 31
0.0000
  0
LINE
  8
25
 10
125.8773
 20
10.2362
 30
0.0000
 11
125.4258
 21
10.2362
 31
0.0000
  0
ARC
  8
25
 10
125.4258
 20
10.5071
 30
0.0000
 40
0.2709
 50
180.0000
 51
270.0000
  0
LINE
  8
25
 10
125.1548
 20
10.5071
 30
0.0000
 11
125.1548
 21
10.9587
 31
0.0000
  0
ARC
  8
25
 10
125.5161
 20
10.9587
 30
0.0000
 40
0.3612
 50
0.0000
 51
180.0000
  0
LINE
  8
25
 10
125.8773
 20
10.9587
 30
0.0000
 11
125.8773
 21
10.7781
 31
0.0000
  0
LINE
  8
25
 10
125.8773
 20
10.7781
 30
0.0000
 11
125.1548
 21
10.7781
 31
0.0000
  0
LINE
  8
25
 10
127.4122
 20
11.8618
 30
0.0000
 11
127.4122
 21
10.2362
 31
0.0000
  0
LINE
  8
25
 10
127.4122
 20
10.2362
 30
0.0000
 11
128.1347
 21
10.2362
 31
0.0000
  0
LINE
  8
25
 10
129.4131
 20
10.8684
 30
0.0000
 11
129.0067
 21
10.8684
 31
0.0000
  0
ARC
  8
25
 10
129.0067
 20
10.5523
 30
0.0000
 40
0.3161
 50
90.0000
 51
270.0000
  0
LINE
  8
25
 10
129.0067
 20
10.2362
 30
0.0000
 11
129.4131
 21
10.2362
 31
0.0000
  0
LINE
  8
25
 10
129.4131
 20
10.2362
 30
0.0000
 11
129.4131
 21
11.0490
 31
0.0000
  0
ARC
  8
25
 10
129.1421
 20
11.0490
 30
0.0000
 40
0.2709
 50
0.0000
 51
90.0000
  0
LINE
  8
25
 10
129.1421
 20
11.3199
 30
0.0000
 11
128.7809
 21
11.3199
 31
0.0000
  0
LINE
  8
25
 10
131.6365
 20
11.1393
 30
0.0000
 11
131.9075
 21
11.1393
 31
0.0000
  0
LINE
  8
25
 10
131.9075
 20
11.1393
 30
0.0000
 11
131.9075
 21
10.2362
 31
0.0000
  0
LINE
  8
25
 10
131.9075
 20
10.2362
 30
0.0000
 11
131.3656
 21
10.2362
 31
0.0000
  0
ARC
  8
25
 10
131.3656
 20
10.5974
 30
0.0000
 40
0.3612
 50
180.0000
 51
270.0000
  0
LINE
  8
25
 10
131.0044
 20
10.5974
 30
0.0000
 11
131.0044
 21
11.5006
 31
0.0000
  0
ARC
  8
25
 10
131.3656
 20
11.5006
 30
0.0000
 40
0.3612
 50
90.0005
 51
180.0000
  0
LINE
  8
25
 10
131.3656
 20
11.8618
 30
0.0000
 11
131.9075
 21
11.8618
 31
0.0000
  0
LINE
  8
25
 10
133.3209
 20
10.8684
 30
0.0000
 11
132.9145
 21
10.8684
 31
0.0000
  0
ARC
  8
25
 10
132.9145
 20
10.5523
 30
0.0000
 40
0.3161
 50
90.0000
 51
270.0000
  0
LINE
  8
25
 10
132.9145
 20
10.2362
 30
0.0000
 11
133.3209
 21
10.2362
 31
0.0000
  0
LINE
  8
25
 10
133.3209
 20
10.2362
 30
0.0000
 11
133.3209
 21
11.0490
 31
0.0000
  0
ARC
  8
25
 10
133.0499
 20
11.0490
 30
0.0000
 40
0.2709
 50
0.0000
 51
90.0000
  0
LINE
  8
25
 10
133.0499
 20
11.3199
 30
0.0000
 11
132.6887
 21
11.3199
 31
0.0000
  0
LINE
  8
25
 10
134.0731
 20
10.2362
 30
0.0000
 11
134.0731
 21
11.3199
 31
0.0000
  0
LINE
  8
25
 10
134.0731
 20
11.3199
 30
0.0000
 11
134.6150
 21
11.3199
 31
0.0000
  0
LINE
  8
25
 10
134.6150
 20
11.3199
 30
0.0000
 11
134.6150
 21
11.1393
 31
0.0000
  0
LINE
  8
25
 10
135.0546
 20
11.3199
 30
0.0000
 11
135.7771
 21
11.3199
 31
0.0000
  0
LINE
  8
25
 10
135.7771
 20
11.3199
 30
0.0000
 11
135.0546
 21
10.2362
 31
0.0000
  0
LINE
  8
25
 10
135.0546
 20
10.2362
 30
0.0000
 11
135.7771
 21
10.2362
 31
0.0000
  0
LINE
  8
25
 10
137.0723
 20
10.8684
 30
0.0000
 11
136.6659
 21
10.8684
 31
0.0000
  0
ARC
  8
25
 10
136.6659
 20
10.5523
 30
0.0000
 40
0.3161
 50
90.0000
 51
270.0000
  0
LINE
  8
25
 10
136.6659
 20
10.2362
 30
0.0000
 11
137.0723
 21
10.2362
 31
0.0000
  0
LINE
  8
25
 10
137.0723
 20
10.2362
 30
0.0000
 11
137.0723
 21
11.0490
 31
0.0000
  0
ARC
  8
25
 10
136.8014
 20
11.0490
 30
0.0000
 40
0.2709
 50
0.0000
 51
90.0000
  0
LINE
  8
25
 10
136.8014
 20
11.3199
 30
0.0000
 11
136.4402
 21
11.3199
 31
0.0000
  0
LINE
  8
25
 10
114.2859
 20
7.5692
 30
0.0000
 11
113.9246
 21
7.5692
 31
0.0000
  0
ARC
  8
25
 10
113.9246
 20
7.9304
 30
0.0000
 40
0.3612
 50
180.0000
 51
270.0000
  0
LINE
  8
25
 10
113.5634
 20
7.9304
 30
0.0000
 11
113.5634
 21
8.8336
 31
0.0000
  0
ARC
  8
25
 10
113.9246
 20
8.8336
 30
0.0000
 40
0.3612
 50
90.0005
 51
180.0000
  0
LINE
  8
25
 10
113.9246
 20
9.1948
 30
0.0000
 11
114.2859
 21
9.1948
 31
0.0000
  0
LINE
  8
25
 10
114.8039
 20
7.0273
 30
0.0000
 11
114.9846
 21
7.0273
 31
0.0000
  0
LINE
  8
25
 10
114.9846
 20
7.0273
 30
0.0000
 11
115.5264
 21
8.6529
 31
0.0000
  0
LINE
  8
25
 10
114.8039
 20
8.6529
 30
0.0000
 11
115.1652
 21
7.5692
 31
0.0000
  0
LINE
  8
25
 10
116.1587
 20
7.5692
 30
0.0000
 11
116.1587
 21
8.6529
 31
0.0000
  0
LINE
  8
25
 10
116.1587
 20
8.6529
 30
0.0000
 11
116.6102
 21
8.6529
 31
0.0000
  0
ARC
  8
25
 10
116.6102
 20
8.3820
 30
0.0000
 40
0.2709
 50
0.0007
 51
90.0000
  0
LINE
  8
25
 10
116.8811
 20
8.3820
 30
0.0000
 11
116.8811
 21
7.5692
 31
0.0000
  0
LINE
  8
25
 10
117.4357
 20
8.6529
 30
0.0000
 11
117.9776
 21
8.6529
 31
0.0000
  0
LINE
  8
25
 10
117.6164
 20
9.1948
 30
0.0000
 11
117.6164
 21
7.8401
 31
0.0000
  0
ARC
  8
25
 10
117.8873
 20
7.8401
 30
0.0000
 40
0.2709
 50
180.0000
 51
270.0000
  0
LINE
  8
25
 10
117.8873
 20
7.5692
 30
0.0000
 11
117.9776
 21
7.5692
 31
0.0000
  0
LINE
  8
25
 10
118.6075
 20
7.5692
 30
0.0000
 11
118.6075
 21
9.1948
 31
0.0000
  0
LINE
  8
25
 10
118.6075
 20
8.6529
 30
0.0000
 11
119.0591
 21
8.6529
 31
0.0000
  0
ARC
  8
25
 10
119.0591
 20
8.3820
 30
0.0000
 40
0.2709
 50
0.0007
 51
90.0000
  0
LINE
  8
25
 10
119.3300
 20
8.3820
 30
0.0000
 11
119.3300
 21
7.5692
 31
0.0000
  0
LINE
  8
25
 10
120.0109
 20
7.5692
 30
0.0000
 11
120.0109
 21
8.6529
 31
0.0000
  0
LINE
  8
25
 10
119.9657
 20
9.1045
 30
0.0000
 11
119.9657
 21
9.1948
 31
0.0000
  0
LINE
  8
25
 10
119.9657
 20
9.1948
 30
0.0000
 11
120.0560
 21
9.1948
 31
0.0000
  0
LINE
  8
25
 10
120.0560
 20
9.1948
 30
0.0000
 11
120.0560
 21
9.1045
 31
0.0000
  0
LINE
  8
25
 10
120.0560
 20
9.1045
 30
0.0000
 11
119.9657
 21
9.1045
 31
0.0000
  0
LINE
  8
25
 10
121.3548
 20
8.2014
 30
0.0000
 11
120.9484
 21
8.2014
 31
0.0000
  0
ARC
  8
25
 10
120.9484
 20
7.8853
 30
0.0000
 40
0.3161
 50
90.0000
 51
270.0000
  0
LINE
  8
25
 10
120.9484
 20
7.5692
 30
0.0000
 11
121.3548
 21
7.5692
 31
0.0000
  0
LINE
  8
25
 10
121.3548
 20
7.5692
 30
0.0000
 11
121.3548
 21
8.3820
 31
0.0000
  0
ARC
  8
25
 10
121.0838
 20
8.3820
 30
0.0000
 40
0.2709
 50
0.0000
 51
90.0000
  0
LINE
  8
25
 10
121.0838
 20
8.6529
 30
0.0000
 11
120.7226
 21
8.6529
 31
0.0000
  0
LINE
  8
25
 10
122.8419
 20
9.1948
 30
0.0000
 11
123.7450
 21
9.1948
 31
0.0000
  0
LINE
  8
25
 10
123.7450
 20
9.1948
 30
0.0000
 11
122.8419
 21
7.5692
 31
0.0000
  0
LINE
  8
25
 10
122.8419
 20
7.5692
 30
0.0000
 11
123.7450
 21
7.5692
 31
0.0000
  0
LINE
  8
25
 10
125.0541
 20
8.2014
 30
0.0000
 11
124.6477
 21
8.2014
 31
0.0000
  0
ARC
  8
25
 10
124.6477
 20
7.8853
 30
0.0000
 40
0.3161
 50
90.0000
 51
270.0000
  0
LINE
  8
25
 10
124.6477
 20
7.5692
 30
0.0000
 11
125.0541
 21
7.5692
 31
0.0000
  0
LINE
  8
25
 10
125.0541
 20
7.5692
 30
0.0000
 11
125.0541
 21
8.3820
 31
0.0000
  0
ARC
  8
25
 10
124.7832
 20
8.3820
 30
0.0000
 40
0.2709
 50
0.0000
 51
90.0000
  0
LINE
  8
25
 10
124.7832
 20
8.6529
 30
0.0000
 11
124.4220
 21
8.6529
 31
0.0000
  0
LINE
  8
25
 10
125.6161
 20
8.6529
 30
0.0000
 11
126.1579
 21
8.6529
 31
0.0000
  0
LINE
  8
25
 10
125.7967
 20
9.1948
 30
0.0000
 11
125.7967
 21
7.8401
 31
0.0000
  0
ARC
  8
25
 10
126.0676
 20
7.8401
 30
0.0000
 40
0.2709
 50
180.0000
 51
270.0000
  0
LINE
  8
25
 10
126.0676
 20
7.5692
 30
0.0000
 11
126.1579
 21
7.5692
 31
0.0000
  0
LINE
  8
25
 10
126.7595
 20
9.1948
 30
0.0000
 11
126.7595
 21
7.8401
 31
0.0000
  0
ARC
  8
25
 10
127.0304
 20
7.8401
 30
0.0000
 40
0.2709
 50
180.0000
 51
270.0000
  0
LINE
  8
25
 10
127.5694
 20
7.9304
 30
0.0000
 11
127.5694
 21
8.2917
 31
0.0000
  0
ARC
  8
25
 10
127.9307
 20
8.2917
 30
0.0000
 40
0.3612
 50
0.0000
 51
180.0000
  0
LINE
  8
25
 10
128.2919
 20
8.2917
 30
0.0000
 11
128.2919
 21
7.9304
 31
0.0000
  0
ARC
  8
25
 10
127.9307
 20
7.9304
 30
0.0000
 40
0.3612
 50
180.0000
 51
0.0000
  0
LINE
  8
25
 10
128.9931
 20
7.5692
 30
0.0000
 11
128.9931
 21
9.1948
 31
0.0000
  0
LINE
  8
25
 10
129.7156
 20
8.6529
 30
0.0000
 11
128.9931
 21
8.1111
 31
0.0000
  0
LINE
  8
25
 10
129.7156
 20
7.5692
 30
0.0000
 11
129.3092
 21
8.3368
 31
0.0000
  0
LINE
  8
25
 10
130.2788
 20
7.9304
 30
0.0000
 11
130.2788
 21
8.2917
 31
0.0000
  0
ARC
  8
25
 10
130.6401
 20
8.2917
 30
0.0000
 40
0.3612
 50
0.0000
 51
180.0000
  0
LINE
  8
25
 10
131.0013
 20
8.2917
 30
0.0000
 11
131.0013
 21
7.9304
 31
0.0000
  0
ARC
  8
25
 10
130.6401
 20
7.9304
 30
0.0000
 40
0.3612
 50
180.0000
 51
0.0000
  0
LINE
  8
25
 10
131.6092
 20
8.6529
 30
0.0000
 11
131.8802
 21
7.5692
 31
0.0000
  0
LINE
  8
25
 10
131.8802
 20
7.5692
 30
0.0000
 11
132.1511
 21
8.2917
 31
0.0000
  0
LINE
  8
25
 10
132.1511
 20
8.2917
 30
0.0000
 11
132.4220
 21
7.5692
 31
0.0000
  0
LINE
  8
25
 10
132.4220
 20
7.5692
 30
0.0000
 11
132.6930
 21
8.6529
 31
0.0000
  0
LINE
  8
25
 10
133.2974
 20
7.5692
 30
0.0000
 11
133.2974
 21
8.6529
 31
0.0000
  0
LINE
  8
25
 10
133.2522
 20
9.1045
 30
0.0000
 11
133.2522
 21
9.1948
 31
0.0000
  0
LINE
  8
25
 10
133.2522
 20
9.1948
 30
0.0000
 11
133.3426
 21
9.1948
 31
0.0000
  0
LINE
  8
25
 10
133.3426
 20
9.1948
 30
0.0000
 11
133.3426
 21
9.1045
 31
0.0000
  0
LINE
  8
25
 10
133.3426
 20
9.1045
 30
0.0000
 11
133.2522
 21
9.1045
 31
0.0000
  0
LINE
  8
25
 10
134.5601
 20
7.5692
 30
0.0000
 11
134.1988
 21
7.5692
 31
0.0000
  0
ARC
  8
25
 10
134.1988
 20
7.8401
 30
0.0000
 40
0.2709
 50
180.0000
 51
270.0000
  0
LINE
  8
25
 10
133.9279
 20
7.8401
 30
0.0000
 11
133.9279
 21
8.3820
 31
0.0000
  0
ARC
  8
25
 10
134.1988
 20
8.3820
 30
0.0000
 40
0.2709
 50
90.0000
 51
180.0000
  0
LINE
  8
25
 10
134.1988
 20
8.6529
 30
0.0000
 11
134.5601
 21
8.6529
 31
0.0000
  0
LINE
  8
25
 10
135.0724
 20
8.6529
 30
0.0000
 11
135.7949
 21
8.6529
 31
0.0000
  0
LINE
  8
25
 10
135.7949
 20
8.6529
 30
0.0000
 11
135.0724
 21
7.5692
 31
0.0000
  0
LINE
  8
25
 10
135.0724
 20
7.5692
 30
0.0000
 11
135.7949
 21
7.5692
 31
0.0000
  0
LINE
  8
25
 10
114.1053
 20
6.5278
 30
0.0000
 11
114.1053
 21
5.2634
 31
0.0000
  0
ARC
  8
25
 10
113.7440
 20
5.2634
 30
0.0000
 40
0.3612
 50
270.0000
 51
0.0000
  0
LINE
  8
25
 10
113.7440
 20
4.9022
 30
0.0000
 11
113.5634
 21
4.9022
 31
0.0000
  0
LINE
  8
25
 10
115.5132
 20
5.5344
 30
0.0000
 11
115.1068
 21
5.5344
 31
0.0000
  0
ARC
  8
25
 10
115.1068
 20
5.2183
 30
0.0000
 40
0.3161
 50
90.0000
 51
270.0000
  0
LINE
  8
25
 10
115.1068
 20
4.9022
 30
0.0000
 11
115.5132
 21
4.9022
 31
0.0000
  0
LINE
  8
25
 10
115.5132
 20
4.9022
 30
0.0000
 11
115.5132
 21
5.7150
 31
0.0000
  0
ARC
  8
25
 10
115.2423
 20
5.7150
 30
0.0000
 40
0.2709
 50
0.0000
 51
90.0000
  0
LINE
  8
25
 10
115.2423
 20
5.9859
 30
0.0000
 11
114.8811
 21
5.9859
 31
0.0000
  0
LINE
  8
25
 10
116.8388
 20
4.9022
 30
0.0000
 11
116.4776
 21
4.9022
 31
0.0000
  0
ARC
  8
25
 10
116.4776
 20
5.1731
 30
0.0000
 40
0.2709
 50
180.0000
 51
270.0000
  0
LINE
  8
25
 10
116.2066
 20
5.1731
 30
0.0000
 11
116.2066
 21
5.7150
 31
0.0000
  0
ARC
  8
25
 10
116.4776
 20
5.7150
 30
0.0000
 40
0.2709
 50
90.0000
 51
180.0000
  0
LINE
  8
25
 10
116.4776
 20
5.9859
 30
0.0000
 11
116.8388
 21
5.9859
 31
0.0000
  0
LINE
  8
25
 10
117.4033
 20
5.2634
 30
0.0000
 11
117.4033
 21
5.6247
 31
0.0000
  0
ARC
  8
25
 10
117.7645
 20
5.6247
 30
0.0000
 40
0.3612
 50
0.0000
 51
180.0000
  0
LINE
  8
25
 10
118.1258
 20
5.6247
 30
0.0000
 11
118.1258
 21
5.2634
 31
0.0000
  0
ARC
  8
25
 10
117.7645
 20
5.2634
 30
0.0000
 40
0.3612
 50
180.0000
 51
0.0000
  0
LINE
  8
25
 10
118.8174
 20
6.5278
 30
0.0000
 11
118.8174
 21
4.9022
 31
0.0000
  0
LINE
  8
25
 10
118.8174
 20
4.9022
 30
0.0000
 11
119.2690
 21
4.9022
 31
0.0000
  0
ARC
  8
25
 10
119.2690
 20
5.1731
 30
0.0000
 40
0.2709
 50
270.0000
 51
359.9993
  0
LINE
  8
25
 10
119.5399
 20
5.1731
 30
0.0000
 11
119.5399
 21
5.7150
 31
0.0000
  0
ARC
  8
25
 10
119.2690
 20
5.7150
 30
0.0000
 40
0.2709
 50
0.0000
 51
90.0000
  0
LINE
  8
25
 10
119.2690
 20
5.9859
 30
0.0000
 11
118.8174
 21
5.9859
 31
0.0000
  0
LINE
  8
25
 10
121.0856
 20
5.8053
 30
0.0000
 11
121.5371
 21
5.8053
 31
0.0000
  0
ARC
  8
25
 10
121.5371
 20
5.3538
 30
0.0000
 40
0.4516
 50
270.0000
 51
90.0000
  0
LINE
  8
25
 10
121.5371
 20
4.9022
 30
0.0000
 11
121.0856
 21
4.9022
 31
0.0000
  0
LINE
  8
25
 10
121.0856
 20
4.9022
 30
0.0000
 11
121.0856
 21
6.5278
 31
0.0000
  0
LINE
  8
25
 10
121.0856
 20
6.5278
 30
0.0000
 11
121.5371
 21
6.5278
 31
0.0000
  0
ARC
  8
25
 10
121.5371
 20
6.1666
 30
0.0000
 40
0.3612
 50
270.0000
 51
90.0000
  0
LINE
  8
25
 10
122.5616
 20
5.2634
 30
0.0000
 11
122.5616
 21
5.6247
 31
0.0000
  0
ARC
  8
25
 10
122.9228
 20
5.6247
 30
0.0000
 40
0.3612
 50
0.0000
 51
180.0000
  0
LINE
  8
25
 10
123.2841
 20
5.6247
 30
0.0000
 11
123.2841
 21
5.2634
 31
0.0000
  0
ARC
  8
25
 10
122.9228
 20
5.2634
 30
0.0000
 40
0.3612
 50
180.0000
 51
0.0000
  0
LINE
  8
25
 10
123.9757
 20
6.5278
 30
0.0000
 11
123.9757
 21
4.9022
 31
0.0000
  0
LINE
  8
25
 10
123.9757
 20
4.9022
 30
0.0000
 11
124.4273
 21
4.9022
 31
0.0000
  0
ARC
  8
25
 10
124.4273
 20
5.1731
 30
0.0000
 40
0.2709
 50
270.0000
 51
359.9993
  0
LINE
  8
25
 10
124.6982
 20
5.1731
 30
0.0000
 11
124.6982
 21
5.7150
 31
0.0000
  0
ARC
  8
25
 10
124.4273
 20
5.7150
 30
0.0000
 40
0.2709
 50
0.0000
 51
90.0000
  0
LINE
  8
25
 10
124.4273
 20
5.9859
 30
0.0000
 11
123.9757
 21
5.9859
 31
0.0000
  0
LINE
  8
25
 10
125.9101
 20
5.3538
 30
0.0000
 11
125.4586
 21
5.5344
 31
0.0000
  0
ARC
  8
25
 10
125.5455
 20
5.7518
 30
0.0000
 40
0.2342
 50
89.1818
 51
248.1988
  0
ARC
  8
25
 10
125.5342
 20
4.9605
 30
0.0000
 40
1.0256
 50
65.7611
 51
89.1818
  0
ARC
  8
25
 10
125.8232
 20
5.1363
 30
0.0000
 40
0.2342
 50
269.1818
 51
68.1988
  0
ARC
  8
25
 10
125.8417
 20
6.4336
 30
0.0000
 40
1.5316
 50
250.2089
 51
269.1818
  0
LINE
  8
25
 10
126.6778
 20
5.2634
 30
0.0000
 11
126.6778
 21
5.6247
 31
0.0000
  0
ARC
  8
25
 10
127.0391
 20
5.6247
 30
0.0000
 40
0.3612
 50
0.0000
 51
180.0000
  0
LINE
  8
25
 10
127.4003
 20
5.6247
 30
0.0000
 11
127.4003
 21
5.2634
 31
0.0000
  0
ARC
  8
25
 10
127.0391
 20
5.2634
 30
0.0000
 40
0.3612
 50
180.0000
 51
0.0000
  0
LINE
  8
25
 10
128.0846
 20
4.9022
 30
0.0000
 11
128.0846
 21
5.9859
 31
0.0000
  0
LINE
  8
25
 10
128.0846
 20
5.9859
 30
0.0000
 11
128.5362
 21
5.9859
 31
0.0000
  0
ARC
  8
25
 10
128.5362
 20
5.7150
 30
0.0000
 40
0.2709
 50
0.0007
 51
90.0000
  0
LINE
  8
25
 10
128.8071
 20
5.7150
 30
0.0000
 11
128.8071
 21
4.9022
 31
0.0000
  0
LINE
  8
25
 10
114.1956
 20
3.1383
 30
0.0000
 11
114.4665
 21
3.1383
 31
0.0000
  0
LINE
  8
25
 10
114.4665
 20
3.1383
 30
0.0000
 11
114.4665
 21
2.2352
 31
0.0000
  0
LINE
  8
25
 10
114.4665
 20
2.2352
 30
0.0000
 11
113.9246
 21
2.2352
 31
0.0000
  0
ARC
  8
25
 10
113.9246
 20
2.5964
 30
0.0000
 40
0.3612
 50
180.0000
 51
270.0000
  0
LINE
  8
25
 10
113.5634
 20
2.5964
 30
0.0000
 11
113.5634
 21
3.4996
 31
0.0000
  0
ARC
  8
25
 10
113.9246
 20
3.4996
 30
0.0000
 40
0.3612
 50
90.0005
 51
180.0000
  0
LINE
  8
25
 10
113.9246
 20
3.8608
 30
0.0000
 11
114.4665
 21
3.8608
 31
0.0000
  0
LINE
  8
25
 10
115.2253
 20
2.2352
 30
0.0000
 11
115.2253
 21
3.3189
 31
0.0000
  0
LINE
  8
25
 10
115.2253
 20
3.3189
 30
0.0000
 11
115.7672
 21
3.3189
 31
0.0000
  0
LINE
  8
25
 10
115.7672
 20
3.3189
 30
0.0000
 11
115.7672
 21
3.1383
 31
0.0000
  0
LINE
  8
25
 10
116.9741
 20
2.8674
 30
0.0000
 11
116.5677
 21
2.8674
 31
0.0000
  0
ARC
  8
25
 10
116.5677
 20
2.5513
 30
0.0000
 40
0.3161
 50
90.0000
 51
270.0000
  0
LINE
  8
25
 10
116.5677
 20
2.2352
 30
0.0000
 11
116.9741
 21
2.2352
 31
0.0000
  0
LINE
  8
25
 10
116.9741
 20
2.2352
 30
0.0000
 11
116.9741
 21
3.0480
 31
0.0000
  0
ARC
  8
25
 10
116.7031
 20
3.0480
 30
0.0000
 40
0.2709
 50
0.0000
 51
90.0000
  0
LINE
  8
25
 10
116.7031
 20
3.3189
 30
0.0000
 11
116.3419
 21
3.3189
 31
0.0000
  0
LINE
  8
25
 10
117.7178
 20
2.2352
 30
0.0000
 11
117.7178
 21
3.3189
 31
0.0000
  0
LINE
  8
25
 10
117.7178
 20
3.3189
 30
0.0000
 11
118.1694
 21
3.3189
 31
0.0000
  0
ARC
  8
25
 10
118.1694
 20
3.0480
 30
0.0000
 40
0.2709
 50
0.0007
 51
90.0000
  0
LINE
  8
25
 10
118.4403
 20
3.0480
 30
0.0000
 11
118.4403
 21
2.2352
 31
0.0000
  0
LINE
  8
25
 10
118.9949
 20
3.3189
 30
0.0000
 11
119.5368
 21
3.3189
 31
0.0000
  0
LINE
  8
25
 10
119.1755
 20
3.8608
 30
0.0000
 11
119.1755
 21
2.5061
 31
0.0000
  0
ARC
  8
25
 10
119.4465
 20
2.5061
 30
0.0000
 40
0.2709
 50
180.0000
 51
270.0000
  0
LINE
  8
25
 10
119.4465
 20
2.2352
 30
0.0000
 11
119.5368
 21
2.2352
 31
0.0000
  0
LINE
  8
25
 10
121.6465
 20
3.1383
 30
0.0000
 11
121.9174
 21
3.1383
 31
0.0000
  0
LINE
  8
25
 10
121.9174
 20
3.1383
 30
0.0000
 11
121.9174
 21
2.2352
 31
0.0000
  0
LINE
  8
25
 10
121.9174
 20
2.2352
 30
0.0000
 11
121.3755
 21
2.2352
 31
0.0000
  0
ARC
  8
25
 10
121.3755
 20
2.5964
 30
0.0000
 40
0.3612
 50
180.0000
 51
270.0000
  0
LINE
  8
25
 10
121.0143
 20
2.5964
 30
0.0000
 11
121.0143
 21
3.4996
 31
0.0000
  0
ARC
  8
25
 10
121.3755
 20
3.4996
 30
0.0000
 40
0.3612
 50
90.0005
 51
180.0000
  0
LINE
  8
25
 10
121.3755
 20
3.8608
 30
0.0000
 11
121.9174
 21
3.8608
 31
0.0000
  0
LINE
  8
25
 10
123.3381
 20
2.2352
 30
0.0000
 11
122.8865
 21
2.2352
 31
0.0000
  0
ARC
  8
25
 10
122.8865
 20
2.5061
 30
0.0000
 40
0.2709
 50
180.0000
 51
270.0000
  0
LINE
  8
25
 10
122.6156
 20
2.5061
 30
0.0000
 11
122.6156
 21
2.9577
 31
0.0000
  0
ARC
  8
25
 10
122.9769
 20
2.9577
 30
0.0000
 40
0.3612
 50
0.0000
 51
180.0000
  0
LINE
  8
25
 10
123.3381
 20
2.9577
 30
0.0000
 11
123.3381
 21
2.7771
 31
0.0000
  0
LINE
  8
25
 10
123.3381
 20
2.7771
 30
0.0000
 11
122.6156
 21
2.7771
 31
0.0000
  0
LINE
  8
25
 10
123.9182
 20
1.6933
 30
0.0000
 11
124.0988
 21
1.6933
 31
0.0000
  0
LINE
  8
25
 10
124.0988
 20
1.6933
 30
0.0000
 11
124.6407
 21
3.3189
 31
0.0000
  0
LINE
  8
25
 10
123.9182
 20
3.3189
 30
0.0000
 11
124.2795
 21
2.2352
 31
0.0000
  0
LINE
  8
25
 10
125.9433
 20
2.2352
 30
0.0000
 11
125.4917
 21
2.2352
 31
0.0000
  0
ARC
  8
25
 10
125.4917
 20
2.5061
 30
0.0000
 40
0.2709
 50
180.0000
 51
270.0000
  0
LINE
  8
25
 10
125.2208
 20
2.5061
 30
0.0000
 11
125.2208
 21
2.9577
 31
0.0000
  0
ARC
  8
25
 10
125.5821
 20
2.9577
 30
0.0000
 40
0.3612
 50
0.0000
 51
180.0000
  0
LINE
  8
25
 10
125.9433
 20
2.9577
 30
0.0000
 11
125.9433
 21
2.7771
 31
0.0000
  0
LINE
  8
25
 10
125.9433
 20
2.7771
 30
0.0000
 11
125.2208
 21
2.7771
 31
0.0000
  0
LINE
  8
25
 10
126.6361
 20
2.2352
 30
0.0000
 11
126.6361
 21
3.3189
 31
0.0000
  0
LINE
  8
25
 10
126.6361
 20
3.3189
 30
0.0000
 11
127.1780
 21
3.3189
 31
0.0000
  0
LINE
  8
25
 10
127.1780
 20
3.3189
 30
0.0000
 11
127.1780
 21
3.1383
 31
0.0000
  0
LINE
  8
25
 10
41.6447
 20
8.9718
 30
0.0000
 11
41.7378
 21
8.9718
 31
0.0000
  0
LINE
  8
25
 10
41.7378
 20
8.9718
 30
0.0000
 11
41.7378
 21
8.6614
 31
0.0000
  0
LINE
  8
25
 10
41.7378
 20
8.6614
 30
0.0000
 11
41.5516
 21
8.6614
 31
0.0000
  0
ARC
  8
25
 10
41.5516
 20
8.7856
 30
0.0000
 40
0.1242
 50
180.0000
 51
270.0000
  0
LINE
  8
25
 10
41.4274
 20
8.7856
 30
0.0000
 11
41.4274
 21
9.0960
 31
0.0000
  0
ARC
  8
25
 10
41.5516
 20
9.0960
 30
0.0000
 40
0.1242
 50
90.0014
 51
180.0000
  0
LINE
  8
25
 10
41.5516
 20
9.2202
 30
0.0000
 11
41.7378
 21
9.2202
 31
0.0000
  0
LINE
  8
25
 10
42.0126
 20
8.6614
 30
0.0000
 11
42.0126
 21
9.2202
 31
0.0000
  0
LINE
  8
25
 10
42.0126
 20
9.2202
 30
0.0000
 11
42.3231
 21
8.6614
 31
0.0000
  0
LINE
  8
25
 10
42.3231
 20
8.6614
 30
0.0000
 11
42.3231
 21
9.2202
 31
0.0000
  0
LINE
  8
25
 10
42.5978
 20
8.6614
 30
0.0000
 11
42.5978
 21
9.2202
 31
0.0000
  0
LINE
  8
25
 10
42.5978
 20
9.2202
 30
0.0000
 11
42.7530
 21
9.2202
 31
0.0000
  0
ARC
  8
25
 10
42.7530
 20
9.0650
 30
0.0000
 40
0.1552
 50
359.9988
 51
90.0000
  0
LINE
  8
25
 10
42.9083
 20
9.0650
 30
0.0000
 11
42.9083
 21
8.8166
 31
0.0000
  0
ARC
  8
25
 10
42.7530
 20
8.8166
 30
0.0000
 40
0.1552
 50
270.0012
 51
360.0000
  0
LINE
  8
25
 10
42.7530
 20
8.6614
 30
0.0000
 11
42.5978
 21
8.6614
 31
0.0000
  0
LINE
  8
25
 10
43.4629
 20
8.8787
 30
0.0000
 11
43.8354
 21
8.8787
 31
0.0000
  0
LINE
  8
25
 10
44.6185
 20
8.6614
 30
0.0000
 11
44.4943
 21
8.6614
 31
0.0000
  0
ARC
  8
25
 10
44.4943
 20
8.7856
 30
0.0000
 40
0.1242
 50
180.0000
 51
270.0000
  0
LINE
  8
25
 10
44.3701
 20
8.7856
 30
0.0000
 11
44.3701
 21
9.0960
 31
0.0000
  0
ARC
  8
25
 10
44.4943
 20
9.0960
 30
0.0000
 40
0.1242
 50
90.0014
 51
180.0000
  0
LINE
  8
25
 10
44.4943
 20
9.2202
 30
0.0000
 11
44.6185
 21
9.2202
 31
0.0000
  0
LINE
  8
25
 10
44.7979
 20
8.6614
 30
0.0000
 11
44.9842
 21
9.2202
 31
0.0000
  0
LINE
  8
25
 10
44.9842
 20
9.2202
 30
0.0000
 11
45.1704
 21
8.6614
 31
0.0000
  0
LINE
  8
25
 10
45.1239
 20
8.8011
 30
0.0000
 11
44.8445
 21
8.8011
 31
0.0000
  0
LINE
  8
25
 10
45.3959
 20
8.6614
 30
0.0000
 11
45.3959
 21
9.2202
 31
0.0000
  0
LINE
  8
25
 10
45.3959
 20
9.2202
 30
0.0000
 11
45.7063
 21
8.6614
 31
0.0000
  0
LINE
  8
25
 10
45.7063
 20
8.6614
 30
0.0000
 11
45.7063
 21
9.2202
 31
0.0000
  0
LINE
  8
25
 10
46.2748
 20
9.2202
 30
0.0000
 11
46.2748
 21
8.6614
 31
0.0000
  0
LINE
  8
25
 10
46.2748
 20
8.6614
 30
0.0000
 11
46.5231
 21
8.6614
 31
0.0000
  0
LINE
  8
25
 10
47.0290
 20
8.8787
 30
0.0000
 11
47.4015
 21
8.8787
 31
0.0000
  0
LINE
  8
25
 10
48.1846
 20
8.6614
 30
0.0000
 11
48.0604
 21
8.6614
 31
0.0000
  0
ARC
  8
25
 10
48.0604
 20
8.7856
 30
0.0000
 40
0.1242
 50
180.0000
 51
270.0000
  0
LINE
  8
25
 10
47.9362
 20
8.7856
 30
0.0000
 11
47.9362
 21
9.0960
 31
0.0000
  0
ARC
  8
25
 10
48.0604
 20
9.0960
 30
0.0000
 40
0.1242
 50
90.0014
 51
180.0000
  0
LINE
  8
25
 10
48.0604
 20
9.2202
 30
0.0000
 11
48.1846
 21
9.2202
 31
0.0000
  0
LINE
  8
25
 10
48.3640
 20
8.6614
 30
0.0000
 11
48.5503
 21
9.2202
 31
0.0000
  0
LINE
  8
25
 10
48.5503
 20
9.2202
 30
0.0000
 11
48.7365
 21
8.6614
 31
0.0000
  0
LINE
  8
25
 10
48.6900
 20
8.8011
 30
0.0000
 11
48.4106
 21
8.8011
 31
0.0000
  0
LINE
  8
25
 10
48.9620
 20
8.6614
 30
0.0000
 11
48.9620
 21
9.2202
 31
0.0000
  0
LINE
  8
25
 10
48.9620
 20
9.2202
 30
0.0000
 11
49.2724
 21
8.6614
 31
0.0000
  0
LINE
  8
25
 10
49.2724
 20
8.6614
 30
0.0000
 11
49.2724
 21
9.2202
 31
0.0000
  0
LINE
  8
25
 10
49.8398
 20
8.6614
 30
0.0000
 11
49.8398
 21
9.2202
 31
0.0000
  0
LINE
  8
25
 10
49.8398
 20
8.9718
 30
0.0000
 11
50.1502
 21
8.9718
 31
0.0000
  0
LINE
  8
25
 10
50.1502
 20
9.2202
 30
0.0000
 11
50.1502
 21
8.6614
 31
0.0000
  0
LINE
  8
25
 10
50.7049
 20
8.8787
 30
0.0000
 11
51.0774
 21
8.8787
 31
0.0000
  0
LINE
  8
25
 10
51.6137
 20
9.0960
 30
0.0000
 11
51.7689
 21
9.2202
 31
0.0000
  0
LINE
  8
25
 10
51.7689
 20
9.2202
 30
0.0000
 11
51.7689
 21
8.6614
 31
0.0000
  0
LINE
  8
25
 10
51.6137
 20
8.6614
 30
0.0000
 11
51.9242
 21
8.6614
 31
0.0000
  0
ARC
  8
25
 10
52.3331
 20
9.0805
 30
0.0000
 40
0.1397
 50
0.0000
 51
90.0000
  0
ARC
  8
25
 10
52.3331
 20
9.0407
 30
0.0000
 40
0.1795
 50
90.0001
 51
162.0551
  0
ARC
  8
25
 10
52.3228
 20
9.0805
 30
0.0000
 40
0.1500
 50
313.6010
 51
0.0002
  0
LINE
  8
25
 10
52.4262
 20
8.9718
 30
0.0000
 11
52.1624
 21
8.6614
 31
0.0000
  0
LINE
  8
25
 10
52.1624
 20
8.6614
 30
0.0000
 11
52.4728
 21
8.6614
 31
0.0000
  0
LINE
  8
25
 10
52.6800
 20
9.2202
 30
0.0000
 11
52.8662
 21
8.6614
 31
0.0000
  0
LINE
  8
25
 10
52.8662
 20
8.6614
 30
0.0000
 11
53.0525
 21
9.2202
 31
0.0000
  0
LINE
  8
25
 10
57.5197
 20
9.0988
 30
0.0000
 11
57.6128
 21
9.0988
 31
0.0000
  0
LINE
  8
25
 10
57.6128
 20
9.0988
 30
0.0000
 11
57.6128
 21
8.7884
 31
0.0000
  0
LINE
  8
25
 10
57.6128
 20
8.7884
 30
0.0000
 11
57.4266
 21
8.7884
 31
0.0000
  0
ARC
  8
25
 10
57.4266
 20
8.9126
 30
0.0000
 40
0.1242
 50
180.0000
 51
270.0000
  0
LINE
  8
25
 10
57.3024
 20
8.9126
 30
0.0000
 11
57.3024
 21
9.2230
 31
0.0000
  0
ARC
  8
25
 10
57.4266
 20
9.2230
 30
0.0000
 40
0.1242
 50
90.0014
 51
180.0000
  0
LINE
  8
25
 10
57.4266
 20
9.3472
 30
0.0000
 11
57.6128
 21
9.3472
 31
0.0000
  0
LINE
  8
25
 10
57.8876
 20
8.7884
 30
0.0000
 11
57.8876
 21
9.3472
 31
0.0000
  0
LINE
  8
25
 10
57.8876
 20
9.3472
 30
0.0000
 11
58.1981
 21
8.7884
 31
0.0000
  0
LINE
  8
25
 10
58.1981
 20
8.7884
 30
0.0000
 11
58.1981
 21
9.3472
 31
0.0000
  0
LINE
  8
25
 10
58.4728
 20
8.7884
 30
0.0000
 11
58.4728
 21
9.3472
 31
0.0000
  0
LINE
  8
25
 10
58.4728
 20
9.3472
 30
0.0000
 11
58.6280
 21
9.3472
 31
0.0000
  0
ARC
  8
25
 10
58.6280
 20
9.1920
 30
0.0000
 40
0.1552
 50
359.9988
 51
90.0000
  0
LINE
  8
25
 10
58.7833
 20
9.1920
 30
0.0000
 11
58.7833
 21
8.9436
 31
0.0000
  0
ARC
  8
25
 10
58.6280
 20
8.9436
 30
0.0000
 40
0.1552
 50
270.0012
 51
360.0000
  0
LINE
  8
25
 10
58.6280
 20
8.7884
 30
0.0000
 11
58.4728
 21
8.7884
 31
0.0000
  0
LINE
  8
25
 10
59.3379
 20
9.0057
 30
0.0000
 11
59.7104
 21
9.0057
 31
0.0000
  0
LINE
  8
25
 10
60.4935
 20
8.7884
 30
0.0000
 11
60.3693
 21
8.7884
 31
0.0000
  0
ARC
  8
25
 10
60.3693
 20
8.9126
 30
0.0000
 40
0.1242
 50
180.0000
 51
270.0000
  0
LINE
  8
25
 10
60.2451
 20
8.9126
 30
0.0000
 11
60.2451
 21
9.2230
 31
0.0000
  0
ARC
  8
25
 10
60.3693
 20
9.2230
 30
0.0000
 40
0.1242
 50
90.0014
 51
180.0000
  0
LINE
  8
25
 10
60.3693
 20
9.3472
 30
0.0000
 11
60.4935
 21
9.3472
 31
0.0000
  0
LINE
  8
25
 10
60.6729
 20
8.7884
 30
0.0000
 11
60.8592
 21
9.3472
 31
0.0000
  0
LINE
  8
25
 10
60.8592
 20
9.3472
 30
0.0000
 11
61.0454
 21
8.7884
 31
0.0000
  0
LINE
  8
25
 10
60.9989
 20
8.9281
 30
0.0000
 11
60.7195
 21
8.9281
 31
0.0000
  0
LINE
  8
25
 10
61.2709
 20
8.7884
 30
0.0000
 11
61.2709
 21
9.3472
 31
0.0000
  0
LINE
  8
25
 10
61.2709
 20
9.3472
 30
0.0000
 11
61.5813
 21
8.7884
 31
0.0000
  0
LINE
  8
25
 10
61.5813
 20
8.7884
 30
0.0000
 11
61.5813
 21
9.3472
 31
0.0000
  0
LINE
  8
25
 10
62.1498
 20
9.3472
 30
0.0000
 11
62.1498
 21
8.7884
 31
0.0000
  0
LINE
  8
25
 10
62.1498
 20
8.7884
 30
0.0000
 11
62.3981
 21
8.7884
 31
0.0000
  0
LINE
  8
25
 10
62.9040
 20
9.0057
 30
0.0000
 11
63.2765
 21
9.0057
 31
0.0000
  0
LINE
  8
25
 10
64.0596
 20
8.7884
 30
0.0000
 11
63.9354
 21
8.7884
 31
0.0000
  0
ARC
  8
25
 10
63.9354
 20
8.9126
 30
0.0000
 40
0.1242
 50
180.0000
 51
270.0000
  0
LINE
  8
25
 10
63.8112
 20
8.9126
 30
0.0000
 11
63.8112
 21
9.2230
 31
0.0000
  0
ARC
  8
25
 10
63.9354
 20
9.2230
 30
0.0000
 40
0.1242
 50
90.0014
 51
180.0000
  0
LINE
  8
25
 10
63.9354
 20
9.3472
 30
0.0000
 11
64.0596
 21
9.3472
 31
0.0000
  0
LINE
  8
25
 10
64.2390
 20
8.7884
 30
0.0000
 11
64.4253
 21
9.3472
 31
0.0000
  0
LINE
  8
25
 10
64.4253
 20
9.3472
 30
0.0000
 11
64.6115
 21
8.7884
 31
0.0000
  0
LINE
  8
25
 10
64.5650
 20
8.9281
 30
0.0000
 11
64.2856
 21
8.9281
 31
0.0000
  0
LINE
  8
25
 10
64.8370
 20
8.7884
 30
0.0000
 11
64.8370
 21
9.3472
 31
0.0000
  0
LINE
  8
25
 10
64.8370
 20
9.3472
 30
0.0000
 11
65.1474
 21
8.7884
 31
0.0000
  0
LINE
  8
25
 10
65.1474
 20
8.7884
 30
0.0000
 11
65.1474
 21
9.3472
 31
0.0000
  0
LINE
  8
25
 10
65.7148
 20
8.7884
 30
0.0000
 11
65.7148
 21
9.3472
 31
0.0000
  0
LINE
  8
25
 10
65.7148
 20
9.0988
 30
0.0000
 11
66.0252
 21
9.0988
 31
0.0000
  0
LINE
  8
25
 10
66.0252
 20
9.3472
 30
0.0000
 11
66.0252
 21
8.7884
 31
0.0000
  0
LINE
  8
25
 10
66.5799
 20
9.0057
 30
0.0000
 11
66.9524
 21
9.0057
 31
0.0000
  0
LINE
  8
25
 10
67.7243
 20
9.0988
 30
0.0000
 11
67.8175
 21
9.0988
 31
0.0000
  0
LINE
  8
25
 10
67.8175
 20
9.0988
 30
0.0000
 11
67.8175
 21
8.7884
 31
0.0000
  0
LINE
  8
25
 10
67.8175
 20
8.7884
 30
0.0000
 11
67.6312
 21
8.7884
 31
0.0000
  0
ARC
  8
25
 10
67.6312
 20
8.9126
 30
0.0000
 40
0.1242
 50
180.0000
 51
270.0000
  0
LINE
  8
25
 10
67.5070
 20
8.9126
 30
0.0000
 11
67.5070
 21
9.2230
 31
0.0000
  0
ARC
  8
25
 10
67.6312
 20
9.2230
 30
0.0000
 40
0.1242
 50
90.0014
 51
180.0000
  0
LINE
  8
25
 10
67.6312
 20
9.3472
 30
0.0000
 11
67.8175
 21
9.3472
 31
0.0000
  0
LINE
  8
25
 10
68.0922
 20
8.7884
 30
0.0000
 11
68.0922
 21
9.3472
 31
0.0000
  0
LINE
  8
25
 10
68.0922
 20
9.3472
 30
0.0000
 11
68.4027
 21
8.7884
 31
0.0000
  0
LINE
  8
25
 10
68.4027
 20
8.7884
 30
0.0000
 11
68.4027
 21
9.3472
 31
0.0000
  0
LINE
  8
25
 10
68.6774
 20
8.7884
 30
0.0000
 11
68.6774
 21
9.3472
 31
0.0000
  0
LINE
  8
25
 10
68.6774
 20
9.3472
 30
0.0000
 11
68.8327
 21
9.3472
 31
0.0000
  0
ARC
  8
25
 10
68.8327
 20
9.1920
 30
0.0000
 40
0.1552
 50
359.9988
 51
90.0000
  0
LINE
  8
25
 10
68.9879
 20
9.1920
 30
0.0000
 11
68.9879
 21
8.9436
 31
0.0000
  0
ARC
  8
25
 10
68.8327
 20
8.9436
 30
0.0000
 40
0.1552
 50
270.0012
 51
360.0000
  0
LINE
  8
25
 10
68.8327
 20
8.7884
 30
0.0000
 11
68.6774
 21
8.7884
 31
0.0000
  0
LINE
  8
25
 10
78.2207
 20
9.3528
 30
0.0000
 11
78.3138
 21
9.3528
 31
0.0000
  0
LINE
  8
25
 10
78.3138
 20
9.3528
 30
0.0000
 11
78.3138
 21
9.0424
 31
0.0000
  0
LINE
  8
25
 10
78.3138
 20
9.0424
 30
0.0000
 11
78.1276
 21
9.0424
 31
0.0000
  0
ARC
  8
25
 10
78.1276
 20
9.1666
 30
0.0000
 40
0.1242
 50
180.0000
 51
270.0000
  0
LINE
  8
25
 10
78.0034
 20
9.1666
 30
0.0000
 11
78.0034
 21
9.4770
 31
0.0000
  0
ARC
  8
25
 10
78.1276
 20
9.4770
 30
0.0000
 40
0.1242
 50
90.0014
 51
180.0000
  0
LINE
  8
25
 10
78.1276
 20
9.6012
 30
0.0000
 11
78.3138
 21
9.6012
 31
0.0000
  0
LINE
  8
25
 10
78.5886
 20
9.0424
 30
0.0000
 11
78.5886
 21
9.6012
 31
0.0000
  0
LINE
  8
25
 10
78.5886
 20
9.6012
 30
0.0000
 11
78.8991
 21
9.0424
 31
0.0000
  0
LINE
  8
25
 10
78.8991
 20
9.0424
 30
0.0000
 11
78.8991
 21
9.6012
 31
0.0000
  0
LINE
  8
25
 10
79.1738
 20
9.0424
 30
0.0000
 11
79.1738
 21
9.6012
 31
0.0000
  0
LINE
  8
25
 10
79.1738
 20
9.6012
 30
0.0000
 11
79.3290
 21
9.6012
 31
0.0000
  0
ARC
  8
25
 10
79.3290
 20
9.4460
 30
0.0000
 40
0.1552
 50
359.9988
 51
90.0000
  0
LINE
  8
25
 10
79.4843
 20
9.4460
 30
0.0000
 11
79.4843
 21
9.1976
 31
0.0000
  0
ARC
  8
25
 10
79.3290
 20
9.1976
 30
0.0000
 40
0.1552
 50
270.0012
 51
360.0000
  0
LINE
  8
25
 10
79.3290
 20
9.0424
 30
0.0000
 11
79.1738
 21
9.0424
 31
0.0000
  0
LINE
  8
25
 10
80.0389
 20
9.2597
 30
0.0000
 11
80.4114
 21
9.2597
 31
0.0000
  0
LINE
  8
25
 10
81.1833
 20
9.3528
 30
0.0000
 11
81.2765
 21
9.3528
 31
0.0000
  0
LINE
  8
25
 10
81.2765
 20
9.3528
 30
0.0000
 11
81.2765
 21
9.0424
 31
0.0000
  0
LINE
  8
25
 10
81.2765
 20
9.0424
 30
0.0000
 11
81.0902
 21
9.0424
 31
0.0000
  0
ARC
  8
25
 10
81.0902
 20
9.1666
 30
0.0000
 40
0.1242
 50
180.0000
 51
270.0000
  0
LINE
  8
25
 10
80.9660
 20
9.1666
 30
0.0000
 11
80.9660
 21
9.4770
 31
0.0000
  0
ARC
  8
25
 10
81.0902
 20
9.4770
 30
0.0000
 40
0.1242
 50
90.0014
 51
180.0000
  0
LINE
  8
25
 10
81.0902
 20
9.6012
 30
0.0000
 11
81.2765
 21
9.6012
 31
0.0000
  0
LINE
  8
25
 10
81.5512
 20
9.0424
 30
0.0000
 11
81.5512
 21
9.6012
 31
0.0000
  0
LINE
  8
25
 10
81.5512
 20
9.6012
 30
0.0000
 11
81.8617
 21
9.0424
 31
0.0000
  0
LINE
  8
25
 10
81.8617
 20
9.0424
 30
0.0000
 11
81.8617
 21
9.6012
 31
0.0000
  0
LINE
  8
25
 10
82.1365
 20
9.0424
 30
0.0000
 11
82.1365
 21
9.6012
 31
0.0000
  0
LINE
  8
25
 10
82.1365
 20
9.6012
 30
0.0000
 11
82.2917
 21
9.6012
 31
0.0000
  0
ARC
  8
25
 10
82.2917
 20
9.4460
 30
0.0000
 40
0.1552
 50
359.9988
 51
90.0000
  0
LINE
  8
25
 10
82.4469
 20
9.4460
 30
0.0000
 11
82.4469
 21
9.1976
 31
0.0000
  0
ARC
  8
25
 10
82.2917
 20
9.1976
 30
0.0000
 40
0.1552
 50
270.0012
 51
360.0000
  0
LINE
  8
25
 10
82.2917
 20
9.0424
 30
0.0000
 11
82.1365
 21
9.0424
 31
0.0000
  0
LINE
  8
25
 10
83.0015
 20
9.2597
 30
0.0000
 11
83.3740
 21
9.2597
 31
0.0000
  0
LINE
  8
25
 10
83.9104
 20
9.4770
 30
0.0000
 11
84.0656
 21
9.6012
 31
0.0000
  0
LINE
  8
25
 10
84.0656
 20
9.6012
 30
0.0000
 11
84.0656
 21
9.0424
 31
0.0000
  0
LINE
  8
25
 10
83.9104
 20
9.0424
 30
0.0000
 11
84.2208
 21
9.0424
 31
0.0000
  0
ARC
  8
25
 10
84.6298
 20
9.4615
 30
0.0000
 40
0.1397
 50
0.0000
 51
90.0000
  0
ARC
  8
25
 10
84.6298
 20
9.4217
 30
0.0000
 40
0.1795
 50
90.0001
 51
162.0551
  0
ARC
  8
25
 10
84.6194
 20
9.4615
 30
0.0000
 40
0.1500
 50
313.6010
 51
0.0002
  0
LINE
  8
25
 10
84.7229
 20
9.3528
 30
0.0000
 11
84.4590
 21
9.0424
 31
0.0000
  0
LINE
  8
25
 10
84.4590
 20
9.0424
 30
0.0000
 11
84.7695
 21
9.0424
 31
0.0000
  0
LINE
  8
25
 10
84.9766
 20
9.6012
 30
0.0000
 11
85.1629
 21
9.0424
 31
0.0000
  0
LINE
  8
25
 10
85.1629
 20
9.0424
 30
0.0000
 11
85.3491
 21
9.6012
 31
0.0000
  0
LINE
  8
25
 10
85.8544
 20
9.2597
 30
0.0000
 11
86.2270
 21
9.2597
 31
0.0000
  0
LINE
  8
25
 10
86.7633
 20
9.4770
 30
0.0000
 11
86.9185
 21
9.6012
 31
0.0000
  0
LINE
  8
25
 10
86.9185
 20
9.6012
 30
0.0000
 11
86.9185
 21
9.0424
 31
0.0000
  0
LINE
  8
25
 10
86.7633
 20
9.0424
 30
0.0000
 11
87.0737
 21
9.0424
 31
0.0000
  0
ARC
  8
25
 10
87.4827
 20
9.4615
 30
0.0000
 40
0.1397
 50
0.0000
 51
90.0000
  0
ARC
  8
25
 10
87.4827
 20
9.4217
 30
0.0000
 40
0.1795
 50
90.0001
 51
162.0551
  0
ARC
  8
25
 10
87.4723
 20
9.4615
 30
0.0000
 40
0.1500
 50
313.6010
 51
0.0002
  0
LINE
  8
25
 10
87.5758
 20
9.3528
 30
0.0000
 11
87.3119
 21
9.0424
 31
0.0000
  0
LINE
  8
25
 10
87.3119
 20
9.0424
 30
0.0000
 11
87.6224
 21
9.0424
 31
0.0000
  0
LINE
  8
25
 10
87.8295
 20
9.6012
 30
0.0000
 11
88.0158
 21
9.0424
 31
0.0000
  0
LINE
  8
25
 10
88.0158
 20
9.0424
 30
0.0000
 11
88.2020
 21
9.6012
 31
0.0000
  0
LINE
  8
25
 10
6.8665
 20
68.3091
 30
0.0000
 11
6.9681
 21
68.3091
 31
0.0000
  0
LINE
  8
25
 10
6.9681
 20
68.3091
 30
0.0000
 11
6.9681
 21
67.9704
 31
0.0000
  0
LINE
  8
25
 10
6.9681
 20
67.9704
 30
0.0000
 11
6.7649
 21
67.9704
 31
0.0000
  0
ARC
  8
25
 10
6.7649
 20
68.1059
 30
0.0000
 40
0.1355
 50
180.0000
 51
270.0000
  0
LINE
  8
25
 10
6.6294
 20
68.1059
 30
0.0000
 11
6.6294
 21
68.4445
 31
0.0000
  0
ARC
  8
25
 10
6.7649
 20
68.4445
 30
0.0000
 40
0.1355
 50
90.0013
 51
180.0000
  0
LINE
  8
25
 10
6.7649
 20
68.5800
 30
0.0000
 11
6.9681
 21
68.5800
 31
0.0000
  0
LINE
  8
25
 10
7.2634
 20
67.9704
 30
0.0000
 11
7.2634
 21
68.5800
 31
0.0000
  0
LINE
  8
25
 10
7.2634
 20
68.5800
 30
0.0000
 11
7.6021
 21
67.9704
 31
0.0000
  0
LINE
  8
25
 10
7.6021
 20
67.9704
 30
0.0000
 11
7.6021
 21
68.5800
 31
0.0000
  0
LINE
  8
25
 10
7.8974
 20
67.9704
 30
0.0000
 11
7.8974
 21
68.5800
 31
0.0000
  0
LINE
  8
25
 10
7.8974
 20
68.5800
 30
0.0000
 11
8.0667
 21
68.5800
 31
0.0000
  0
ARC
  8
25
 10
8.0667
 20
68.4107
 30
0.0000
 40
0.1693
 50
0.0000
 51
90.0000
  0
LINE
  8
25
 10
8.2360
 20
68.4107
 30
0.0000
 11
8.2360
 21
68.1397
 31
0.0000
  0
ARC
  8
25
 10
8.0667
 20
68.1397
 30
0.0000
 40
0.1693
 50
270.0000
 51
0.0000
  0
LINE
  8
25
 10
8.0667
 20
67.9704
 30
0.0000
 11
7.8974
 21
67.9704
 31
0.0000
  0
LINE
  8
25
 10
8.8343
 20
68.2075
 30
0.0000
 11
9.2407
 21
68.2075
 31
0.0000
  0
LINE
  8
25
 10
9.8476
 20
67.9704
 30
0.0000
 11
9.8476
 21
68.5800
 31
0.0000
  0
LINE
  8
25
 10
9.8476
 20
68.5800
 30
0.0000
 11
10.0169
 21
68.5800
 31
0.0000
  0
ARC
  8
25
 10
10.0169
 20
68.4107
 30
0.0000
 40
0.1693
 50
270.0000
 51
90.0000
  0
LINE
  8
25
 10
10.0169
 20
68.2413
 30
0.0000
 11
9.8476
 21
68.2413
 31
0.0000
  0
LINE
  8
25
 10
10.4309
 20
67.9704
 30
0.0000
 11
10.4309
 21
68.3768
 31
0.0000
  0
LINE
  8
25
 10
10.4309
 20
68.3768
 30
0.0000
 11
10.6341
 21
68.3768
 31
0.0000
  0
LINE
  8
25
 10
10.6341
 20
68.3768
 30
0.0000
 11
10.6341
 21
68.3091
 31
0.0000
  0
LINE
  8
25
 10
10.8238
 20
68.1059
 30
0.0000
 11
10.8238
 21
68.2413
 31
0.0000
  0
ARC
  8
25
 10
10.9592
 20
68.2413
 30
0.0000
 40
0.1355
 50
0.0000
 51
180.0000
  0
LINE
  8
25
 10
11.0947
 20
68.2413
 30
0.0000
 11
11.0947
 21
68.1059
 31
0.0000
  0
ARC
  8
25
 10
10.9592
 20
68.1059
 30
0.0000
 40
0.1355
 50
180.0000
 51
0.0000
  0
LINE
  8
25
 10
11.6068
 20
67.9704
 30
0.0000
 11
11.4375
 21
67.9704
 31
0.0000
  0
ARC
  8
25
 10
11.4375
 20
68.0720
 30
0.0000
 40
0.1016
 50
180.0000
 51
270.0000
  0
LINE
  8
25
 10
11.3359
 20
68.0720
 30
0.0000
 11
11.3359
 21
68.2752
 31
0.0000
  0
ARC
  8
25
 10
11.4375
 20
68.2752
 30
0.0000
 40
0.1016
 50
90.0000
 51
180.0000
  0
LINE
  8
25
 10
11.4375
 20
68.3768
 30
0.0000
 11
11.6068
 21
68.3768
 31
0.0000
  0
LINE
  8
25
 10
11.6068
 20
68.3768
 30
0.0000
 11
11.6068
 21
67.8688
 31
0.0000
  0
ARC
  8
25
 10
11.5052
 20
67.8688
 30
0.0000
 40
0.1016
 50
270.0000
 51
0.0000
  0
LINE
  8
25
 10
11.5052
 20
67.7672
 30
0.0000
 11
11.3697
 21
67.7672
 31
0.0000
  0
LINE
  8
25
 10
12.1965
 20
68.4445
 30
0.0000
 11
12.3659
 21
68.5800
 31
0.0000
  0
LINE
  8
25
 10
12.3659
 20
68.5800
 30
0.0000
 11
12.3659
 21
67.9704
 31
0.0000
  0
LINE
  8
25
 10
12.1965
 20
67.9704
 30
0.0000
 11
12.5352
 21
67.9704
 31
0.0000
  0
LINE
  8
25
 10
13.1136
 20
68.2075
 30
0.0000
 11
13.5200
 21
68.2075
 31
0.0000
  0
LINE
  8
25
 10
14.1269
 20
67.9704
 30
0.0000
 11
14.1269
 21
68.5800
 31
0.0000
  0
LINE
  8
25
 10
14.1269
 20
68.5800
 30
0.0000
 11
14.2963
 21
68.5800
 31
0.0000
  0
ARC
  8
25
 10
14.2963
 20
68.4107
 30
0.0000
 40
0.1693
 50
270.0000
 51
90.0000
  0
LINE
  8
25
 10
14.2963
 20
68.2413
 30
0.0000
 11
14.1269
 21
68.2413
 31
0.0000
  0
LINE
  8
25
 10
14.7103
 20
67.9704
 30
0.0000
 11
14.7103
 21
68.3768
 31
0.0000
  0
LINE
  8
25
 10
14.7103
 20
68.3768
 30
0.0000
 11
14.9135
 21
68.3768
 31
0.0000
  0
LINE
  8
25
 10
14.9135
 20
68.3768
 30
0.0000
 11
14.9135
 21
68.3091
 31
0.0000
  0
LINE
  8
25
 10
15.1031
 20
68.1059
 30
0.0000
 11
15.1031
 21
68.2413
 31
0.0000
  0
ARC
  8
25
 10
15.2386
 20
68.2413
 30
0.0000
 40
0.1355
 50
0.0000
 51
180.0000
  0
LINE
  8
25
 10
15.3741
 20
68.2413
 30
0.0000
 11
15.3741
 21
68.1059
 31
0.0000
  0
ARC
  8
25
 10
15.2386
 20
68.1059
 30
0.0000
 40
0.1355
 50
180.0000
 51
0.0000
  0
LINE
  8
25
 10
15.8862
 20
67.9704
 30
0.0000
 11
15.7168
 21
67.9704
 31
0.0000
  0
ARC
  8
25
 10
15.7168
 20
68.0720
 30
0.0000
 40
0.1016
 50
180.0000
 51
270.0000
  0
LINE
  8
25
 10
15.6152
 20
68.0720
 30
0.0000
 11
15.6152
 21
68.2752
 31
0.0000
  0
ARC
  8
25
 10
15.7168
 20
68.2752
 30
0.0000
 40
0.1016
 50
90.0000
 51
180.0000
  0
LINE
  8
25
 10
15.7168
 20
68.3768
 30
0.0000
 11
15.8862
 21
68.3768
 31
0.0000
  0
LINE
  8
25
 10
15.8862
 20
68.3768
 30
0.0000
 11
15.8862
 21
67.8688
 31
0.0000
  0
ARC
  8
25
 10
15.7846
 20
67.8688
 30
0.0000
 40
0.1016
 50
270.0000
 51
0.0000
  0
LINE
  8
25
 10
15.7846
 20
67.7672
 30
0.0000
 11
15.6491
 21
67.7672
 31
0.0000
  0
ARC
  8
25
 10
16.6622
 20
68.4276
 30
0.0000
 40
0.1524
 50
0.0000
 51
90.0000
  0
ARC
  8
25
 10
16.6622
 20
68.3842
 30
0.0000
 40
0.1958
 50
90.0002
 51
162.0557
  0
ARC
  8
25
 10
16.6509
 20
68.4276
 30
0.0000
 40
0.1637
 50
313.6035
 51
359.9997
  0
LINE
  8
25
 10
16.7638
 20
68.3091
 30
0.0000
 11
16.4759
 21
67.9704
 31
0.0000
  0
LINE
  8
25
 10
16.4759
 20
67.9704
 30
0.0000
 11
16.8146
 21
67.9704
 31
0.0000
  0
LINE
  8
25
 10
17.3930
 20
68.2075
 30
0.0000
 11
17.7994
 21
68.2075
 31
0.0000
  0
LINE
  8
25
 10
18.4063
 20
67.9704
 30
0.0000
 11
18.4063
 21
68.5800
 31
0.0000
  0
LINE
  8
25
 10
18.4063
 20
68.5800
 30
0.0000
 11
18.5756
 21
68.5800
 31
0.0000
  0
ARC
  8
25
 10
18.5756
 20
68.4107
 30
0.0000
 40
0.1693
 50
270.0000
 51
90.0000
  0
LINE
  8
25
 10
18.5756
 20
68.2413
 30
0.0000
 11
18.4063
 21
68.2413
 31
0.0000
  0
LINE
  8
25
 10
18.9896
 20
67.9704
 30
0.0000
 11
18.9896
 21
68.3768
 31
0.0000
  0
LINE
  8
25
 10
18.9896
 20
68.3768
 30
0.0000
 11
19.1928
 21
68.3768
 31
0.0000
  0
LINE
  8
25
 10
19.1928
 20
68.3768
 30
0.0000
 11
19.1928
 21
68.3091
 31
0.0000
  0
LINE
  8
25
 10
19.3825
 20
68.1059
 30
0.0000
 11
19.3825
 21
68.2413
 31
0.0000
  0
ARC
  8
25
 10
19.5180
 20
68.2413
 30
0.0000
 40
0.1355
 50
0.0000
 51
180.0000
  0
LINE
  8
25
 10
19.6534
 20
68.2413
 30
0.0000
 11
19.6534
 21
68.1059
 31
0.0000
  0
ARC
  8
25
 10
19.5180
 20
68.1059
 30
0.0000
 40
0.1355
 50
180.0000
 51
0.0000
  0
LINE
  8
25
 10
20.1655
 20
67.9704
 30
0.0000
 11
19.9962
 21
67.9704
 31
0.0000
  0
ARC
  8
25
 10
19.9962
 20
68.0720
 30
0.0000
 40
0.1016
 50
180.0000
 51
270.0000
  0
LINE
  8
25
 10
19.8946
 20
68.0720
 30
0.0000
 11
19.8946
 21
68.2752
 31
0.0000
  0
ARC
  8
25
 10
19.9962
 20
68.2752
 30
0.0000
 40
0.1016
 50
90.0000
 51
180.0000
  0
LINE
  8
25
 10
19.9962
 20
68.3768
 30
0.0000
 11
20.1655
 21
68.3768
 31
0.0000
  0
LINE
  8
25
 10
20.1655
 20
68.3768
 30
0.0000
 11
20.1655
 21
67.8688
 31
0.0000
  0
ARC
  8
25
 10
20.0639
 20
67.8688
 30
0.0000
 40
0.1016
 50
270.0000
 51
0.0000
  0
LINE
  8
25
 10
20.0639
 20
67.7672
 30
0.0000
 11
19.9285
 21
67.7672
 31
0.0000
  0
LINE
  8
25
 10
20.7553
 20
67.9704
 30
0.0000
 11
20.9246
 21
67.9704
 31
0.0000
  0
ARC
  8
25
 10
20.9246
 20
68.1397
 30
0.0000
 40
0.1693
 50
270.0000
 51
90.0000
  0
LINE
  8
25
 10
20.7553
 20
68.5800
 30
0.0000
 11
20.9585
 21
68.5800
 31
0.0000
  0
ARC
  8
25
 10
20.9585
 20
68.4445
 30
0.0000
 40
0.1355
 50
270.0000
 51
90.0000
  0
LINE
  8
25
 10
20.9585
 20
68.3091
 30
0.0000
 11
20.8230
 21
68.3091
 31
0.0000
  0
LINE
  8
25
 10
21.6724
 20
68.2075
 30
0.0000
 11
22.0788
 21
68.2075
 31
0.0000
  0
LINE
  8
25
 10
22.6572
 20
67.9704
 30
0.0000
 11
22.8265
 21
67.9704
 31
0.0000
  0
ARC
  8
25
 10
22.8265
 20
68.1397
 30
0.0000
 40
0.1693
 50
270.0000
 51
90.0000
  0
LINE
  8
25
 10
22.6572
 20
68.5800
 30
0.0000
 11
22.8604
 21
68.5800
 31
0.0000
  0
ARC
  8
25
 10
22.8604
 20
68.4445
 30
0.0000
 40
0.1355
 50
270.0000
 51
90.0000
  0
LINE
  8
25
 10
22.8604
 20
68.3091
 30
0.0000
 11
22.7249
 21
68.3091
 31
0.0000
  0
LINE
  8
25
 10
23.2177
 20
68.5800
 30
0.0000
 11
23.4209
 21
67.9704
 31
0.0000
  0
LINE
  8
25
 10
23.4209
 20
67.9704
 30
0.0000
 11
23.6241
 21
68.5800
 31
0.0000
  0
LINE
  8
25
 10
23.8459
 20
67.9704
 30
0.0000
 11
24.0152
 21
67.9704
 31
0.0000
  0
ARC
  8
25
 10
24.0152
 20
68.1397
 30
0.0000
 40
0.1693
 50
270.0000
 51
90.0000
  0
LINE
  8
25
 10
23.8459
 20
68.5800
 30
0.0000
 11
24.0491
 21
68.5800
 31
0.0000
  0
ARC
  8
25
 10
24.0491
 20
68.4445
 30
0.0000
 40
0.1355
 50
270.0000
 51
90.0000
  0
LINE
  8
25
 10
24.0491
 20
68.3091
 30
0.0000
 11
23.9136
 21
68.3091
 31
0.0000
  0
LINE
  8
25
 10
24.7630
 20
68.2075
 30
0.0000
 11
25.1694
 21
68.2075
 31
0.0000
  0
LINE
  8
25
 10
25.7677
 20
67.9704
 30
0.0000
 11
25.7677
 21
68.5800
 31
0.0000
  0
LINE
  8
25
 10
25.7677
 20
68.5800
 30
0.0000
 11
26.1063
 21
67.9704
 31
0.0000
  0
LINE
  8
25
 10
26.1063
 20
67.9704
 30
0.0000
 11
26.1063
 21
68.5800
 31
0.0000
  0
LINE
  8
25
 10
26.4054
 20
67.9704
 30
0.0000
 11
26.4054
 21
68.5800
 31
0.0000
  0
LINE
  8
25
 10
26.4054
 20
68.5800
 30
0.0000
 11
26.5747
 21
68.5800
 31
0.0000
  0
ARC
  8
25
 10
26.5747
 20
68.4107
 30
0.0000
 40
0.1693
 50
270.0000
 51
90.0000
  0
LINE
  8
25
 10
26.5747
 20
68.2413
 30
0.0000
 11
26.4054
 21
68.2413
 31
0.0000
  0
LINE
  8
25
 10
26.7441
 20
67.9704
 30
0.0000
 11
26.6086
 21
68.2413
 31
0.0000
  0
ARC
  8
25
 10
27.1794
 20
68.1059
 30
0.0000
 40
0.1355
 50
270.0013
 51
360.0000
  0
ARC
  8
25
 10
27.1794
 20
68.2566
 30
0.0000
 40
0.2862
 50
224.7594
 51
270.0014
  0
ARC
  8
25
 10
27.1286
 20
68.4445
 30
0.0000
 40
0.1355
 50
90.0000
 51
180.0000
  0
ARC
  8
25
 10
27.1286
 20
68.3260
 30
0.0000
 40
0.2540
 50
53.1301
 51
90.0000
  0
ARC
  8
25
 10
27.1307
 20
68.4445
 30
0.0000
 40
0.1376
 50
179.9999
 51
239.4915
  0
ARC
  8
25
 10
27.1773
 20
68.1059
 30
0.0000
 40
0.1376
 50
0.0001
 51
59.4900
  0
LINE
  8
25
 10
27.2471
 20
68.2244
 30
0.0000
 11
27.0609
 21
68.3260
 31
0.0000
  0
LINE
  8
25
 10
27.6805
 20
67.9704
 30
0.0000
 11
27.6805
 21
68.5800
 31
0.0000
  0
LINE
  8
25
 10
27.5111
 20
68.5800
 30
0.0000
 11
27.8498
 21
68.5800
 31
0.0000
  0
LINE
  8
25
 10
28.3886
 20
68.2075
 30
0.0000
 11
28.7950
 21
68.2075
 31
0.0000
  0
ARC
  8
25
 10
29.5568
 20
68.1059
 30
0.0000
 40
0.1355
 50
270.0013
 51
360.0000
  0
ARC
  8
25
 10
29.5568
 20
68.2566
 30
0.0000
 40
0.2862
 50
224.7594
 51
270.0014
  0
ARC
  8
25
 10
29.5060
 20
68.4445
 30
0.0000
 40
0.1355
 50
90.0000
 51
180.0000
  0
ARC
  8
25
 10
29.5060
 20
68.3260
 30
0.0000
 40
0.2540
 50
53.1301
 51
90.0000
  0
ARC
  8
25
 10
29.5081
 20
68.4445
 30
0.0000
 40
0.1376
 50
179.9999
 51
239.4915
  0
ARC
  8
25
 10
29.5547
 20
68.1059
 30
0.0000
 40
0.1376
 50
0.0001
 51
59.4900
  0
LINE
  8
25
 10
29.6246
 20
68.2244
 30
0.0000
 11
29.4383
 21
68.3260
 31
0.0000
  0
LINE
  8
25
 10
29.9058
 20
68.5800
 30
0.0000
 11
30.0413
 21
67.9704
 31
0.0000
  0
LINE
  8
25
 10
30.0413
 20
67.9704
 30
0.0000
 11
30.1767
 21
68.3768
 31
0.0000
  0
LINE
  8
25
 10
30.1767
 20
68.3768
 30
0.0000
 11
30.3122
 21
67.9704
 31
0.0000
  0
LINE
  8
25
 10
30.3122
 20
67.9704
 30
0.0000
 11
30.4477
 21
68.5800
 31
0.0000
  0
LINE
  8
25
 10
30.9503
 20
67.9704
 30
0.0000
 11
30.8148
 21
67.9704
 31
0.0000
  0
ARC
  8
25
 10
30.8148
 20
68.1059
 30
0.0000
 40
0.1355
 50
180.0000
 51
270.0000
  0
LINE
  8
25
 10
30.6793
 20
68.1059
 30
0.0000
 11
30.6793
 21
68.4445
 31
0.0000
  0
ARC
  8
25
 10
30.8148
 20
68.4445
 30
0.0000
 40
0.1355
 50
90.0013
 51
180.0000
  0
LINE
  8
25
 10
30.8148
 20
68.5800
 30
0.0000
 11
30.9503
 21
68.5800
 31
0.0000
  0
LINE
  8
25
 10
31.1973
 20
68.5800
 30
0.0000
 11
31.1973
 21
67.9704
 31
0.0000
  0
LINE
  8
25
 10
31.1973
 20
67.9704
 30
0.0000
 11
31.4682
 21
67.9704
 31
0.0000
  0
LINE
  8
25
 10
31.7199
 20
67.9704
 30
0.0000
 11
31.7199
 21
68.5800
 31
0.0000
  0
LINE
  8
25
 10
32.0585
 20
68.5800
 30
0.0000
 11
31.7199
 21
68.2075
 31
0.0000
  0
LINE
  8
25
 10
32.0585
 20
67.9704
 30
0.0000
 11
31.8553
 21
68.3429
 31
0.0000
  0
LINE
  8
25
 10
32.6085
 20
68.2075
 30
0.0000
 11
33.0149
 21
68.2075
 31
0.0000
  0
ARC
  8
25
 10
33.7767
 20
68.1059
 30
0.0000
 40
0.1355
 50
270.0013
 51
360.0000
  0
ARC
  8
25
 10
33.7767
 20
68.2566
 30
0.0000
 40
0.2862
 50
224.7594
 51
270.0014
  0
ARC
  8
25
 10
33.7260
 20
68.4445
 30
0.0000
 40
0.1355
 50
90.0000
 51
180.0000
  0
ARC
  8
25
 10
33.7260
 20
68.3260
 30
0.0000
 40
0.2540
 50
53.1301
 51
90.0000
  0
ARC
  8
25
 10
33.7281
 20
68.4445
 30
0.0000
 40
0.1376
 50
179.9999
 51
239.4915
  0
ARC
  8
25
 10
33.7746
 20
68.1059
 30
0.0000
 40
0.1376
 50
0.0001
 51
59.4900
  0
LINE
  8
25
 10
33.8445
 20
68.2244
 30
0.0000
 11
33.6582
 21
68.3260
 31
0.0000
  0
LINE
  8
25
 10
34.1257
 20
68.5800
 30
0.0000
 11
34.2612
 21
67.9704
 31
0.0000
  0
LINE
  8
25
 10
34.2612
 20
67.9704
 30
0.0000
 11
34.3967
 21
68.3768
 31
0.0000
  0
LINE
  8
25
 10
34.3967
 20
68.3768
 30
0.0000
 11
34.5321
 21
67.9704
 31
0.0000
  0
LINE
  8
25
 10
34.5321
 20
67.9704
 30
0.0000
 11
34.6676
 21
68.5800
 31
0.0000
  0
LINE
  8
25
 10
34.9208
 20
67.9704
 30
0.0000
 11
34.9208
 21
68.5800
 31
0.0000
  0
LINE
  8
25
 10
34.9208
 20
68.5800
 30
0.0000
 11
35.0901
 21
68.5800
 31
0.0000
  0
ARC
  8
25
 10
35.0901
 20
68.4107
 30
0.0000
 40
0.1693
 50
0.0000
 51
90.0000
  0
LINE
  8
25
 10
35.2594
 20
68.4107
 30
0.0000
 11
35.2594
 21
68.1397
 31
0.0000
  0
ARC
  8
25
 10
35.0901
 20
68.1397
 30
0.0000
 40
0.1693
 50
270.0000
 51
0.0000
  0
LINE
  8
25
 10
35.0901
 20
67.9704
 30
0.0000
 11
34.9208
 21
67.9704
 31
0.0000
  0
LINE
  8
25
 10
35.5854
 20
68.5800
 30
0.0000
 11
35.5854
 21
67.9704
 31
0.0000
  0
LINE
  8
25
 10
35.5177
 20
67.9704
 30
0.0000
 11
35.6531
 21
67.9704
 31
0.0000
  0
LINE
  8
25
 10
35.5177
 20
68.5800
 30
0.0000
 11
35.6531
 21
68.5800
 31
0.0000
  0
LINE
  8
25
 10
35.8915
 20
68.1397
 30
0.0000
 11
35.8915
 21
68.4107
 31
0.0000
  0
ARC
  8
25
 10
36.0609
 20
68.4107
 30
0.0000
 40
0.1693
 50
0.0000
 51
180.0000
  0
LINE
  8
25
 10
36.2302
 20
68.4107
 30
0.0000
 11
36.2302
 21
68.1397
 31
0.0000
  0
ARC
  8
25
 10
36.0609
 20
68.1397
 30
0.0000
 40
0.1693
 50
180.0000
 51
0.0000
  0
LINE
  8
25
 10
60.3335
 20
67.1661
 30
0.0000
 11
60.4351
 21
67.1661
 31
0.0000
  0
LINE
  8
25
 10
60.4351
 20
67.1661
 30
0.0000
 11
60.4351
 21
66.8274
 31
0.0000
  0
LINE
  8
25
 10
60.4351
 20
66.8274
 30
0.0000
 11
60.2319
 21
66.8274
 31
0.0000
  0
ARC
  8
25
 10
60.2319
 20
66.9629
 30
0.0000
 40
0.1355
 50
180.0000
 51
270.0000
  0
LINE
  8
25
 10
60.0964
 20
66.9629
 30
0.0000
 11
60.0964
 21
67.3015
 31
0.0000
  0
ARC
  8
25
 10
60.2319
 20
67.3015
 30
0.0000
 40
0.1355
 50
90.0013
 51
180.0000
  0
LINE
  8
25
 10
60.2319
 20
67.4370
 30
0.0000
 11
60.4351
 21
67.4370
 31
0.0000
  0
LINE
  8
25
 10
60.7304
 20
66.8274
 30
0.0000
 11
60.7304
 21
67.4370
 31
0.0000
  0
LINE
  8
25
 10
60.7304
 20
67.4370
 30
0.0000
 11
61.0691
 21
66.8274
 31
0.0000
  0
LINE
  8
25
 10
61.0691
 20
66.8274
 30
0.0000
 11
61.0691
 21
67.4370
 31
0.0000
  0
LINE
  8
25
 10
61.3644
 20
66.8274
 30
0.0000
 11
61.3644
 21
67.4370
 31
0.0000
  0
LINE
  8
25
 10
61.3644
 20
67.4370
 30
0.0000
 11
61.5337
 21
67.4370
 31
0.0000
  0
ARC
  8
25
 10
61.5337
 20
67.2677
 30
0.0000
 40
0.1693
 50
0.0000
 51
90.0000
  0
LINE
  8
25
 10
61.7030
 20
67.2677
 30
0.0000
 11
61.7030
 21
66.9967
 31
0.0000
  0
ARC
  8
25
 10
61.5337
 20
66.9967
 30
0.0000
 40
0.1693
 50
270.0000
 51
0.0000
  0
LINE
  8
25
 10
61.5337
 20
66.8274
 30
0.0000
 11
61.3644
 21
66.8274
 31
0.0000
  0
LINE
  8
25
 10
62.6183
 20
67.0645
 30
0.0000
 11
63.0247
 21
67.0645
 31
0.0000
  0
LINE
  8
25
 10
64.1770
 20
67.1661
 30
0.0000
 11
64.2786
 21
67.1661
 31
0.0000
  0
LINE
  8
25
 10
64.2786
 20
67.1661
 30
0.0000
 11
64.2786
 21
66.8274
 31
0.0000
  0
LINE
  8
25
 10
64.2786
 20
66.8274
 30
0.0000
 11
64.0754
 21
66.8274
 31
0.0000
  0
ARC
  8
25
 10
64.0754
 20
66.9629
 30
0.0000
 40
0.1355
 50
180.0000
 51
270.0000
  0
LINE
  8
25
 10
63.9399
 20
66.9629
 30
0.0000
 11
63.9399
 21
67.3015
 31
0.0000
  0
ARC
  8
25
 10
64.0754
 20
67.3015
 30
0.0000
 40
0.1355
 50
90.0013
 51
180.0000
  0
LINE
  8
25
 10
64.0754
 20
67.4370
 30
0.0000
 11
64.2786
 21
67.4370
 31
0.0000
  0
LINE
  8
25
 10
64.5739
 20
66.8274
 30
0.0000
 11
64.5739
 21
67.4370
 31
0.0000
  0
LINE
  8
25
 10
64.5739
 20
67.4370
 30
0.0000
 11
64.9126
 21
66.8274
 31
0.0000
  0
LINE
  8
25
 10
64.9126
 20
66.8274
 30
0.0000
 11
64.9126
 21
67.4370
 31
0.0000
  0
LINE
  8
25
 10
65.2079
 20
66.8274
 30
0.0000
 11
65.2079
 21
67.4370
 31
0.0000
  0
LINE
  8
25
 10
65.2079
 20
67.4370
 30
0.0000
 11
65.3772
 21
67.4370
 31
0.0000
  0
ARC
  8
25
 10
65.3772
 20
67.2677
 30
0.0000
 40
0.1693
 50
0.0000
 51
90.0000
  0
LINE
  8
25
 10
65.5465
 20
67.2677
 30
0.0000
 11
65.5465
 21
66.9967
 31
0.0000
  0
ARC
  8
25
 10
65.3772
 20
66.9967
 30
0.0000
 40
0.1693
 50
270.0000
 51
0.0000
  0
LINE
  8
25
 10
65.3772
 20
66.8274
 30
0.0000
 11
65.2079
 21
66.8274
 31
0.0000
  0
LINE
  8
25
 10
66.4618
 20
67.0645
 30
0.0000
 11
66.8682
 21
67.0645
 31
0.0000
  0
LINE
  8
25
 10
68.0205
 20
67.1661
 30
0.0000
 11
68.1221
 21
67.1661
 31
0.0000
  0
LINE
  8
25
 10
68.1221
 20
67.1661
 30
0.0000
 11
68.1221
 21
66.8274
 31
0.0000
  0
LINE
  8
25
 10
68.1221
 20
66.8274
 30
0.0000
 11
67.9189
 21
66.8274
 31
0.0000
  0
ARC
  8
25
 10
67.9189
 20
66.9629
 30
0.0000
 40
0.1355
 50
180.0000
 51
270.0000
  0
LINE
  8
25
 10
67.7834
 20
66.9629
 30
0.0000
 11
67.7834
 21
67.3015
 31
0.0000
  0
ARC
  8
25
 10
67.9189
 20
67.3015
 30
0.0000
 40
0.1355
 50
90.0013
 51
180.0000
  0
LINE
  8
25
 10
67.9189
 20
67.4370
 30
0.0000
 11
68.1221
 21
67.4370
 31
0.0000
  0
LINE
  8
25
 10
68.4174
 20
66.8274
 30
0.0000
 11
68.4174
 21
67.4370
 31
0.0000
  0
LINE
  8
25
 10
68.4174
 20
67.4370
 30
0.0000
 11
68.7561
 21
66.8274
 31
0.0000
  0
LINE
  8
25
 10
68.7561
 20
66.8274
 30
0.0000
 11
68.7561
 21
67.4370
 31
0.0000
  0
LINE
  8
25
 10
69.0514
 20
66.8274
 30
0.0000
 11
69.0514
 21
67.4370
 31
0.0000
  0
LINE
  8
25
 10
69.0514
 20
67.4370
 30
0.0000
 11
69.2207
 21
67.4370
 31
0.0000
  0
ARC
  8
25
 10
69.2207
 20
67.2677
 30
0.0000
 40
0.1693
 50
0.0000
 51
90.0000
  0
LINE
  8
25
 10
69.3901
 20
67.2677
 30
0.0000
 11
69.3901
 21
66.9967
 31
0.0000
  0
ARC
  8
25
 10
69.2207
 20
66.9967
 30
0.0000
 40
0.1693
 50
270.0000
 51
0.0000
  0
LINE
  8
25
 10
69.2207
 20
66.8274
 30
0.0000
 11
69.0514
 21
66.8274
 31
0.0000
  0
LINE
  8
25
 10
70.9393
 20
67.0645
 30
0.0000
 11
71.3457
 21
67.0645
 31
0.0000
  0
LINE
  8
25
 10
72.1933
 20
66.8274
 30
0.0000
 11
72.0579
 21
66.8274
 31
0.0000
  0
ARC
  8
25
 10
72.0579
 20
66.9629
 30
0.0000
 40
0.1355
 50
180.0000
 51
270.0000
  0
LINE
  8
25
 10
71.9224
 20
66.9629
 30
0.0000
 11
71.9224
 21
67.3015
 31
0.0000
  0
ARC
  8
25
 10
72.0579
 20
67.3015
 30
0.0000
 40
0.1355
 50
90.0013
 51
180.0000
  0
LINE
  8
25
 10
72.0579
 20
67.4370
 30
0.0000
 11
72.1933
 21
67.4370
 31
0.0000
  0
LINE
  8
25
 10
72.3855
 20
66.8274
 30
0.0000
 11
72.5887
 21
67.4370
 31
0.0000
  0
LINE
  8
25
 10
72.5887
 20
67.4370
 30
0.0000
 11
72.7919
 21
66.8274
 31
0.0000
  0
LINE
  8
25
 10
72.7411
 20
66.9798
 30
0.0000
 11
72.4363
 21
66.9798
 31
0.0000
  0
LINE
  8
25
 10
73.0336
 20
66.8274
 30
0.0000
 11
73.0336
 21
67.4370
 31
0.0000
  0
LINE
  8
25
 10
73.0336
 20
67.4370
 30
0.0000
 11
73.3722
 21
66.8274
 31
0.0000
  0
LINE
  8
25
 10
73.3722
 20
66.8274
 30
0.0000
 11
73.3722
 21
67.4370
 31
0.0000
  0
LINE
  8
25
 10
73.9857
 20
67.4370
 30
0.0000
 11
73.9857
 21
66.8274
 31
0.0000
  0
LINE
  8
25
 10
73.9857
 20
66.8274
 30
0.0000
 11
74.2566
 21
66.8274
 31
0.0000
  0
LINE
  8
25
 10
74.8026
 20
67.0645
 30
0.0000
 11
75.2090
 21
67.0645
 31
0.0000
  0
LINE
  8
25
 10
76.0567
 20
66.8274
 30
0.0000
 11
75.9212
 21
66.8274
 31
0.0000
  0
ARC
  8
25
 10
75.9212
 20
66.9629
 30
0.0000
 40
0.1355
 50
180.0000
 51
270.0000
  0
LINE
  8
25
 10
75.7857
 20
66.9629
 30
0.0000
 11
75.7857
 21
67.3015
 31
0.0000
  0
ARC
  8
25
 10
75.9212
 20
67.3015
 30
0.0000
 40
0.1355
 50
90.0013
 51
180.0000
  0
LINE
  8
25
 10
75.9212
 20
67.4370
 30
0.0000
 11
76.0567
 21
67.4370
 31
0.0000
  0
LINE
  8
25
 10
76.2488
 20
66.8274
 30
0.0000
 11
76.4520
 21
67.4370
 31
0.0000
  0
LINE
  8
25
 10
76.4520
 20
67.4370
 30
0.0000
 11
76.6552
 21
66.8274
 31
0.0000
  0
LINE
  8
25
 10
76.6044
 20
66.9798
 30
0.0000
 11
76.2996
 21
66.9798
 31
0.0000
  0
LINE
  8
25
 10
76.8969
 20
66.8274
 30
0.0000
 11
76.8969
 21
67.4370
 31
0.0000
  0
LINE
  8
25
 10
76.8969
 20
67.4370
 30
0.0000
 11
77.2356
 21
66.8274
 31
0.0000
  0
LINE
  8
25
 10
77.2356
 20
66.8274
 30
0.0000
 11
77.2356
 21
67.4370
 31
0.0000
  0
LINE
  8
25
 10
77.8479
 20
66.8274
 30
0.0000
 11
77.8479
 21
67.4370
 31
0.0000
  0
LINE
  8
25
 10
77.8479
 20
67.1661
 30
0.0000
 11
78.1865
 21
67.1661
 31
0.0000
  0
LINE
  8
25
 10
78.1865
 20
67.4370
 30
0.0000
 11
78.1865
 21
66.8274
 31
0.0000
  0
LINE
  8
25
 10
78.7848
 20
67.0645
 30
0.0000
 11
79.1912
 21
67.0645
 31
0.0000
  0
LINE
  8
25
 10
80.0866
 20
66.8274
 30
0.0000
 11
80.2898
 21
66.8274
 31
0.0000
  0
ARC
  8
25
 10
80.2898
 20
66.9629
 30
0.0000
 40
0.1355
 50
270.0000
 51
0.0013
  0
LINE
  8
25
 10
80.4253
 20
66.9629
 30
0.0000
 11
80.4253
 21
67.0306
 31
0.0000
  0
ARC
  8
25
 10
80.2898
 20
67.0306
 30
0.0000
 40
0.1355
 50
0.0000
 51
90.0000
  0
LINE
  8
25
 10
80.2898
 20
67.1661
 30
0.0000
 11
80.0866
 21
67.1661
 31
0.0000
  0
LINE
  8
25
 10
80.0866
 20
67.1661
 30
0.0000
 11
80.0866
 21
67.4370
 31
0.0000
  0
LINE
  8
25
 10
80.0866
 20
67.4370
 30
0.0000
 11
80.4253
 21
67.4370
 31
0.0000
  0
LINE
  8
25
 10
80.6471
 20
67.4370
 30
0.0000
 11
80.8503
 21
66.8274
 31
0.0000
  0
LINE
  8
25
 10
80.8503
 20
66.8274
 30
0.0000
 11
81.0535
 21
67.4370
 31
0.0000
  0
LINE
  8
25
 10
82.2320
 20
67.0645
 30
0.0000
 11
82.6384
 21
67.0645
 31
0.0000
  0
LINE
  8
25
 10
83.8508
 20
66.8274
 30
0.0000
 11
84.0540
 21
66.8274
 31
0.0000
  0
ARC
  8
25
 10
84.0540
 20
66.9629
 30
0.0000
 40
0.1355
 50
270.0000
 51
0.0013
  0
LINE
  8
25
 10
84.1895
 20
66.9629
 30
0.0000
 11
84.1895
 21
67.0306
 31
0.0000
  0
ARC
  8
25
 10
84.0540
 20
67.0306
 30
0.0000
 40
0.1355
 50
0.0000
 51
90.0000
  0
LINE
  8
25
 10
84.0540
 20
67.1661
 30
0.0000
 11
83.8508
 21
67.1661
 31
0.0000
  0
LINE
  8
25
 10
83.8508
 20
67.1661
 30
0.0000
 11
83.8508
 21
67.4370
 31
0.0000
  0
LINE
  8
25
 10
83.8508
 20
67.4370
 30
0.0000
 11
84.1895
 21
67.4370
 31
0.0000
  0
LINE
  8
25
 10
84.4113
 20
67.4370
 30
0.0000
 11
84.6145
 21
66.8274
 31
0.0000
  0
LINE
  8
25
 10
84.6145
 20
66.8274
 30
0.0000
 11
84.8177
 21
67.4370
 31
0.0000
  0
LINE
  8
25
 10
86.6303
 20
67.0645
 30
0.0000
 11
87.0367
 21
67.0645
 31
0.0000
  0
LINE
  8
25
 10
88.5661
 20
66.8274
 30
0.0000
 11
88.7693
 21
66.8274
 31
0.0000
  0
ARC
  8
25
 10
88.7693
 20
66.9629
 30
0.0000
 40
0.1355
 50
270.0000
 51
0.0013
  0
LINE
  8
25
 10
88.9047
 20
66.9629
 30
0.0000
 11
88.9047
 21
67.0306
 31
0.0000
  0
ARC
  8
25
 10
88.7693
 20
67.0306
 30
0.0000
 40
0.1355
 50
0.0000
 51
90.0000
  0
LINE
  8
25
 10
88.7693
 20
67.1661
 30
0.0000
 11
88.5661
 21
67.1661
 31
0.0000
  0
LINE
  8
25
 10
88.5661
 20
67.1661
 30
0.0000
 11
88.5661
 21
67.4370
 31
0.0000
  0
LINE
  8
25
 10
88.5661
 20
67.4370
 30
0.0000
 11
88.9047
 21
67.4370
 31
0.0000
  0
LINE
  8
25
 10
89.1265
 20
67.4370
 30
0.0000
 11
89.3297
 21
66.8274
 31
0.0000
  0
LINE
  8
25
 10
89.3297
 20
66.8274
 30
0.0000
 11
89.5329
 21
67.4370
 31
0.0000
  0
LINE
  8
26
 10
90.3859
 20
71.7324
 30
0.0000
 11
90.3859
 21
71.6252
 31
0.0000
  0
ARC
  8
26
 10
90.4931
 20
71.6252
 30
0.0000
 40
0.1072
 50
180.0000
 51
270.0000
  0
LINE
  8
26
 10
90.4931
 20
71.5179
 30
0.0000
 11
90.7613
 21
71.5179
 31
0.0000
  0
ARC
  8
26
 10
90.7613
 20
71.6252
 30
0.0000
 40
0.1072
 50
270.0000
 51
359.9983
  0
LINE
  8
26
 10
90.8685
 20
71.6252
 30
0.0000
 11
90.8685
 21
71.7324
 31
0.0000
  0
LINE
  8
26
 10
90.7613
 20
71.9780
 30
0.0000
 11
90.8685
 21
72.1120
 31
0.0000
  0
LINE
  8
26
 10
90.8685
 20
72.1120
 30
0.0000
 11
90.3859
 21
72.1120
 31
0.0000
  0
LINE
  8
26
 10
90.3859
 20
71.9780
 30
0.0000
 11
90.3859
 21
72.2461
 31
0.0000
  0
LINE
  8
26
 10
35.5219
 20
70.9704
 30
0.0000
 11
35.5219
 21
70.8632
 31
0.0000
  0
ARC
  8
26
 10
35.6291
 20
70.8632
 30
0.0000
 40
0.1072
 50
180.0000
 51
270.0000
  0
LINE
  8
26
 10
35.6291
 20
70.7559
 30
0.0000
 11
35.8973
 21
70.7559
 31
0.0000
  0
ARC
  8
26
 10
35.8973
 20
70.8632
 30
0.0000
 40
0.1072
 50
270.0000
 51
359.9983
  0
LINE
  8
26
 10
36.0045
 20
70.8632
 30
0.0000
 11
36.0045
 21
70.9704
 31
0.0000
  0
ARC
  8
26
 10
35.8838
 20
71.3634
 30
0.0000
 40
0.1207
 50
0.0015
 51
90.0000
  0
ARC
  8
26
 10
35.8495
 20
71.3634
 30
0.0000
 40
0.1550
 50
287.9433
 51
0.0012
  0
ARC
  8
26
 10
35.8838
 20
71.3545
 30
0.0000
 40
0.1296
 50
90.0002
 51
136.3965
  0
LINE
  8
26
 10
35.7900
 20
71.4439
 30
0.0000
 11
35.5219
 21
71.2160
 31
0.0000
  0
LINE
  8
26
 10
35.5219
 20
71.2160
 30
0.0000
 11
35.5219
 21
71.4841
 31
0.0000
  0
LINE
  8
25
 10
31.3325
 20
8.4455
 30
0.0000
 11
31.3325
 21
8.9281
 31
0.0000
  0
LINE
  8
25
 10
31.3325
 20
8.7136
 30
0.0000
 11
31.6006
 21
8.7136
 31
0.0000
  0
LINE
  8
25
 10
31.6006
 20
8.9281
 30
0.0000
 11
31.6006
 21
8.4455
 31
0.0000
  0
LINE
  8
25
 10
31.8994
 20
8.8209
 30
0.0000
 11
32.0335
 21
8.9281
 31
0.0000
  0
LINE
  8
25
 10
32.0335
 20
8.9281
 30
0.0000
 11
32.0335
 21
8.4455
 31
0.0000
  0
LINE
  8
25
 10
31.8994
 20
8.4455
 30
0.0000
 11
32.1675
 21
8.4455
 31
0.0000
  0
CIRCLE
  8
20
 10
31.7500
 20
6.3500
 30
0.0000
 40
1.6510
  0
LINE
  8
25
 10
31.3325
 20
8.4455
 30
0.0000
 11
31.3325
 21
8.9281
 31
0.0000
  0
LINE
  8
25
 10
31.3325
 20
8.7136
 30
0.0000
 11
31.6006
 21
8.7136
 31
0.0000
  0
LINE
  8
25
 10
31.6006
 20
8.9281
 30
0.0000
 11
31.6006
 21
8.4455
 31
0.0000
  0
LINE
  8
25
 10
31.8994
 20
8.8209
 30
0.0000
 11
32.0335
 21
8.9281
 31
0.0000
  0
LINE
  8
25
 10
32.0335
 20
8.9281
 30
0.0000
 11
32.0335
 21
8.4455
 31
0.0000
  0
LINE
  8
25
 10
31.8994
 20
8.4455
 30
0.0000
 11
32.1675
 21
8.4455
 31
0.0000
  0
LINE
  8
25
 10
107.5325
 20
8.4455
 30
0.0000
 11
107.5325
 21
8.9281
 31
0.0000
  0
LINE
  8
25
 10
107.5325
 20
8.7136
 30
0.0000
 11
107.8006
 21
8.7136
 31
0.0000
  0
LINE
  8
25
 10
107.8006
 20
8.9281
 30
0.0000
 11
107.8006
 21
8.4455
 31
0.0000
  0
ARC
  8
25
 10
108.2469
 20
8.8074
 30
0.0000
 40
0.1207
 50
0.0000
 51
90.0000
  0
ARC
  8
25
 10
108.2469
 20
8.7731
 30
0.0000
 40
0.1550
 50
90.0003
 51
162.0552
  0
ARC
  8
25
 10
108.2379
 20
8.8074
 30
0.0000
 40
0.1296
 50
313.6035
 51
359.9998
  0
LINE
  8
25
 10
108.3273
 20
8.7136
 30
0.0000
 11
108.0994
 21
8.4455
 31
0.0000
  0
LINE
  8
25
 10
108.0994
 20
8.4455
 30
0.0000
 11
108.3675
 21
8.4455
 31
0.0000
  0
CIRCLE
  8
20
 10
107.9500
 20
6.3500
 30
0.0000
 40
1.6510
  0
LINE
  8
25
 10
107.5325
 20
8.4455
 30
0.0000
 11
107.5325
 21
8.9281
 31
0.0000
  0
LINE
  8
25
 10
107.5325
 20
8.7136
 30
0.0000
 11
107.8006
 21
8.7136
 31
0.0000
  0
LINE
  8
25
 10
107.8006
 20
8.9281
 30
0.0000
 11
107.8006
 21
8.4455
 31
0.0000
  0
ARC
  8
25
 10
108.2469
 20
8.8074
 30
0.0000
 40
0.1207
 50
0.0000
 51
90.0000
  0
ARC
  8
25
 10
108.2469
 20
8.7731
 30
0.0000
 40
0.1550
 50
90.0003
 51
162.0552
  0
ARC
  8
25
 10
108.2379
 20
8.8074
 30
0.0000
 40
0.1296
 50
313.6035
 51
359.9998
  0
LINE
  8
25
 10
108.3273
 20
8.7136
 30
0.0000
 11
108.0994
 21
8.4455
 31
0.0000
  0
LINE
  8
25
 10
108.0994
 20
8.4455
 30
0.0000
 11
108.3675
 21
8.4455
 31
0.0000
  0
LINE
  8
25
 10
54.3195
 20
71.0565
 30
0.0000
 11
54.3195
 21
71.5391
 31
0.0000
  0
LINE
  8
25
 10
54.3195
 20
71.3246
 30
0.0000
 11
54.5876
 21
71.3246
 31
0.0000
  0
LINE
  8
25
 10
54.5876
 20
71.5391
 30
0.0000
 11
54.5876
 21
71.0565
 31
0.0000
  0
LINE
  8
25
 10
54.8864
 20
71.0565
 30
0.0000
 11
55.0205
 21
71.0565
 31
0.0000
  0
ARC
  8
25
 10
55.0205
 20
71.1906
 30
0.0000
 40
0.1341
 50
270.0000
 51
90.0000
  0
LINE
  8
25
 10
54.8864
 20
71.5391
 30
0.0000
 11
55.0473
 21
71.5391
 31
0.0000
  0
ARC
  8
25
 10
55.0473
 20
71.4319
 30
0.0000
 40
0.1072
 50
270.0000
 51
90.0000
  0
LINE
  8
25
 10
55.0473
 20
71.3246
 30
0.0000
 11
54.9400
 21
71.3246
 31
0.0000
  0
CIRCLE
  8
20
 10
54.7370
 20
68.9610
 30
0.0000
 40
1.6510
  0
LINE
  8
25
 10
54.3195
 20
71.0565
 30
0.0000
 11
54.3195
 21
71.5391
 31
0.0000
  0
LINE
  8
25
 10
54.3195
 20
71.3246
 30
0.0000
 11
54.5876
 21
71.3246
 31
0.0000
  0
LINE
  8
25
 10
54.5876
 20
71.5391
 30
0.0000
 11
54.5876
 21
71.0565
 31
0.0000
  0
LINE
  8
25
 10
54.8864
 20
71.0565
 30
0.0000
 11
55.0205
 21
71.0565
 31
0.0000
  0
ARC
  8
25
 10
55.0205
 20
71.1906
 30
0.0000
 40
0.1341
 50
270.0000
 51
90.0000
  0
LINE
  8
25
 10
54.8864
 20
71.5391
 30
0.0000
 11
55.0473
 21
71.5391
 31
0.0000
  0
ARC
  8
25
 10
55.0473
 20
71.4319
 30
0.0000
 40
0.1072
 50
270.0000
 51
90.0000
  0
LINE
  8
25
 10
55.0473
 20
71.3246
 30
0.0000
 11
54.9400
 21
71.3246
 31
0.0000
  0
LINE
  8
25
 10
107.5325
 20
71.9455
 30
0.0000
 11
107.5325
 21
72.4281
 31
0.0000
  0
LINE
  8
25
 10
107.5325
 20
72.2136
 30
0.0000
 11
107.8006
 21
72.2136
 31
0.0000
  0
LINE
  8
25
 10
107.8006
 20
72.4281
 30
0.0000
 11
107.8006
 21
71.9455
 31
0.0000
  0
LINE
  8
25
 10
108.2067
 20
72.4281
 30
0.0000
 11
108.0994
 21
72.0527
 31
0.0000
  0
LINE
  8
25
 10
108.0994
 20
72.0527
 30
0.0000
 11
108.3675
 21
72.0527
 31
0.0000
  0
LINE
  8
25
 10
108.2871
 20
72.1600
 30
0.0000
 11
108.2871
 21
71.9455
 31
0.0000
  0
CIRCLE
  8
20
 10
107.9500
 20
69.8500
 30
0.0000
 40
1.6510
  0
LINE
  8
25
 10
107.5325
 20
71.9455
 30
0.0000
 11
107.5325
 21
72.4281
 31
0.0000
  0
LINE
  8
25
 10
107.5325
 20
72.2136
 30
0.0000
 11
107.8006
 21
72.2136
 31
0.0000
  0
LINE
  8
25
 10
107.8006
 20
72.4281
 30
0.0000
 11
107.8006
 21
71.9455
 31
0.0000
  0
LINE
  8
25
 10
108.2067
 20
72.4281
 30
0.0000
 11
108.0994
 21
72.0527
 31
0.0000
  0
LINE
  8
25
 10
108.0994
 20
72.0527
 30
0.0000
 11
108.3675
 21
72.0527
 31
0.0000
  0
LINE
  8
25
 10
108.2871
 20
72.1600
 30
0.0000
 11
108.2871
 21
71.9455
 31
0.0000
  0
LINE
  8
21
 10
54.2360
 20
7.5500
 30
0.0000
 11
54.2360
 21
-1.6500
 31
0.0000
  0
LINE
  8
21
 10
39.2360
 20
-1.6500
 30
0.0000
 11
39.2360
 21
7.5500
 31
0.0000
  0
LINE
  8
21
 10
54.2360
 20
-1.6500
 30
0.0000
 11
39.2360
 21
-1.6500
 31
0.0000
  0
LINE
  8
21
 10
40.1660
 20
7.5500
 30
0.0000
 11
39.2360
 21
7.5500
 31
0.0000
  0
LINE
  8
21
 10
54.2360
 20
7.5500
 30
0.0000
 11
53.3060
 21
7.5500
 31
0.0000
  0
LINE
  8
25
 10
55.2088
 20
-3.9008
 30
0.0000
 11
55.2088
 21
-4.8096
 31
0.0000
  0
ARC
  8
25
 10
54.9491
 20
-4.8096
 30
0.0000
 40
0.2596
 50
270.0000
 51
0.0000
  0
LINE
  8
25
 10
54.9491
 20
-5.0692
 30
0.0000
 11
54.8193
 21
-5.0692
 31
0.0000
  0
LINE
  8
25
 10
55.7361
 20
-4.1604
 30
0.0000
 11
56.0606
 21
-3.9008
 31
0.0000
  0
LINE
  8
25
 10
56.0606
 20
-3.9008
 30
0.0000
 11
56.0606
 21
-5.0692
 31
0.0000
  0
LINE
  8
25
 10
55.7361
 20
-5.0692
 30
0.0000
 11
56.3852
 21
-5.0692
 31
0.0000
  0
CIRCLE
  8
21
 10
51.9860
 20
-3.4500
 30
0.0000
 40
0.1000
  0
INSERT
  8
17
  2
SQUAREP
 10
51.9860
 20
6.3500
 30
0.0000
 41
1.8000
 42
1.8000
 43
1.0000
 50
180.0000
  0
INSERT
  8
17
  2
SQUAREP
 10
51.9860
 20
6.3500
 30
0.0000
 41
1.8000
 42
1.8000
 43
1.0000
 50
180.0000
  0
INSERT
  8
17
  2
ROUNDP
 10
48.4860
 20
6.3500
 30
0.0000
 41
1.8000
 42
1.8000
 43
1.0000
 50
180.0000
  0
INSERT
  8
17
  2
ROUNDP
 10
48.4860
 20
6.3500
 30
0.0000
 41
1.8000
 42
1.8000
 43
1.0000
 50
180.0000
  0
INSERT
  8
17
  2
ROUNDP
 10
44.9860
 20
6.3500
 30
0.0000
 41
1.8000
 42
1.8000
 43
1.0000
 50
180.0000
  0
INSERT
  8
17
  2
ROUNDP
 10
44.9860
 20
6.3500
 30
0.0000
 41
1.8000
 42
1.8000
 43
1.0000
 50
180.0000
  0
INSERT
  8
17
  2
ROUNDP
 10
41.4860
 20
6.3500
 30
0.0000
 41
1.8000
 42
1.8000
 43
1.0000
 50
180.0000
  0
INSERT
  8
17
  2
ROUNDP
 10
41.4860
 20
6.3500
 30
0.0000
 41
1.8000
 42
1.8000
 43
1.0000
 50
180.0000
  0
LINE
  8
21
 10
70.7460
 20
7.6770
 30
0.0000
 11
70.7460
 21
-1.5230
 31
0.0000
  0
LINE
  8
21
 10
55.7460
 20
-1.5230
 30
0.0000
 11
55.7460
 21
7.6770
 31
0.0000
  0
LINE
  8
21
 10
70.7460
 20
-1.5230
 30
0.0000
 11
55.7460
 21
-1.5230
 31
0.0000
  0
LINE
  8
21
 10
56.6760
 20
7.6770
 30
0.0000
 11
55.7460
 21
7.6770
 31
0.0000
  0
LINE
  8
21
 10
70.7460
 20
7.6770
 30
0.0000
 11
69.8160
 21
7.6770
 31
0.0000
  0
LINE
  8
25
 10
71.7188
 20
-3.7738
 30
0.0000
 11
71.7188
 21
-4.6826
 31
0.0000
  0
ARC
  8
25
 10
71.4591
 20
-4.6826
 30
0.0000
 40
0.2596
 50
270.0000
 51
0.0000
  0
LINE
  8
25
 10
71.4591
 20
-4.9422
 30
0.0000
 11
71.3293
 21
-4.9422
 31
0.0000
  0
ARC
  8
25
 10
72.6031
 20
-4.0659
 30
0.0000
 40
0.2921
 50
0.0000
 51
90.0000
  0
ARC
  8
25
 10
72.6031
 20
-4.1491
 30
0.0000
 40
0.3753
 50
90.0001
 51
162.0554
  0
ARC
  8
25
 10
72.5815
 20
-4.0659
 30
0.0000
 40
0.3137
 50
313.6034
 51
0.0002
  0
LINE
  8
25
 10
72.7978
 20
-4.2931
 30
0.0000
 11
72.2461
 21
-4.9422
 31
0.0000
  0
LINE
  8
25
 10
72.2461
 20
-4.9422
 30
0.0000
 11
72.8952
 21
-4.9422
 31
0.0000
  0
CIRCLE
  8
21
 10
68.4960
 20
-3.3230
 30
0.0000
 40
0.1000
  0
INSERT
  8
17
  2
SQUAREP
 10
68.4960
 20
6.4770
 30
0.0000
 41
1.8000
 42
1.8000
 43
1.0000
 50
180.0000
  0
INSERT
  8
17
  2
SQUAREP
 10
68.4960
 20
6.4770
 30
0.0000
 41
1.8000
 42
1.8000
 43
1.0000
 50
180.0000
  0
INSERT
  8
17
  2
ROUNDP
 10
64.9960
 20
6.4770
 30
0.0000
 41
1.8000
 42
1.8000
 43
1.0000
 50
180.0000
  0
INSERT
  8
17
  2
ROUNDP
 10
64.9960
 20
6.4770
 30
0.0000
 41
1.8000
 42
1.8000
 43
1.0000
 50
180.0000
  0
INSERT
  8
17
  2
ROUNDP
 10
61.4960
 20
6.4770
 30
0.0000
 41
1.8000
 42
1.8000
 43
1.0000
 50
180.0000
  0
INSERT
  8
17
  2
ROUNDP
 10
61.4960
 20
6.4770
 30
0.0000
 41
1.8000
 42
1.8000
 43
1.0000
 50
180.0000
  0
INSERT
  8
17
  2
ROUNDP
 10
57.9960
 20
6.4770
 30
0.0000
 41
1.8000
 42
1.8000
 43
1.0000
 50
180.0000
  0
INSERT
  8
17
  2
ROUNDP
 10
57.9960
 20
6.4770
 30
0.0000
 41
1.8000
 42
1.8000
 43
1.0000
 50
180.0000
  0
LINE
  8
21
 10
5.0580
 20
70.9360
 30
0.0000
 11
5.0580
 21
80.1360
 31
0.0000
  0
LINE
  8
21
 10
34.0580
 20
80.1360
 30
0.0000
 11
34.0580
 21
70.9360
 31
0.0000
  0
LINE
  8
21
 10
5.0580
 20
80.1360
 30
0.0000
 11
34.0580
 21
80.1360
 31
0.0000
  0
LINE
  8
21
 10
33.1280
 20
70.9360
 30
0.0000
 11
34.0580
 21
70.9360
 31
0.0000
  0
LINE
  8
21
 10
5.0580
 20
70.9360
 30
0.0000
 11
5.9880
 21
70.9360
 31
0.0000
  0
LINE
  8
25
 10
3.2983
 20
83.5552
 30
0.0000
 11
3.2983
 21
82.6464
 31
0.0000
  0
ARC
  8
25
 10
3.0386
 20
82.6464
 30
0.0000
 40
0.2596
 50
270.0000
 51
0.0000
  0
LINE
  8
25
 10
3.0386
 20
82.3868
 30
0.0000
 11
2.9088
 21
82.3868
 31
0.0000
  0
LINE
  8
25
 10
3.8256
 20
82.3868
 30
0.0000
 11
4.1502
 21
82.3868
 31
0.0000
  0
ARC
  8
25
 10
4.1502
 20
82.7114
 30
0.0000
 40
0.3246
 50
270.0000
 51
90.0000
  0
LINE
  8
25
 10
3.8256
 20
83.5552
 30
0.0000
 11
4.2151
 21
83.5552
 31
0.0000
  0
ARC
  8
25
 10
4.2151
 20
83.2956
 30
0.0000
 40
0.2596
 50
270.0000
 51
90.0000
  0
LINE
  8
25
 10
4.2151
 20
83.0359
 30
0.0000
 11
3.9554
 21
83.0359
 31
0.0000
  0
CIRCLE
  8
21
 10
7.3080
 20
81.9360
 30
0.0000
 40
0.1000
  0
INSERT
  8
17
  2
SQUAREP
 10
7.3080
 20
72.1360
 30
0.0000
 41
1.8000
 42
1.8000
 43
1.0000
 50
0.0000
  0
INSERT
  8
17
  2
SQUAREP
 10
7.3080
 20
72.1360
 30
0.0000
 41
1.8000
 42
1.8000
 43
1.0000
 50
0.0000
  0
INSERT
  8
17
  2
ROUNDP
 10
10.8080
 20
72.1360
 30
0.0000
 41
1.8000
 42
1.8000
 43
1.0000
 50
0.0000
  0
INSERT
  8
17
  2
ROUNDP
 10
10.8080
 20
72.1360
 30
0.0000
 41
1.8000
 42
1.8000
 43
1.0000
 50
0.0000
  0
INSERT
  8
17
  2
ROUNDP
 10
14.3080
 20
72.1360
 30
0.0000
 41
1.8000
 42
1.8000
 43
1.0000
 50
0.0000
  0
INSERT
  8
17
  2
ROUNDP
 10
14.3080
 20
72.1360
 30
0.0000
 41
1.8000
 42
1.8000
 43
1.0000
 50
0.0000
  0
INSERT
  8
17
  2
ROUNDP
 10
17.8080
 20
72.1360
 30
0.0000
 41
1.8000
 42
1.8000
 43
1.0000
 50
0.0000
  0
INSERT
  8
17
  2
ROUNDP
 10
17.8080
 20
72.1360
 30
0.0000
 41
1.8000
 42
1.8000
 43
1.0000
 50
0.0000
  0
INSERT
  8
17
  2
ROUNDP
 10
21.3080
 20
72.1360
 30
0.0000
 41
1.8000
 42
1.8000
 43
1.0000
 50
0.0000
  0
INSERT
  8
17
  2
ROUNDP
 10
21.3080
 20
72.1360
 30
0.0000
 41
1.8000
 42
1.8000
 43
1.0000
 50
0.0000
  0
INSERT
  8
17
  2
ROUNDP
 10
24.8080
 20
72.1360
 30
0.0000
 41
1.8000
 42
1.8000
 43
1.0000
 50
0.0000
  0
INSERT
  8
17
  2
ROUNDP
 10
24.8080
 20
72.1360
 30
0.0000
 41
1.8000
 42
1.8000
 43
1.0000
 50
0.0000
  0
INSERT
  8
17
  2
ROUNDP
 10
28.3080
 20
72.1360
 30
0.0000
 41
1.8000
 42
1.8000
 43
1.0000
 50
0.0000
  0
INSERT
  8
17
  2
ROUNDP
 10
28.3080
 20
72.1360
 30
0.0000
 41
1.8000
 42
1.8000
 43
1.0000
 50
0.0000
  0
INSERT
  8
17
  2
ROUNDP
 10
31.8080
 20
72.1360
 30
0.0000
 41
1.8000
 42
1.8000
 43
1.0000
 50
0.0000
  0
INSERT
  8
17
  2
ROUNDP
 10
31.8080
 20
72.1360
 30
0.0000
 41
1.8000
 42
1.8000
 43
1.0000
 50
0.0000
  0
LINE
  8
22
 10
87.5250
 20
68.2690
 30
0.0000
 11
87.5250
 21
77.4690
 31
0.0000
  0
LINE
  8
22
 10
58.5250
 20
77.4690
 30
0.0000
 11
58.5250
 21
68.2690
 31
0.0000
  0
LINE
  8
22
 10
87.5250
 20
77.4690
 30
0.0000
 11
58.5250
 21
77.4690
 31
0.0000
  0
LINE
  8
22
 10
59.4550
 20
68.2690
 30
0.0000
 11
58.5250
 21
68.2690
 31
0.0000
  0
LINE
  8
22
 10
87.5250
 20
68.2690
 30
0.0000
 11
86.5950
 21
68.2690
 31
0.0000
  0
LINE
  8
26
 10
89.2847
 20
80.8882
 30
0.0000
 11
89.2847
 21
79.9794
 31
0.0000
  0
ARC
  8
26
 10
89.5444
 20
79.9794
 30
0.0000
 40
0.2596
 50
180.0000
 51
270.0000
  0
LINE
  8
26
 10
89.5444
 20
79.7198
 30
0.0000
 11
89.6742
 21
79.7198
 31
0.0000
  0
LINE
  8
26
 10
88.4978
 20
80.8882
 30
0.0000
 11
88.7574
 21
79.9794
 31
0.0000
  0
LINE
  8
26
 10
88.7574
 20
79.9794
 30
0.0000
 11
88.1083
 21
79.9794
 31
0.0000
  0
LINE
  8
26
 10
88.3030
 20
80.2391
 30
0.0000
 11
88.3030
 21
79.7198
 31
0.0000
  0
CIRCLE
  8
22
 10
85.2750
 20
79.2690
 30
0.0000
 40
0.1000
  0
INSERT
  8
17
  2
SQUAREP
 10
85.2750
 20
69.4690
 30
0.0000
 41
1.8000
 42
1.8000
 43
1.0000
 50
180.0000
  0
INSERT
  8
17
  2
SQUAREP
 10
85.2750
 20
69.4690
 30
0.0000
 41
1.8000
 42
1.8000
 43
1.0000
 50
180.0000
  0
INSERT
  8
17
  2
ROUNDP
 10
81.7750
 20
69.4690
 30
0.0000
 41
1.8000
 42
1.8000
 43
1.0000
 50
180.0000
  0
INSERT
  8
17
  2
ROUNDP
 10
81.7750
 20
69.4690
 30
0.0000
 41
1.8000
 42
1.8000
 43
1.0000
 50
180.0000
  0
INSERT
  8
17
  2
ROUNDP
 10
78.2750
 20
69.4690
 30
0.0000
 41
1.8000
 42
1.8000
 43
1.0000
 50
180.0000
  0
INSERT
  8
17
  2
ROUNDP
 10
78.2750
 20
69.4690
 30
0.0000
 41
1.8000
 42
1.8000
 43
1.0000
 50
180.0000
  0
INSERT
  8
17
  2
ROUNDP
 10
74.7750
 20
69.4690
 30
0.0000
 41
1.8000
 42
1.8000
 43
1.0000
 50
180.0000
  0
INSERT
  8
17
  2
ROUNDP
 10
74.7750
 20
69.4690
 30
0.0000
 41
1.8000
 42
1.8000
 43
1.0000
 50
180.0000
  0
INSERT
  8
17
  2
ROUNDP
 10
71.2750
 20
69.4690
 30
0.0000
 41
1.8000
 42
1.8000
 43
1.0000
 50
180.0000
  0
INSERT
  8
17
  2
ROUNDP
 10
71.2750
 20
69.4690
 30
0.0000
 41
1.8000
 42
1.8000
 43
1.0000
 50
180.0000
  0
INSERT
  8
17
  2
ROUNDP
 10
67.7750
 20
69.4690
 30
0.0000
 41
1.8000
 42
1.8000
 43
1.0000
 50
180.0000
  0
INSERT
  8
17
  2
ROUNDP
 10
67.7750
 20
69.4690
 30
0.0000
 41
1.8000
 42
1.8000
 43
1.0000
 50
180.0000
  0
INSERT
  8
17
  2
ROUNDP
 10
64.2750
 20
69.4690
 30
0.0000
 41
1.8000
 42
1.8000
 43
1.0000
 50
180.0000
  0
INSERT
  8
17
  2
ROUNDP
 10
64.2750
 20
69.4690
 30
0.0000
 41
1.8000
 42
1.8000
 43
1.0000
 50
180.0000
  0
INSERT
  8
17
  2
ROUNDP
 10
60.7750
 20
69.4690
 30
0.0000
 41
1.8000
 42
1.8000
 43
1.0000
 50
180.0000
  0
INSERT
  8
17
  2
ROUNDP
 10
60.7750
 20
69.4690
 30
0.0000
 41
1.8000
 42
1.8000
 43
1.0000
 50
180.0000
  0
LINE
  8
21
 10
90.0500
 20
8.0580
 30
0.0000
 11
90.0500
 21
-1.1420
 31
0.0000
  0
LINE
  8
21
 10
75.0500
 20
-1.1420
 30
0.0000
 11
75.0500
 21
8.0580
 31
0.0000
  0
LINE
  8
21
 10
90.0500
 20
-1.1420
 30
0.0000
 11
75.0500
 21
-1.1420
 31
0.0000
  0
LINE
  8
21
 10
75.9800
 20
8.0580
 30
0.0000
 11
75.0500
 21
8.0580
 31
0.0000
  0
LINE
  8
21
 10
90.0500
 20
8.0580
 30
0.0000
 11
89.1200
 21
8.0580
 31
0.0000
  0
LINE
  8
25
 10
91.0228
 20
-3.3928
 30
0.0000
 11
91.0228
 21
-4.3016
 31
0.0000
  0
ARC
  8
25
 10
90.7631
 20
-4.3016
 30
0.0000
 40
0.2596
 50
270.0000
 51
0.0000
  0
LINE
  8
25
 10
90.7631
 20
-4.5612
 30
0.0000
 11
90.6333
 21
-4.5612
 31
0.0000
  0
LINE
  8
25
 10
91.5501
 20
-4.5612
 30
0.0000
 11
91.9396
 21
-4.5612
 31
0.0000
  0
ARC
  8
25
 10
91.9396
 20
-4.3016
 30
0.0000
 40
0.2596
 50
270.0000
 51
0.0000
  0
LINE
  8
25
 10
92.1992
 20
-4.3016
 30
0.0000
 11
92.1992
 21
-4.1717
 31
0.0000
  0
ARC
  8
25
 10
91.9396
 20
-4.1717
 30
0.0000
 40
0.2596
 50
0.0000
 51
90.0000
  0
LINE
  8
25
 10
91.9396
 20
-3.9121
 30
0.0000
 11
91.5501
 21
-3.9121
 31
0.0000
  0
LINE
  8
25
 10
91.5501
 20
-3.9121
 30
0.0000
 11
91.5501
 21
-3.3928
 31
0.0000
  0
LINE
  8
25
 10
91.5501
 20
-3.3928
 30
0.0000
 11
92.1992
 21
-3.3928
 31
0.0000
  0
CIRCLE
  8
21
 10
87.8000
 20
-2.9420
 30
0.0000
 40
0.1000
  0
INSERT
  8
17
  2
SQUAREP
 10
87.8000
 20
6.8580
 30
0.0000
 41
1.8000
 42
1.8000
 43
1.0000
 50
180.0000
  0
INSERT
  8
17
  2
SQUAREP
 10
87.8000
 20
6.8580
 30
0.0000
 41
1.8000
 42
1.8000
 43
1.0000
 50
180.0000
  0
INSERT
  8
17
  2
ROUNDP
 10
84.3000
 20
6.8580
 30
0.0000
 41
1.8000
 42
1.8000
 43
1.0000
 50
180.0000
  0
INSERT
  8
17
  2
ROUNDP
 10
84.3000
 20
6.8580
 30
0.0000
 41
1.8000
 42
1.8000
 43
1.0000
 50
180.0000
  0
INSERT
  8
17
  2
ROUNDP
 10
80.8000
 20
6.8580
 30
0.0000
 41
1.8000
 42
1.8000
 43
1.0000
 50
180.0000
  0
INSERT
  8
17
  2
ROUNDP
 10
80.8000
 20
6.8580
 30
0.0000
 41
1.8000
 42
1.8000
 43
1.0000
 50
180.0000
  0
INSERT
  8
17
  2
ROUNDP
 10
77.3000
 20
6.8580
 30
0.0000
 41
1.8000
 42
1.8000
 43
1.0000
 50
180.0000
  0
INSERT
  8
17
  2
ROUNDP
 10
77.3000
 20
6.8580
 30
0.0000
 41
1.8000
 42
1.8000
 43
1.0000
 50
180.0000
  0
LINE
  8
21
 10
-1.5800
 20
16.4725
 30
0.0000
 11
-1.5800
 21
23.4725
 31
0.0000
  0
LINE
  8
21
 10
-1.5800
 20
23.4725
 30
0.0000
 11
-2.6400
 21
23.4725
 31
0.0000
  0
ARC
  8
21
 10
-2.6400
 20
24.4725
 30
0.0000
 40
1.0000
 50
180.0000
 51
270.0000
  0
LINE
  8
21
 10
-3.6400
 20
24.4725
 30
0.0000
 11
-3.6400
 21
28.4725
 31
0.0000
  0
ARC
  8
21
 10
-2.6400
 20
28.4725
 30
0.0000
 40
1.0000
 50
90.0000
 51
180.0000
  0
LINE
  8
21
 10
-2.6400
 20
29.4725
 30
0.0000
 11
-2.1600
 21
29.4725
 31
0.0000
  0
LINE
  8
21
 10
-2.1600
 20
29.4725
 30
0.0000
 11
-2.1600
 21
46.7325
 31
0.0000
  0
LINE
  8
21
 10
-2.1600
 20
46.7325
 30
0.0000
 11
-2.6400
 21
46.7325
 31
0.0000
  0
ARC
  8
21
 10
-2.6400
 20
47.7325
 30
0.0000
 40
1.0000
 50
180.0000
 51
270.0000
  0
LINE
  8
21
 10
-3.6400
 20
47.7325
 30
0.0000
 11
-3.6400
 21
51.7325
 31
0.0000
  0
ARC
  8
21
 10
-2.6400
 20
51.7325
 30
0.0000
 40
1.0000
 50
90.0000
 51
180.0000
  0
LINE
  8
21
 10
-2.6400
 20
52.7325
 30
0.0000
 11
-1.5800
 21
52.7325
 31
0.0000
  0
LINE
  8
21
 10
-1.5800
 20
52.7325
 30
0.0000
 11
-1.5800
 21
59.7325
 31
0.0000
  0
LINE
  8
21
 10
-1.5800
 20
59.7325
 30
0.0000
 11
-2.6400
 21
59.7325
 31
0.0000
  0
ARC
  8
21
 10
-2.6400
 20
60.7325
 30
0.0000
 40
1.0000
 50
180.0000
 51
270.0000
  0
LINE
  8
21
 10
-3.6400
 20
60.7325
 30
0.0000
 11
-3.6400
 21
64.4825
 31
0.0000
  0
ARC
  8
21
 10
1.8600
 20
64.4825
 30
0.0000
 40
5.5000
 50
90.0000
 51
180.0000
  0
LINE
  8
21
 10
1.8600
 20
69.9825
 30
0.0000
 11
9.8600
 21
69.9825
 31
0.0000
  0
ARC
  8
21
 10
9.8600
 20
64.4825
 30
0.0000
 40
5.5000
 50
0.0000
 51
90.0000
  0
LINE
  8
21
 10
15.3600
 20
64.4825
 30
0.0000
 11
15.3600
 21
60.7325
 31
0.0000
  0
ARC
  8
21
 10
14.3600
 20
60.7325
 30
0.0000
 40
1.0000
 50
270.0000
 51
0.0000
  0
LINE
  8
21
 10
14.3600
 20
59.7325
 30
0.0000
 11
13.3000
 21
59.7325
 31
0.0000
  0
LINE
  8
21
 10
13.3000
 20
59.7325
 30
0.0000
 11
13.3000
 21
52.7325
 31
0.0000
  0
LINE
  8
21
 10
13.3000
 20
52.7325
 30
0.0000
 11
14.3600
 21
52.7325
 31
0.0000
  0
ARC
  8
21
 10
14.3600
 20
51.7325
 30
0.0000
 40
1.0000
 50
0.0000
 51
90.0000
  0
LINE
  8
21
 10
15.3600
 20
51.7325
 30
0.0000
 11
15.3600
 21
47.7325
 31
0.0000
  0
ARC
  8
21
 10
14.3600
 20
47.7325
 30
0.0000
 40
1.0000
 50
270.0000
 51
0.0000
  0
LINE
  8
21
 10
14.3600
 20
46.7325
 30
0.0000
 11
13.1400
 21
46.7325
 31
0.0000
  0
LINE
  8
21
 10
13.1400
 20
46.7325
 30
0.0000
 11
13.1400
 21
29.4725
 31
0.0000
  0
LINE
  8
21
 10
13.1400
 20
29.4725
 30
0.0000
 11
14.3600
 21
29.4725
 31
0.0000
  0
ARC
  8
21
 10
14.3600
 20
28.4725
 30
0.0000
 40
1.0000
 50
0.0000
 51
90.0000
  0
LINE
  8
21
 10
15.3600
 20
28.4725
 30
0.0000
 11
15.3600
 21
24.4725
 31
0.0000
  0
ARC
  8
21
 10
14.3600
 20
24.4725
 30
0.0000
 40
1.0000
 50
270.0000
 51
0.0000
  0
LINE
  8
21
 10
14.3600
 20
23.4725
 30
0.0000
 11
13.3000
 21
23.4725
 31
0.0000
  0
LINE
  8
21
 10
13.3000
 20
23.4725
 30
0.0000
 11
13.3000
 21
16.4725
 31
0.0000
  0
LINE
  8
21
 10
13.3000
 20
16.4725
 30
0.0000
 11
14.3600
 21
16.4725
 31
0.0000
  0
ARC
  8
21
 10
14.3600
 20
15.4725
 30
0.0000
 40
1.0000
 50
0.0000
 51
90.0000
  0
LINE
  8
21
 10
15.3600
 20
15.4725
 30
0.0000
 11
15.3600
 21
11.7225
 31
0.0000
  0
ARC
  8
21
 10
9.8600
 20
11.7225
 30
0.0000
 40
5.5000
 50
270.0000
 51
0.0000
  0
LINE
  8
21
 10
9.8600
 20
6.2225
 30
0.0000
 11
1.8600
 21
6.2225
 31
0.0000
  0
ARC
  8
21
 10
1.8600
 20
11.7225
 30
0.0000
 40
5.5000
 50
180.0000
 51
270.0000
  0
LINE
  8
21
 10
-3.6400
 20
11.7225
 30
0.0000
 11
-3.6400
 21
15.4725
 31
0.0000
  0
ARC
  8
21
 10
-2.6400
 20
15.4725
 30
0.0000
 40
1.0000
 50
90.0000
 51
180.0000
  0
LINE
  8
21
 10
-2.6400
 20
16.4725
 30
0.0000
 11
-1.5800
 21
16.4725
 31
0.0000
  0
LINE
  8
21
 10
-2.2808
 20
57.7008
 30
0.0000
 11
-3.4492
 21
57.7008
 31
0.0000
  0
LINE
  8
21
 10
-3.4492
 20
57.7008
 30
0.0000
 11
-3.4492
 21
58.0254
 31
0.0000
  0
ARC
  8
21
 10
-3.1246
 20
58.0254
 30
0.0000
 40
0.3246
 50
0.0000
 51
180.0000
  0
LINE
  8
21
 10
-2.8001
 20
58.0254
 30
0.0000
 11
-2.8001
 21
57.7008
 31
0.0000
  0
LINE
  8
21
 10
-3.1896
 20
58.7888
 30
0.0000
 11
-3.4492
 21
59.1133
 31
0.0000
  0
LINE
  8
21
 10
-3.4492
 20
59.1133
 30
0.0000
 11
-2.2808
 21
59.1133
 31
0.0000
  0
LINE
  8
21
 10
-2.2808
 20
58.7888
 30
0.0000
 11
-2.2808
 21
59.4379
 31
0.0000
  0
LINE
  8
21
 10
13.7004
 20
45.6508
 30
0.0000
 11
13.4408
 21
45.9754
 31
0.0000
  0
LINE
  8
21
 10
13.4408
 20
45.9754
 30
0.0000
 11
14.6092
 21
45.9754
 31
0.0000
  0
LINE
  8
21
 10
14.6092
 20
45.6508
 30
0.0000
 11
14.6092
 21
46.2999
 31
0.0000
  0
ARC
  8
21
 10
14.2846
 20
30.1754
 30
0.0000
 40
0.3246
 50
90.0000
 51
270.0000
  0
ARC
  8
21
 10
14.2846
 20
30.1754
 30
0.0000
 40
0.3246
 50
270.0000
 51
90.0000
  0
ARC
  8
21
 10
13.7004
 20
30.1754
 30
0.0000
 40
0.2596
 50
90.0000
 51
270.0000
  0
ARC
  8
21
 10
13.7004
 20
30.1754
 30
0.0000
 40
0.2596
 50
270.0000
 51
90.0000
  0
LINE
  8
21
 10
-1.8908
 20
16.9508
 30
0.0000
 11
-3.0592
 21
16.9508
 31
0.0000
  0
LINE
  8
21
 10
-3.0592
 20
16.9508
 30
0.0000
 11
-3.0592
 21
17.2754
 31
0.0000
  0
ARC
  8
21
 10
-2.7346
 20
17.2754
 30
0.0000
 40
0.3246
 50
0.0000
 51
180.0000
  0
LINE
  8
21
 10
-2.4101
 20
17.2754
 30
0.0000
 11
-2.4101
 21
16.9508
 31
0.0000
  0
LINE
  8
21
 10
-3.0592
 20
18.2984
 30
0.0000
 11
-2.1504
 21
18.0388
 31
0.0000
  0
LINE
  8
21
 10
-2.1504
 20
18.0388
 30
0.0000
 11
-2.1504
 21
18.6879
 31
0.0000
  0
LINE
  8
21
 10
-2.4101
 20
18.4931
 30
0.0000
 11
-1.8908
 21
18.4931
 31
0.0000
  0
ARC
  8
21
 10
-3.3671
 20
30.1078
 30
0.0000
 40
0.2921
 50
90.0000
 51
180.0000
  0
ARC
  8
21
 10
-3.2839
 20
30.1078
 30
0.0000
 40
0.3753
 50
180.0001
 51
252.0549
  0
ARC
  8
21
 10
-3.3671
 20
30.0862
 30
0.0000
 40
0.3138
 50
43.6040
 51
89.9996
  0
LINE
  8
21
 10
-3.1399
 20
30.3025
 30
0.0000
 11
-2.4908
 21
29.7508
 31
0.0000
  0
LINE
  8
21
 10
-2.4908
 20
29.7508
 30
0.0000
 11
-2.4908
 21
30.3999
 31
0.0000
  0
LINE
  8
21
 10
-3.6592
 20
31.1534
 30
0.0000
 11
-2.7504
 21
30.8938
 31
0.0000
  0
LINE
  8
21
 10
-2.7504
 20
30.8938
 30
0.0000
 11
-2.7504
 21
31.5429
 31
0.0000
  0
LINE
  8
21
 10
-3.0101
 20
31.3482
 30
0.0000
 11
-2.4908
 21
31.3482
 31
0.0000
  0
LINE
  8
21
 10
-3.3996
 20
44.9508
 30
0.0000
 11
-3.6592
 21
45.2754
 31
0.0000
  0
LINE
  8
21
 10
-3.6592
 20
45.2754
 30
0.0000
 11
-2.4908
 21
45.2754
 31
0.0000
  0
LINE
  8
21
 10
-2.4908
 20
44.9508
 30
0.0000
 11
-2.4908
 21
45.5999
 31
0.0000
  0
LINE
  8
21
 10
-3.5294
 20
46.0938
 30
0.0000
 11
-3.6592
 21
46.0938
 31
0.0000
  0
LINE
  8
21
 10
-3.6592
 20
46.0938
 30
0.0000
 11
-3.6592
 21
46.7429
 31
0.0000
  0
LINE
  8
21
 10
-3.6592
 20
46.7429
 30
0.0000
 11
-2.4908
 21
46.4184
 31
0.0000
  0
LINE
  8
25
 10
-3.6592
 20
35.3508
 30
0.0000
 11
-2.8154
 21
35.3508
 31
0.0000
  0
ARC
  8
25
 10
-2.8154
 20
35.6754
 30
0.0000
 40
0.3246
 50
270.0000
 51
90.0000
  0
LINE
  8
25
 10
-2.8154
 20
35.9999
 30
0.0000
 11
-3.6592
 21
35.9999
 31
0.0000
  0
LINE
  8
25
 10
-2.4908
 20
36.7803
 30
0.0000
 11
-3.6592
 21
36.7803
 31
0.0000
  0
LINE
  8
25
 10
-3.0750
 20
36.7803
 30
0.0000
 11
-3.1724
 21
36.6180
 31
0.0000
  0
ARC
  8
25
 10
-3.3386
 20
36.7177
 30
0.0000
 40
0.1939
 50
190.3542
 51
329.0364
  0
ARC
  8
25
 10
-3.0235
 20
36.7753
 30
0.0000
 40
0.5143
 50
149.0369
 51
190.3540
  0
LINE
  8
25
 10
-3.0750
 20
36.7803
 30
0.0000
 11
-2.9776
 21
36.9425
 31
0.0000
  0
ARC
  8
25
 10
-2.8114
 20
36.8428
 30
0.0000
 40
0.1939
 50
10.3541
 51
149.0358
  0
ARC
  8
25
 10
-3.1265
 20
36.7852
 30
0.0000
 40
0.5143
 50
329.0366
 51
10.3541
  0
LINE
  8
25
 10
-3.3996
 20
37.5225
 30
0.0000
 11
-3.6592
 21
37.8471
 31
0.0000
  0
LINE
  8
25
 10
-3.6592
 20
37.8471
 30
0.0000
 11
-2.4908
 21
37.8471
 31
0.0000
  0
LINE
  8
25
 10
-2.4908
 20
37.5225
 30
0.0000
 11
-2.4908
 21
38.1716
 31
0.0000
  0
INSERT
  8
17
  2
ROUNDP
 10
9.0000
 20
46.9900
 30
0.0000
 41
1.6764
 42
1.6764
 43
1.0000
 50
90.0000
  0
INSERT
  8
17
  2
ROUNDP
 10
9.0000
 20
46.9900
 30
0.0000
 41
1.6764
 42
1.6764
 43
1.0000
 50
90.0000
  0
INSERT
  8
17
  2
ROUNDP
 10
9.0000
 20
44.4500
 30
0.0000
 41
1.6764
 42
1.6764
 43
1.0000
 50
90.0000
  0
INSERT
  8
17
  2
ROUNDP
 10
9.0000
 20
44.4500
 30
0.0000
 41
1.6764
 42
1.6764
 43
1.0000
 50
90.0000
  0
INSERT
  8
17
  2
ROUNDP
 10
9.0000
 20
41.9100
 30
0.0000
 41
1.6764
 42
1.6764
 43
1.0000
 50
90.0000
  0
INSERT
  8
17
  2
ROUNDP
 10
9.0000
 20
41.9100
 30
0.0000
 41
1.6764
 42
1.6764
 43
1.0000
 50
90.0000
  0
INSERT
  8
17
  2
ROUNDP
 10
9.0000
 20
39.3700
 30
0.0000
 41
1.6764
 42
1.6764
 43
1.0000
 50
90.0000
  0
INSERT
  8
17
  2
ROUNDP
 10
9.0000
 20
39.3700
 30
0.0000
 41
1.6764
 42
1.6764
 43
1.0000
 50
90.0000
  0
INSERT
  8
17
  2
ROUNDP
 10
9.0000
 20
36.8300
 30
0.0000
 41
1.6764
 42
1.6764
 43
1.0000
 50
90.0000
  0
INSERT
  8
17
  2
ROUNDP
 10
9.0000
 20
36.8300
 30
0.0000
 41
1.6764
 42
1.6764
 43
1.0000
 50
90.0000
  0
INSERT
  8
17
  2
ROUNDP
 10
9.0000
 20
34.2900
 30
0.0000
 41
1.6764
 42
1.6764
 43
1.0000
 50
90.0000
  0
INSERT
  8
17
  2
ROUNDP
 10
9.0000
 20
34.2900
 30
0.0000
 41
1.6764
 42
1.6764
 43
1.0000
 50
90.0000
  0
INSERT
  8
17
  2
ROUNDP
 10
9.0000
 20
31.7500
 30
0.0000
 41
1.6764
 42
1.6764
 43
1.0000
 50
90.0000
  0
INSERT
  8
17
  2
ROUNDP
 10
9.0000
 20
31.7500
 30
0.0000
 41
1.6764
 42
1.6764
 43
1.0000
 50
90.0000
  0
INSERT
  8
17
  2
ROUNDP
 10
9.0000
 20
29.2100
 30
0.0000
 41
1.6764
 42
1.6764
 43
1.0000
 50
90.0000
  0
INSERT
  8
17
  2
ROUNDP
 10
9.0000
 20
29.2100
 30
0.0000
 41
1.6764
 42
1.6764
 43
1.0000
 50
90.0000
  0
INSERT
  8
17
  2
ROUNDP
 10
6.4600
 20
46.9900
 30
0.0000
 41
1.6764
 42
1.6764
 43
1.0000
 50
90.0000
  0
INSERT
  8
17
  2
ROUNDP
 10
6.4600
 20
46.9900
 30
0.0000
 41
1.6764
 42
1.6764
 43
1.0000
 50
90.0000
  0
INSERT
  8
17
  2
ROUNDP
 10
6.4600
 20
44.4500
 30
0.0000
 41
1.6764
 42
1.6764
 43
1.0000
 50
90.0000
  0
INSERT
  8
17
  2
ROUNDP
 10
6.4600
 20
44.4500
 30
0.0000
 41
1.6764
 42
1.6764
 43
1.0000
 50
90.0000
  0
INSERT
  8
17
  2
ROUNDP
 10
6.4600
 20
41.9100
 30
0.0000
 41
1.6764
 42
1.6764
 43
1.0000
 50
90.0000
  0
INSERT
  8
17
  2
ROUNDP
 10
6.4600
 20
41.9100
 30
0.0000
 41
1.6764
 42
1.6764
 43
1.0000
 50
90.0000
  0
INSERT
  8
17
  2
ROUNDP
 10
6.4600
 20
39.3700
 30
0.0000
 41
1.6764
 42
1.6764
 43
1.0000
 50
90.0000
  0
INSERT
  8
17
  2
ROUNDP
 10
6.4600
 20
39.3700
 30
0.0000
 41
1.6764
 42
1.6764
 43
1.0000
 50
90.0000
  0
INSERT
  8
17
  2
ROUNDP
 10
6.4600
 20
36.8300
 30
0.0000
 41
1.6764
 42
1.6764
 43
1.0000
 50
90.0000
  0
INSERT
  8
17
  2
ROUNDP
 10
6.4600
 20
36.8300
 30
0.0000
 41
1.6764
 42
1.6764
 43
1.0000
 50
90.0000
  0
INSERT
  8
17
  2
ROUNDP
 10
6.4600
 20
34.2900
 30
0.0000
 41
1.6764
 42
1.6764
 43
1.0000
 50
90.0000
  0
INSERT
  8
17
  2
ROUNDP
 10
6.4600
 20
34.2900
 30
0.0000
 41
1.6764
 42
1.6764
 43
1.0000
 50
90.0000
  0
INSERT
  8
17
  2
ROUNDP
 10
6.4600
 20
31.7500
 30
0.0000
 41
1.6764
 42
1.6764
 43
1.0000
 50
90.0000
  0
INSERT
  8
17
  2
ROUNDP
 10
6.4600
 20
31.7500
 30
0.0000
 41
1.6764
 42
1.6764
 43
1.0000
 50
90.0000
  0
INSERT
  8
17
  2
ROUNDP
 10
6.4600
 20
29.2100
 30
0.0000
 41
1.6764
 42
1.6764
 43
1.0000
 50
90.0000
  0
INSERT
  8
17
  2
ROUNDP
 10
6.4600
 20
29.2100
 30
0.0000
 41
1.6764
 42
1.6764
 43
1.0000
 50
90.0000
  0
INSERT
  8
17
  2
ROUNDP
 10
3.9200
 20
46.9900
 30
0.0000
 41
1.6764
 42
1.6764
 43
1.0000
 50
90.0000
  0
INSERT
  8
17
  2
ROUNDP
 10
3.9200
 20
46.9900
 30
0.0000
 41
1.6764
 42
1.6764
 43
1.0000
 50
90.0000
  0
INSERT
  8
17
  2
ROUNDP
 10
3.9200
 20
44.4500
 30
0.0000
 41
1.6764
 42
1.6764
 43
1.0000
 50
90.0000
  0
INSERT
  8
17
  2
ROUNDP
 10
3.9200
 20
44.4500
 30
0.0000
 41
1.6764
 42
1.6764
 43
1.0000
 50
90.0000
  0
INSERT
  8
17
  2
ROUNDP
 10
3.9200
 20
41.9100
 30
0.0000
 41
1.6764
 42
1.6764
 43
1.0000
 50
90.0000
  0
INSERT
  8
17
  2
ROUNDP
 10
3.9200
 20
41.9100
 30
0.0000
 41
1.6764
 42
1.6764
 43
1.0000
 50
90.0000
  0
INSERT
  8
17
  2
ROUNDP
 10
3.9200
 20
39.3700
 30
0.0000
 41
1.6764
 42
1.6764
 43
1.0000
 50
90.0000
  0
INSERT
  8
17
  2
ROUNDP
 10
3.9200
 20
39.3700
 30
0.0000
 41
1.6764
 42
1.6764
 43
1.0000
 50
90.0000
  0
INSERT
  8
17
  2
ROUNDP
 10
3.9200
 20
36.8300
 30
0.0000
 41
1.6764
 42
1.6764
 43
1.0000
 50
90.0000
  0
INSERT
  8
17
  2
ROUNDP
 10
3.9200
 20
36.8300
 30
0.0000
 41
1.6764
 42
1.6764
 43
1.0000
 50
90.0000
  0
INSERT
  8
17
  2
ROUNDP
 10
3.9200
 20
34.2900
 30
0.0000
 41
1.6764
 42
1.6764
 43
1.0000
 50
90.0000
  0
INSERT
  8
17
  2
ROUNDP
 10
3.9200
 20
34.2900
 30
0.0000
 41
1.6764
 42
1.6764
 43
1.0000
 50
90.0000
  0
INSERT
  8
17
  2
ROUNDP
 10
3.9200
 20
31.7500
 30
0.0000
 41
1.6764
 42
1.6764
 43
1.0000
 50
90.0000
  0
INSERT
  8
17
  2
ROUNDP
 10
3.9200
 20
31.7500
 30
0.0000
 41
1.6764
 42
1.6764
 43
1.0000
 50
90.0000
  0
INSERT
  8
17
  2
ROUNDP
 10
3.9200
 20
29.2100
 30
0.0000
 41
1.6764
 42
1.6764
 43
1.0000
 50
90.0000
  0
INSERT
  8
17
  2
ROUNDP
 10
3.9200
 20
29.2100
 30
0.0000
 41
1.6764
 42
1.6764
 43
1.0000
 50
90.0000
  0
INSERT
  8
17
  2
ROUNDP
 10
9.9100
 20
60.6600
 30
0.0000
 41
1.6764
 42
1.6764
 43
1.0000
 50
90.0000
  0
INSERT
  8
17
  2
ROUNDP
 10
9.9100
 20
60.6600
 30
0.0000
 41
1.6764
 42
1.6764
 43
1.0000
 50
90.0000
  0
INSERT
  8
17
  2
ROUNDP
 10
7.4100
 20
60.6600
 30
0.0000
 41
1.6764
 42
1.6764
 43
1.0000
 50
90.0000
  0
INSERT
  8
17
  2
ROUNDP
 10
7.4100
 20
60.6600
 30
0.0000
 41
1.6764
 42
1.6764
 43
1.0000
 50
90.0000
  0
INSERT
  8
17
  2
ROUNDP
 10
4.9100
 20
60.6600
 30
0.0000
 41
1.6764
 42
1.6764
 43
1.0000
 50
90.0000
  0
INSERT
  8
17
  2
ROUNDP
 10
4.9100
 20
60.6600
 30
0.0000
 41
1.6764
 42
1.6764
 43
1.0000
 50
90.0000
  0
INSERT
  8
17
  2
ROUNDP
 10
2.4100
 20
60.6600
 30
0.0000
 41
1.6764
 42
1.6764
 43
1.0000
 50
90.0000
  0
INSERT
  8
17
  2
ROUNDP
 10
2.4100
 20
60.6600
 30
0.0000
 41
1.6764
 42
1.6764
 43
1.0000
 50
90.0000
  0
INSERT
  8
17
  2
ROUNDP
 10
9.9100
 20
57.6600
 30
0.0000
 41
1.6764
 42
1.6764
 43
1.0000
 50
90.0000
  0
INSERT
  8
17
  2
ROUNDP
 10
9.9100
 20
57.6600
 30
0.0000
 41
1.6764
 42
1.6764
 43
1.0000
 50
90.0000
  0
INSERT
  8
17
  2
ROUNDP
 10
7.4100
 20
57.6600
 30
0.0000
 41
1.6764
 42
1.6764
 43
1.0000
 50
90.0000
  0
INSERT
  8
17
  2
ROUNDP
 10
7.4100
 20
57.6600
 30
0.0000
 41
1.6764
 42
1.6764
 43
1.0000
 50
90.0000
  0
INSERT
  8
17
  2
ROUNDP
 10
4.9100
 20
57.6600
 30
0.0000
 41
1.6764
 42
1.6764
 43
1.0000
 50
90.0000
  0
INSERT
  8
17
  2
ROUNDP
 10
4.9100
 20
57.6600
 30
0.0000
 41
1.6764
 42
1.6764
 43
1.0000
 50
90.0000
  0
INSERT
  8
17
  2
ROUNDP
 10
2.4100
 20
57.6600
 30
0.0000
 41
1.6764
 42
1.6764
 43
1.0000
 50
90.0000
  0
INSERT
  8
17
  2
ROUNDP
 10
2.4100
 20
57.6600
 30
0.0000
 41
1.6764
 42
1.6764
 43
1.0000
 50
90.0000
  0
INSERT
  8
17
  2
ROUNDP
 10
9.9100
 20
55.1600
 30
0.0000
 41
1.6764
 42
1.6764
 43
1.0000
 50
90.0000
  0
INSERT
  8
17
  2
ROUNDP
 10
9.9100
 20
55.1600
 30
0.0000
 41
1.6764
 42
1.6764
 43
1.0000
 50
90.0000
  0
INSERT
  8
17
  2
ROUNDP
 10
7.4100
 20
55.1600
 30
0.0000
 41
1.6764
 42
1.6764
 43
1.0000
 50
90.0000
  0
INSERT
  8
17
  2
ROUNDP
 10
7.4100
 20
55.1600
 30
0.0000
 41
1.6764
 42
1.6764
 43
1.0000
 50
90.0000
  0
INSERT
  8
17
  2
ROUNDP
 10
4.9100
 20
55.1600
 30
0.0000
 41
1.6764
 42
1.6764
 43
1.0000
 50
90.0000
  0
INSERT
  8
17
  2
ROUNDP
 10
4.9100
 20
55.1600
 30
0.0000
 41
1.6764
 42
1.6764
 43
1.0000
 50
90.0000
  0
INSERT
  8
17
  2
ROUNDP
 10
2.4100
 20
55.1600
 30
0.0000
 41
1.6764
 42
1.6764
 43
1.0000
 50
90.0000
  0
INSERT
  8
17
  2
ROUNDP
 10
2.4100
 20
55.1600
 30
0.0000
 41
1.6764
 42
1.6764
 43
1.0000
 50
90.0000
  0
INSERT
  8
17
  2
ROUNDP
 10
9.9100
 20
52.1600
 30
0.0000
 41
1.6764
 42
1.6764
 43
1.0000
 50
90.0000
  0
INSERT
  8
17
  2
ROUNDP
 10
9.9100
 20
52.1600
 30
0.0000
 41
1.6764
 42
1.6764
 43
1.0000
 50
90.0000
  0
INSERT
  8
17
  2
ROUNDP
 10
7.4100
 20
52.1600
 30
0.0000
 41
1.6764
 42
1.6764
 43
1.0000
 50
90.0000
  0
INSERT
  8
17
  2
ROUNDP
 10
7.4100
 20
52.1600
 30
0.0000
 41
1.6764
 42
1.6764
 43
1.0000
 50
90.0000
  0
INSERT
  8
17
  2
ROUNDP
 10
4.9100
 20
52.1600
 30
0.0000
 41
1.6764
 42
1.6764
 43
1.0000
 50
90.0000
  0
INSERT
  8
17
  2
ROUNDP
 10
4.9100
 20
52.1600
 30
0.0000
 41
1.6764
 42
1.6764
 43
1.0000
 50
90.0000
  0
INSERT
  8
17
  2
ROUNDP
 10
2.4100
 20
52.1600
 30
0.0000
 41
1.6764
 42
1.6764
 43
1.0000
 50
90.0000
  0
INSERT
  8
17
  2
ROUNDP
 10
2.4100
 20
52.1600
 30
0.0000
 41
1.6764
 42
1.6764
 43
1.0000
 50
90.0000
  0
INSERT
  8
17
  2
ROUNDP
 10
9.9100
 20
24.4000
 30
0.0000
 41
1.6764
 42
1.6764
 43
1.0000
 50
90.0000
  0
INSERT
  8
17
  2
ROUNDP
 10
9.9100
 20
24.4000
 30
0.0000
 41
1.6764
 42
1.6764
 43
1.0000
 50
90.0000
  0
INSERT
  8
17
  2
ROUNDP
 10
7.4100
 20
24.4000
 30
0.0000
 41
1.6764
 42
1.6764
 43
1.0000
 50
90.0000
  0
INSERT
  8
17
  2
ROUNDP
 10
7.4100
 20
24.4000
 30
0.0000
 41
1.6764
 42
1.6764
 43
1.0000
 50
90.0000
  0
INSERT
  8
17
  2
ROUNDP
 10
4.9100
 20
24.4000
 30
0.0000
 41
1.6764
 42
1.6764
 43
1.0000
 50
90.0000
  0
INSERT
  8
17
  2
ROUNDP
 10
4.9100
 20
24.4000
 30
0.0000
 41
1.6764
 42
1.6764
 43
1.0000
 50
90.0000
  0
INSERT
  8
17
  2
ROUNDP
 10
2.4100
 20
24.4000
 30
0.0000
 41
1.6764
 42
1.6764
 43
1.0000
 50
90.0000
  0
INSERT
  8
17
  2
ROUNDP
 10
2.4100
 20
24.4000
 30
0.0000
 41
1.6764
 42
1.6764
 43
1.0000
 50
90.0000
  0
INSERT
  8
17
  2
ROUNDP
 10
9.9100
 20
21.4000
 30
0.0000
 41
1.6764
 42
1.6764
 43
1.0000
 50
90.0000
  0
INSERT
  8
17
  2
ROUNDP
 10
9.9100
 20
21.4000
 30
0.0000
 41
1.6764
 42
1.6764
 43
1.0000
 50
90.0000
  0
INSERT
  8
17
  2
ROUNDP
 10
7.4100
 20
21.4000
 30
0.0000
 41
1.6764
 42
1.6764
 43
1.0000
 50
90.0000
  0
INSERT
  8
17
  2
ROUNDP
 10
7.4100
 20
21.4000
 30
0.0000
 41
1.6764
 42
1.6764
 43
1.0000
 50
90.0000
  0
INSERT
  8
17
  2
ROUNDP
 10
4.9100
 20
21.4000
 30
0.0000
 41
1.6764
 42
1.6764
 43
1.0000
 50
90.0000
  0
INSERT
  8
17
  2
ROUNDP
 10
4.9100
 20
21.4000
 30
0.0000
 41
1.6764
 42
1.6764
 43
1.0000
 50
90.0000
  0
INSERT
  8
17
  2
ROUNDP
 10
2.4100
 20
21.4000
 30
0.0000
 41
1.6764
 42
1.6764
 43
1.0000
 50
90.0000
  0
INSERT
  8
17
  2
ROUNDP
 10
2.4100
 20
21.4000
 30
0.0000
 41
1.6764
 42
1.6764
 43
1.0000
 50
90.0000
  0
INSERT
  8
17
  2
ROUNDP
 10
9.9100
 20
18.9000
 30
0.0000
 41
1.6764
 42
1.6764
 43
1.0000
 50
90.0000
  0
INSERT
  8
17
  2
ROUNDP
 10
9.9100
 20
18.9000
 30
0.0000
 41
1.6764
 42
1.6764
 43
1.0000
 50
90.0000
  0
INSERT
  8
17
  2
ROUNDP
 10
7.4100
 20
18.9000
 30
0.0000
 41
1.6764
 42
1.6764
 43
1.0000
 50
90.0000
  0
INSERT
  8
17
  2
ROUNDP
 10
7.4100
 20
18.9000
 30
0.0000
 41
1.6764
 42
1.6764
 43
1.0000
 50
90.0000
  0
INSERT
  8
17
  2
ROUNDP
 10
4.9100
 20
18.9000
 30
0.0000
 41
1.6764
 42
1.6764
 43
1.0000
 50
90.0000
  0
INSERT
  8
17
  2
ROUNDP
 10
4.9100
 20
18.9000
 30
0.0000
 41
1.6764
 42
1.6764
 43
1.0000
 50
90.0000
  0
INSERT
  8
17
  2
ROUNDP
 10
2.4100
 20
18.9000
 30
0.0000
 41
1.6764
 42
1.6764
 43
1.0000
 50
90.0000
  0
INSERT
  8
17
  2
ROUNDP
 10
2.4100
 20
18.9000
 30
0.0000
 41
1.6764
 42
1.6764
 43
1.0000
 50
90.0000
  0
INSERT
  8
17
  2
ROUNDP
 10
9.9100
 20
15.9000
 30
0.0000
 41
1.6764
 42
1.6764
 43
1.0000
 50
90.0000
  0
INSERT
  8
17
  2
ROUNDP
 10
9.9100
 20
15.9000
 30
0.0000
 41
1.6764
 42
1.6764
 43
1.0000
 50
90.0000
  0
INSERT
  8
17
  2
ROUNDP
 10
7.4100
 20
15.9000
 30
0.0000
 41
1.6764
 42
1.6764
 43
1.0000
 50
90.0000
  0
INSERT
  8
17
  2
ROUNDP
 10
7.4100
 20
15.9000
 30
0.0000
 41
1.6764
 42
1.6764
 43
1.0000
 50
90.0000
  0
INSERT
  8
17
  2
ROUNDP
 10
4.9100
 20
15.9000
 30
0.0000
 41
1.6764
 42
1.6764
 43
1.0000
 50
90.0000
  0
INSERT
  8
17
  2
ROUNDP
 10
4.9100
 20
15.9000
 30
0.0000
 41
1.6764
 42
1.6764
 43
1.0000
 50
90.0000
  0
INSERT
  8
17
  2
ROUNDP
 10
2.4100
 20
15.9000
 30
0.0000
 41
1.6764
 42
1.6764
 43
1.0000
 50
90.0000
  0
INSERT
  8
17
  2
ROUNDP
 10
2.4100
 20
15.9000
 30
0.0000
 41
1.6764
 42
1.6764
 43
1.0000
 50
90.0000
  0
LINE
  8
25
 10
-3.6592
 20
35.3508
 30
0.0000
 11
-2.8154
 21
35.3508
 31
0.0000
  0
ARC
  8
25
 10
-2.8154
 20
35.6754
 30
0.0000
 40
0.3246
 50
270.0000
 51
90.0000
  0
LINE
  8
25
 10
-2.8154
 20
35.9999
 30
0.0000
 11
-3.6592
 21
35.9999
 31
0.0000
  0
LINE
  8
25
 10
-2.4908
 20
36.7803
 30
0.0000
 11
-3.6592
 21
36.7803
 31
0.0000
  0
LINE
  8
25
 10
-3.0750
 20
36.7803
 30
0.0000
 11
-3.1724
 21
36.6180
 31
0.0000
  0
ARC
  8
25
 10
-3.3386
 20
36.7177
 30
0.0000
 40
0.1939
 50
190.3542
 51
329.0364
  0
ARC
  8
25
 10
-3.0235
 20
36.7753
 30
0.0000
 40
0.5143
 50
149.0369
 51
190.3540
  0
LINE
  8
25
 10
-3.0750
 20
36.7803
 30
0.0000
 11
-2.9776
 21
36.9425
 31
0.0000
  0
ARC
  8
25
 10
-2.8114
 20
36.8428
 30
0.0000
 40
0.1939
 50
10.3541
 51
149.0358
  0
ARC
  8
25
 10
-3.1265
 20
36.7852
 30
0.0000
 40
0.5143
 50
329.0366
 51
10.3541
  0
LINE
  8
25
 10
-3.3996
 20
37.5225
 30
0.0000
 11
-3.6592
 21
37.8471
 31
0.0000
  0
LINE
  8
25
 10
-3.6592
 20
37.8471
 30
0.0000
 11
-2.4908
 21
37.8471
 31
0.0000
  0
LINE
  8
25
 10
-2.4908
 20
37.5225
 30
0.0000
 11
-2.4908
 21
38.1716
 31
0.0000
  0
INSERT
  8
17
  2
ROUNDP
 10
23.3144
 20
54.6100
 30
0.0000
 41
1.5000
 42
1.5000
 43
1.0000
 50
90.0000
  0
INSERT
  8
17
  2
ROUNDP
 10
23.3144
 20
54.6100
 30
0.0000
 41
1.5000
 42
1.5000
 43
1.0000
 50
90.0000
  0
INSERT
  8
17
  2
ROUNDP
 10
25.8544
 20
54.6100
 30
0.0000
 41
1.5000
 42
1.5000
 43
1.0000
 50
90.0000
  0
INSERT
  8
17
  2
ROUNDP
 10
25.8544
 20
54.6100
 30
0.0000
 41
1.5000
 42
1.5000
 43
1.0000
 50
90.0000
  0
INSERT
  8
17
  2
ROUNDP
 10
28.3944
 20
54.6100
 30
0.0000
 41
1.5000
 42
1.5000
 43
1.0000
 50
90.0000
  0
INSERT
  8
17
  2
ROUNDP
 10
28.3944
 20
54.6100
 30
0.0000
 41
1.5000
 42
1.5000
 43
1.0000
 50
90.0000
  0
INSERT
  8
17
  2
ROUNDP
 10
30.9344
 20
54.6100
 30
0.0000
 41
1.5000
 42
1.5000
 43
1.0000
 50
90.0000
  0
INSERT
  8
17
  2
ROUNDP
 10
30.9344
 20
54.6100
 30
0.0000
 41
1.5000
 42
1.5000
 43
1.0000
 50
90.0000
  0
INSERT
  8
17
  2
ROUNDP
 10
33.4744
 20
54.6100
 30
0.0000
 41
1.5000
 42
1.5000
 43
1.0000
 50
90.0000
  0
INSERT
  8
17
  2
ROUNDP
 10
33.4744
 20
54.6100
 30
0.0000
 41
1.5000
 42
1.5000
 43
1.0000
 50
90.0000
  0
INSERT
  8
17
  2
ROUNDP
 10
36.0144
 20
54.6100
 30
0.0000
 41
1.5000
 42
1.5000
 43
1.0000
 50
90.0000
  0
INSERT
  8
17
  2
ROUNDP
 10
36.0144
 20
54.6100
 30
0.0000
 41
1.5000
 42
1.5000
 43
1.0000
 50
90.0000
  0
INSERT
  8
17
  2
ROUNDP
 10
38.5544
 20
54.6100
 30
0.0000
 41
1.5000
 42
1.5000
 43
1.0000
 50
90.0000
  0
INSERT
  8
17
  2
ROUNDP
 10
38.5544
 20
54.6100
 30
0.0000
 41
1.5000
 42
1.5000
 43
1.0000
 50
90.0000
  0
INSERT
  8
17
  2
ROUNDP
 10
41.0944
 20
54.6100
 30
0.0000
 41
1.5000
 42
1.5000
 43
1.0000
 50
90.0000
  0
INSERT
  8
17
  2
ROUNDP
 10
41.0944
 20
54.6100
 30
0.0000
 41
1.5000
 42
1.5000
 43
1.0000
 50
90.0000
  0
INSERT
  8
17
  2
ROUNDP
 10
43.6344
 20
54.6100
 30
0.0000
 41
1.5000
 42
1.5000
 43
1.0000
 50
90.0000
  0
INSERT
  8
17
  2
ROUNDP
 10
43.6344
 20
54.6100
 30
0.0000
 41
1.5000
 42
1.5000
 43
1.0000
 50
90.0000
  0
INSERT
  8
17
  2
ROUNDP
 10
46.1744
 20
54.6100
 30
0.0000
 41
1.5000
 42
1.5000
 43
1.0000
 50
90.0000
  0
INSERT
  8
17
  2
ROUNDP
 10
46.1744
 20
54.6100
 30
0.0000
 41
1.5000
 42
1.5000
 43
1.0000
 50
90.0000
  0
INSERT
  8
17
  2
ROUNDP
 10
48.7144
 20
54.6100
 30
0.0000
 41
1.5000
 42
1.5000
 43
1.0000
 50
90.0000
  0
INSERT
  8
17
  2
ROUNDP
 10
48.7144
 20
54.6100
 30
0.0000
 41
1.5000
 42
1.5000
 43
1.0000
 50
90.0000
  0
INSERT
  8
17
  2
ROUNDP
 10
51.2544
 20
54.6100
 30
0.0000
 41
1.5000
 42
1.5000
 43
1.0000
 50
90.0000
  0
INSERT
  8
17
  2
ROUNDP
 10
51.2544
 20
54.6100
 30
0.0000
 41
1.5000
 42
1.5000
 43
1.0000
 50
90.0000
  0
INSERT
  8
17
  2
ROUNDP
 10
53.7944
 20
54.6100
 30
0.0000
 41
1.5000
 42
1.5000
 43
1.0000
 50
90.0000
  0
INSERT
  8
17
  2
ROUNDP
 10
53.7944
 20
54.6100
 30
0.0000
 41
1.5000
 42
1.5000
 43
1.0000
 50
90.0000
  0
INSERT
  8
17
  2
ROUNDP
 10
23.3144
 20
57.1500
 30
0.0000
 41
1.5000
 42
1.5000
 43
1.0000
 50
90.0000
  0
INSERT
  8
17
  2
ROUNDP
 10
23.3144
 20
57.1500
 30
0.0000
 41
1.5000
 42
1.5000
 43
1.0000
 50
90.0000
  0
INSERT
  8
17
  2
ROUNDP
 10
25.8544
 20
57.1500
 30
0.0000
 41
1.5000
 42
1.5000
 43
1.0000
 50
90.0000
  0
INSERT
  8
17
  2
ROUNDP
 10
25.8544
 20
57.1500
 30
0.0000
 41
1.5000
 42
1.5000
 43
1.0000
 50
90.0000
  0
INSERT
  8
17
  2
ROUNDP
 10
28.3944
 20
57.1500
 30
0.0000
 41
1.5000
 42
1.5000
 43
1.0000
 50
90.0000
  0
INSERT
  8
17
  2
ROUNDP
 10
28.3944
 20
57.1500
 30
0.0000
 41
1.5000
 42
1.5000
 43
1.0000
 50
90.0000
  0
INSERT
  8
17
  2
ROUNDP
 10
30.9344
 20
57.1500
 30
0.0000
 41
1.5000
 42
1.5000
 43
1.0000
 50
90.0000
  0
INSERT
  8
17
  2
ROUNDP
 10
30.9344
 20
57.1500
 30
0.0000
 41
1.5000
 42
1.5000
 43
1.0000
 50
90.0000
  0
INSERT
  8
17
  2
ROUNDP
 10
33.4744
 20
57.1500
 30
0.0000
 41
1.5000
 42
1.5000
 43
1.0000
 50
90.0000
  0
INSERT
  8
17
  2
ROUNDP
 10
33.4744
 20
57.1500
 30
0.0000
 41
1.5000
 42
1.5000
 43
1.0000
 50
90.0000
  0
INSERT
  8
17
  2
ROUNDP
 10
36.0144
 20
57.1500
 30
0.0000
 41
1.5000
 42
1.5000
 43
1.0000
 50
90.0000
  0
INSERT
  8
17
  2
ROUNDP
 10
36.0144
 20
57.1500
 30
0.0000
 41
1.5000
 42
1.5000
 43
1.0000
 50
90.0000
  0
INSERT
  8
17
  2
ROUNDP
 10
38.5544
 20
57.1500
 30
0.0000
 41
1.5000
 42
1.5000
 43
1.0000
 50
90.0000
  0
INSERT
  8
17
  2
ROUNDP
 10
38.5544
 20
57.1500
 30
0.0000
 41
1.5000
 42
1.5000
 43
1.0000
 50
90.0000
  0
INSERT
  8
17
  2
ROUNDP
 10
41.0944
 20
57.1500
 30
0.0000
 41
1.5000
 42
1.5000
 43
1.0000
 50
90.0000
  0
INSERT
  8
17
  2
ROUNDP
 10
41.0944
 20
57.1500
 30
0.0000
 41
1.5000
 42
1.5000
 43
1.0000
 50
90.0000
  0
INSERT
  8
17
  2
ROUNDP
 10
43.6344
 20
57.1500
 30
0.0000
 41
1.5000
 42
1.5000
 43
1.0000
 50
90.0000
  0
INSERT
  8
17
  2
ROUNDP
 10
43.6344
 20
57.1500
 30
0.0000
 41
1.5000
 42
1.5000
 43
1.0000
 50
90.0000
  0
INSERT
  8
17
  2
ROUNDP
 10
46.1744
 20
57.1500
 30
0.0000
 41
1.5000
 42
1.5000
 43
1.0000
 50
90.0000
  0
INSERT
  8
17
  2
ROUNDP
 10
46.1744
 20
57.1500
 30
0.0000
 41
1.5000
 42
1.5000
 43
1.0000
 50
90.0000
  0
INSERT
  8
17
  2
ROUNDP
 10
48.7144
 20
57.1500
 30
0.0000
 41
1.5000
 42
1.5000
 43
1.0000
 50
90.0000
  0
INSERT
  8
17
  2
ROUNDP
 10
48.7144
 20
57.1500
 30
0.0000
 41
1.5000
 42
1.5000
 43
1.0000
 50
90.0000
  0
INSERT
  8
17
  2
ROUNDP
 10
51.2544
 20
57.1500
 30
0.0000
 41
1.5000
 42
1.5000
 43
1.0000
 50
90.0000
  0
INSERT
  8
17
  2
ROUNDP
 10
51.2544
 20
57.1500
 30
0.0000
 41
1.5000
 42
1.5000
 43
1.0000
 50
90.0000
  0
INSERT
  8
17
  2
ROUNDP
 10
53.7944
 20
57.1500
 30
0.0000
 41
1.5000
 42
1.5000
 43
1.0000
 50
90.0000
  0
INSERT
  8
17
  2
ROUNDP
 10
53.7944
 20
57.1500
 30
0.0000
 41
1.5000
 42
1.5000
 43
1.0000
 50
90.0000
  0
INSERT
  8
17
  2
ROUNDP
 10
22.0444
 20
21.5900
 30
0.0000
 41
1.5000
 42
1.5000
 43
1.0000
 50
90.0000
  0
INSERT
  8
17
  2
ROUNDP
 10
22.0444
 20
21.5900
 30
0.0000
 41
1.5000
 42
1.5000
 43
1.0000
 50
90.0000
  0
INSERT
  8
17
  2
ROUNDP
 10
52.5244
 20
24.1300
 30
0.0000
 41
1.5000
 42
1.5000
 43
1.0000
 50
90.0000
  0
INSERT
  8
17
  2
ROUNDP
 10
52.5244
 20
24.1300
 30
0.0000
 41
1.5000
 42
1.5000
 43
1.0000
 50
90.0000
  0
INSERT
  8
17
  2
ROUNDP
 10
24.5844
 20
21.5900
 30
0.0000
 41
1.5000
 42
1.5000
 43
1.0000
 50
90.0000
  0
INSERT
  8
17
  2
ROUNDP
 10
24.5844
 20
21.5900
 30
0.0000
 41
1.5000
 42
1.5000
 43
1.0000
 50
90.0000
  0
INSERT
  8
17
  2
ROUNDP
 10
55.0644
 20
24.1300
 30
0.0000
 41
1.5000
 42
1.5000
 43
1.0000
 50
90.0000
  0
INSERT
  8
17
  2
ROUNDP
 10
55.0644
 20
24.1300
 30
0.0000
 41
1.5000
 42
1.5000
 43
1.0000
 50
90.0000
  0
INSERT
  8
17
  2
ROUNDP
 10
27.1244
 20
21.5900
 30
0.0000
 41
1.5000
 42
1.5000
 43
1.0000
 50
90.0000
  0
INSERT
  8
17
  2
ROUNDP
 10
27.1244
 20
21.5900
 30
0.0000
 41
1.5000
 42
1.5000
 43
1.0000
 50
90.0000
  0
INSERT
  8
17
  2
ROUNDP
 10
29.6644
 20
21.5900
 30
0.0000
 41
1.5000
 42
1.5000
 43
1.0000
 50
90.0000
  0
INSERT
  8
17
  2
ROUNDP
 10
29.6644
 20
21.5900
 30
0.0000
 41
1.5000
 42
1.5000
 43
1.0000
 50
90.0000
  0
INSERT
  8
17
  2
ROUNDP
 10
32.2044
 20
21.5900
 30
0.0000
 41
1.5000
 42
1.5000
 43
1.0000
 50
90.0000
  0
INSERT
  8
17
  2
ROUNDP
 10
32.2044
 20
21.5900
 30
0.0000
 41
1.5000
 42
1.5000
 43
1.0000
 50
90.0000
  0
INSERT
  8
17
  2
ROUNDP
 10
34.7444
 20
21.5900
 30
0.0000
 41
1.5000
 42
1.5000
 43
1.0000
 50
90.0000
  0
INSERT
  8
17
  2
ROUNDP
 10
34.7444
 20
21.5900
 30
0.0000
 41
1.5000
 42
1.5000
 43
1.0000
 50
90.0000
  0
INSERT
  8
17
  2
ROUNDP
 10
37.2844
 20
21.5900
 30
0.0000
 41
1.5000
 42
1.5000
 43
1.0000
 50
90.0000
  0
INSERT
  8
17
  2
ROUNDP
 10
37.2844
 20
21.5900
 30
0.0000
 41
1.5000
 42
1.5000
 43
1.0000
 50
90.0000
  0
INSERT
  8
17
  2
ROUNDP
 10
39.8244
 20
21.5900
 30
0.0000
 41
1.5000
 42
1.5000
 43
1.0000
 50
90.0000
  0
INSERT
  8
17
  2
ROUNDP
 10
39.8244
 20
21.5900
 30
0.0000
 41
1.5000
 42
1.5000
 43
1.0000
 50
90.0000
  0
INSERT
  8
17
  2
ROUNDP
 10
42.3644
 20
21.5900
 30
0.0000
 41
1.5000
 42
1.5000
 43
1.0000
 50
90.0000
  0
INSERT
  8
17
  2
ROUNDP
 10
42.3644
 20
21.5900
 30
0.0000
 41
1.5000
 42
1.5000
 43
1.0000
 50
90.0000
  0
INSERT
  8
17
  2
ROUNDP
 10
44.9044
 20
21.5900
 30
0.0000
 41
1.5000
 42
1.5000
 43
1.0000
 50
90.0000
  0
INSERT
  8
17
  2
ROUNDP
 10
44.9044
 20
21.5900
 30
0.0000
 41
1.5000
 42
1.5000
 43
1.0000
 50
90.0000
  0
INSERT
  8
17
  2
ROUNDP
 10
47.4444
 20
21.5900
 30
0.0000
 41
1.5000
 42
1.5000
 43
1.0000
 50
90.0000
  0
INSERT
  8
17
  2
ROUNDP
 10
47.4444
 20
21.5900
 30
0.0000
 41
1.5000
 42
1.5000
 43
1.0000
 50
90.0000
  0
INSERT
  8
17
  2
ROUNDP
 10
49.9844
 20
21.5900
 30
0.0000
 41
1.5000
 42
1.5000
 43
1.0000
 50
90.0000
  0
INSERT
  8
17
  2
ROUNDP
 10
49.9844
 20
21.5900
 30
0.0000
 41
1.5000
 42
1.5000
 43
1.0000
 50
90.0000
  0
INSERT
  8
17
  2
ROUNDP
 10
52.5244
 20
21.5900
 30
0.0000
 41
1.5000
 42
1.5000
 43
1.0000
 50
90.0000
  0
INSERT
  8
17
  2
ROUNDP
 10
52.5244
 20
21.5900
 30
0.0000
 41
1.5000
 42
1.5000
 43
1.0000
 50
90.0000
  0
INSERT
  8
17
  2
ROUNDP
 10
55.0644
 20
21.5900
 30
0.0000
 41
1.5000
 42
1.5000
 43
1.0000
 50
90.0000
  0
INSERT
  8
17
  2
ROUNDP
 10
55.0644
 20
21.5900
 30
0.0000
 41
1.5000
 42
1.5000
 43
1.0000
 50
90.0000
  0
INSERT
  8
17
  2
ROUNDP
 10
22.0444
 20
24.1300
 30
0.0000
 41
1.5000
 42
1.5000
 43
1.0000
 50
90.0000
  0
INSERT
  8
17
  2
ROUNDP
 10
22.0444
 20
24.1300
 30
0.0000
 41
1.5000
 42
1.5000
 43
1.0000
 50
90.0000
  0
INSERT
  8
17
  2
ROUNDP
 10
24.5844
 20
24.1300
 30
0.0000
 41
1.5000
 42
1.5000
 43
1.0000
 50
90.0000
  0
INSERT
  8
17
  2
ROUNDP
 10
24.5844
 20
24.1300
 30
0.0000
 41
1.5000
 42
1.5000
 43
1.0000
 50
90.0000
  0
INSERT
  8
17
  2
ROUNDP
 10
27.1244
 20
24.1300
 30
0.0000
 41
1.5000
 42
1.5000
 43
1.0000
 50
90.0000
  0
INSERT
  8
17
  2
ROUNDP
 10
27.1244
 20
24.1300
 30
0.0000
 41
1.5000
 42
1.5000
 43
1.0000
 50
90.0000
  0
INSERT
  8
17
  2
ROUNDP
 10
29.6644
 20
24.1300
 30
0.0000
 41
1.5000
 42
1.5000
 43
1.0000
 50
90.0000
  0
INSERT
  8
17
  2
ROUNDP
 10
29.6644
 20
24.1300
 30
0.0000
 41
1.5000
 42
1.5000
 43
1.0000
 50
90.0000
  0
INSERT
  8
17
  2
ROUNDP
 10
32.2044
 20
24.1300
 30
0.0000
 41
1.5000
 42
1.5000
 43
1.0000
 50
90.0000
  0
INSERT
  8
17
  2
ROUNDP
 10
32.2044
 20
24.1300
 30
0.0000
 41
1.5000
 42
1.5000
 43
1.0000
 50
90.0000
  0
INSERT
  8
17
  2
ROUNDP
 10
34.7444
 20
24.1300
 30
0.0000
 41
1.5000
 42
1.5000
 43
1.0000
 50
90.0000
  0
INSERT
  8
17
  2
ROUNDP
 10
34.7444
 20
24.1300
 30
0.0000
 41
1.5000
 42
1.5000
 43
1.0000
 50
90.0000
  0
INSERT
  8
17
  2
ROUNDP
 10
37.2844
 20
24.1300
 30
0.0000
 41
1.5000
 42
1.5000
 43
1.0000
 50
90.0000
  0
INSERT
  8
17
  2
ROUNDP
 10
37.2844
 20
24.1300
 30
0.0000
 41
1.5000
 42
1.5000
 43
1.0000
 50
90.0000
  0
INSERT
  8
17
  2
ROUNDP
 10
39.8244
 20
24.1300
 30
0.0000
 41
1.5000
 42
1.5000
 43
1.0000
 50
90.0000
  0
INSERT
  8
17
  2
ROUNDP
 10
39.8244
 20
24.1300
 30
0.0000
 41
1.5000
 42
1.5000
 43
1.0000
 50
90.0000
  0
INSERT
  8
17
  2
ROUNDP
 10
42.3644
 20
24.1300
 30
0.0000
 41
1.5000
 42
1.5000
 43
1.0000
 50
90.0000
  0
INSERT
  8
17
  2
ROUNDP
 10
42.3644
 20
24.1300
 30
0.0000
 41
1.5000
 42
1.5000
 43
1.0000
 50
90.0000
  0
INSERT
  8
17
  2
ROUNDP
 10
44.9044
 20
24.1300
 30
0.0000
 41
1.5000
 42
1.5000
 43
1.0000
 50
90.0000
  0
INSERT
  8
17
  2
ROUNDP
 10
44.9044
 20
24.1300
 30
0.0000
 41
1.5000
 42
1.5000
 43
1.0000
 50
90.0000
  0
INSERT
  8
17
  2
ROUNDP
 10
47.4444
 20
24.1300
 30
0.0000
 41
1.5000
 42
1.5000
 43
1.0000
 50
90.0000
  0
INSERT
  8
17
  2
ROUNDP
 10
47.4444
 20
24.1300
 30
0.0000
 41
1.5000
 42
1.5000
 43
1.0000
 50
90.0000
  0
INSERT
  8
17
  2
ROUNDP
 10
49.9844
 20
24.1300
 30
0.0000
 41
1.5000
 42
1.5000
 43
1.0000
 50
90.0000
  0
INSERT
  8
17
  2
ROUNDP
 10
49.9844
 20
24.1300
 30
0.0000
 41
1.5000
 42
1.5000
 43
1.0000
 50
90.0000
  0
INSERT
  8
17
  2
ROUNDP
 10
64.7700
 20
54.6100
 30
0.0000
 41
1.5000
 42
1.5000
 43
1.0000
 50
90.0000
  0
INSERT
  8
17
  2
ROUNDP
 10
64.7700
 20
54.6100
 30
0.0000
 41
1.5000
 42
1.5000
 43
1.0000
 50
90.0000
  0
INSERT
  8
17
  2
ROUNDP
 10
67.3100
 20
54.6100
 30
0.0000
 41
1.5000
 42
1.5000
 43
1.0000
 50
90.0000
  0
INSERT
  8
17
  2
ROUNDP
 10
67.3100
 20
54.6100
 30
0.0000
 41
1.5000
 42
1.5000
 43
1.0000
 50
90.0000
  0
INSERT
  8
17
  2
ROUNDP
 10
69.8500
 20
54.6100
 30
0.0000
 41
1.5000
 42
1.5000
 43
1.0000
 50
90.0000
  0
INSERT
  8
17
  2
ROUNDP
 10
69.8500
 20
54.6100
 30
0.0000
 41
1.5000
 42
1.5000
 43
1.0000
 50
90.0000
  0
INSERT
  8
17
  2
ROUNDP
 10
72.3900
 20
54.6100
 30
0.0000
 41
1.5000
 42
1.5000
 43
1.0000
 50
90.0000
  0
INSERT
  8
17
  2
ROUNDP
 10
72.3900
 20
54.6100
 30
0.0000
 41
1.5000
 42
1.5000
 43
1.0000
 50
90.0000
  0
INSERT
  8
17
  2
ROUNDP
 10
74.9300
 20
54.6100
 30
0.0000
 41
1.5000
 42
1.5000
 43
1.0000
 50
90.0000
  0
INSERT
  8
17
  2
ROUNDP
 10
74.9300
 20
54.6100
 30
0.0000
 41
1.5000
 42
1.5000
 43
1.0000
 50
90.0000
  0
INSERT
  8
17
  2
ROUNDP
 10
77.4700
 20
54.6100
 30
0.0000
 41
1.5000
 42
1.5000
 43
1.0000
 50
90.0000
  0
INSERT
  8
17
  2
ROUNDP
 10
77.4700
 20
54.6100
 30
0.0000
 41
1.5000
 42
1.5000
 43
1.0000
 50
90.0000
  0
INSERT
  8
17
  2
ROUNDP
 10
80.0100
 20
54.6100
 30
0.0000
 41
1.5000
 42
1.5000
 43
1.0000
 50
90.0000
  0
INSERT
  8
17
  2
ROUNDP
 10
80.0100
 20
54.6100
 30
0.0000
 41
1.5000
 42
1.5000
 43
1.0000
 50
90.0000
  0
INSERT
  8
17
  2
ROUNDP
 10
82.5500
 20
54.6100
 30
0.0000
 41
1.5000
 42
1.5000
 43
1.0000
 50
90.0000
  0
INSERT
  8
17
  2
ROUNDP
 10
82.5500
 20
54.6100
 30
0.0000
 41
1.5000
 42
1.5000
 43
1.0000
 50
90.0000
  0
INSERT
  8
17
  2
ROUNDP
 10
85.0900
 20
54.6100
 30
0.0000
 41
1.5000
 42
1.5000
 43
1.0000
 50
90.0000
  0
INSERT
  8
17
  2
ROUNDP
 10
85.0900
 20
54.6100
 30
0.0000
 41
1.5000
 42
1.5000
 43
1.0000
 50
90.0000
  0
INSERT
  8
17
  2
ROUNDP
 10
87.6300
 20
54.6100
 30
0.0000
 41
1.5000
 42
1.5000
 43
1.0000
 50
90.0000
  0
INSERT
  8
17
  2
ROUNDP
 10
87.6300
 20
54.6100
 30
0.0000
 41
1.5000
 42
1.5000
 43
1.0000
 50
90.0000
  0
INSERT
  8
17
  2
ROUNDP
 10
90.1700
 20
54.6100
 30
0.0000
 41
1.5000
 42
1.5000
 43
1.0000
 50
90.0000
  0
INSERT
  8
17
  2
ROUNDP
 10
90.1700
 20
54.6100
 30
0.0000
 41
1.5000
 42
1.5000
 43
1.0000
 50
90.0000
  0
INSERT
  8
17
  2
ROUNDP
 10
92.7100
 20
54.6100
 30
0.0000
 41
1.5000
 42
1.5000
 43
1.0000
 50
90.0000
  0
INSERT
  8
17
  2
ROUNDP
 10
92.7100
 20
54.6100
 30
0.0000
 41
1.5000
 42
1.5000
 43
1.0000
 50
90.0000
  0
INSERT
  8
17
  2
ROUNDP
 10
95.2500
 20
54.6100
 30
0.0000
 41
1.5000
 42
1.5000
 43
1.0000
 50
90.0000
  0
INSERT
  8
17
  2
ROUNDP
 10
95.2500
 20
54.6100
 30
0.0000
 41
1.5000
 42
1.5000
 43
1.0000
 50
90.0000
  0
INSERT
  8
17
  2
ROUNDP
 10
64.7700
 20
57.1500
 30
0.0000
 41
1.5000
 42
1.5000
 43
1.0000
 50
90.0000
  0
INSERT
  8
17
  2
ROUNDP
 10
64.7700
 20
57.1500
 30
0.0000
 41
1.5000
 42
1.5000
 43
1.0000
 50
90.0000
  0
INSERT
  8
17
  2
ROUNDP
 10
67.3100
 20
57.1500
 30
0.0000
 41
1.5000
 42
1.5000
 43
1.0000
 50
90.0000
  0
INSERT
  8
17
  2
ROUNDP
 10
67.3100
 20
57.1500
 30
0.0000
 41
1.5000
 42
1.5000
 43
1.0000
 50
90.0000
  0
INSERT
  8
17
  2
ROUNDP
 10
69.8500
 20
57.1500
 30
0.0000
 41
1.5000
 42
1.5000
 43
1.0000
 50
90.0000
  0
INSERT
  8
17
  2
ROUNDP
 10
69.8500
 20
57.1500
 30
0.0000
 41
1.5000
 42
1.5000
 43
1.0000
 50
90.0000
  0
INSERT
  8
17
  2
ROUNDP
 10
72.3900
 20
57.1500
 30
0.0000
 41
1.5000
 42
1.5000
 43
1.0000
 50
90.0000
  0
INSERT
  8
17
  2
ROUNDP
 10
72.3900
 20
57.1500
 30
0.0000
 41
1.5000
 42
1.5000
 43
1.0000
 50
90.0000
  0
INSERT
  8
17
  2
ROUNDP
 10
74.9300
 20
57.1500
 30
0.0000
 41
1.5000
 42
1.5000
 43
1.0000
 50
90.0000
  0
INSERT
  8
17
  2
ROUNDP
 10
74.9300
 20
57.1500
 30
0.0000
 41
1.5000
 42
1.5000
 43
1.0000
 50
90.0000
  0
INSERT
  8
17
  2
ROUNDP
 10
77.4700
 20
57.1500
 30
0.0000
 41
1.5000
 42
1.5000
 43
1.0000
 50
90.0000
  0
INSERT
  8
17
  2
ROUNDP
 10
77.4700
 20
57.1500
 30
0.0000
 41
1.5000
 42
1.5000
 43
1.0000
 50
90.0000
  0
INSERT
  8
17
  2
ROUNDP
 10
80.0100
 20
57.1500
 30
0.0000
 41
1.5000
 42
1.5000
 43
1.0000
 50
90.0000
  0
INSERT
  8
17
  2
ROUNDP
 10
80.0100
 20
57.1500
 30
0.0000
 41
1.5000
 42
1.5000
 43
1.0000
 50
90.0000
  0
INSERT
  8
17
  2
ROUNDP
 10
82.5500
 20
57.1500
 30
0.0000
 41
1.5000
 42
1.5000
 43
1.0000
 50
90.0000
  0
INSERT
  8
17
  2
ROUNDP
 10
82.5500
 20
57.1500
 30
0.0000
 41
1.5000
 42
1.5000
 43
1.0000
 50
90.0000
  0
INSERT
  8
17
  2
ROUNDP
 10
85.0900
 20
57.1500
 30
0.0000
 41
1.5000
 42
1.5000
 43
1.0000
 50
90.0000
  0
INSERT
  8
17
  2
ROUNDP
 10
85.0900
 20
57.1500
 30
0.0000
 41
1.5000
 42
1.5000
 43
1.0000
 50
90.0000
  0
INSERT
  8
17
  2
ROUNDP
 10
87.6300
 20
57.1500
 30
0.0000
 41
1.5000
 42
1.5000
 43
1.0000
 50
90.0000
  0
INSERT
  8
17
  2
ROUNDP
 10
87.6300
 20
57.1500
 30
0.0000
 41
1.5000
 42
1.5000
 43
1.0000
 50
90.0000
  0
INSERT
  8
17
  2
ROUNDP
 10
90.1700
 20
57.1500
 30
0.0000
 41
1.5000
 42
1.5000
 43
1.0000
 50
90.0000
  0
INSERT
  8
17
  2
ROUNDP
 10
90.1700
 20
57.1500
 30
0.0000
 41
1.5000
 42
1.5000
 43
1.0000
 50
90.0000
  0
INSERT
  8
17
  2
ROUNDP
 10
92.7100
 20
57.1500
 30
0.0000
 41
1.5000
 42
1.5000
 43
1.0000
 50
90.0000
  0
INSERT
  8
17
  2
ROUNDP
 10
92.7100
 20
57.1500
 30
0.0000
 41
1.5000
 42
1.5000
 43
1.0000
 50
90.0000
  0
INSERT
  8
17
  2
ROUNDP
 10
95.2500
 20
57.1500
 30
0.0000
 41
1.5000
 42
1.5000
 43
1.0000
 50
90.0000
  0
INSERT
  8
17
  2
ROUNDP
 10
95.2500
 20
57.1500
 30
0.0000
 41
1.5000
 42
1.5000
 43
1.0000
 50
90.0000
  0
INSERT
  8
17
  2
ROUNDP
 10
63.5000
 20
21.5900
 30
0.0000
 41
1.5000
 42
1.5000
 43
1.0000
 50
90.0000
  0
INSERT
  8
17
  2
ROUNDP
 10
63.5000
 20
21.5900
 30
0.0000
 41
1.5000
 42
1.5000
 43
1.0000
 50
90.0000
  0
INSERT
  8
17
  2
ROUNDP
 10
93.9800
 20
24.1300
 30
0.0000
 41
1.5000
 42
1.5000
 43
1.0000
 50
90.0000
  0
INSERT
  8
17
  2
ROUNDP
 10
93.9800
 20
24.1300
 30
0.0000
 41
1.5000
 42
1.5000
 43
1.0000
 50
90.0000
  0
INSERT
  8
17
  2
ROUNDP
 10
66.0400
 20
21.5900
 30
0.0000
 41
1.5000
 42
1.5000
 43
1.0000
 50
90.0000
  0
INSERT
  8
17
  2
ROUNDP
 10
66.0400
 20
21.5900
 30
0.0000
 41
1.5000
 42
1.5000
 43
1.0000
 50
90.0000
  0
INSERT
  8
17
  2
ROUNDP
 10
96.5200
 20
24.1300
 30
0.0000
 41
1.5000
 42
1.5000
 43
1.0000
 50
90.0000
  0
INSERT
  8
17
  2
ROUNDP
 10
96.5200
 20
24.1300
 30
0.0000
 41
1.5000
 42
1.5000
 43
1.0000
 50
90.0000
  0
INSERT
  8
17
  2
ROUNDP
 10
68.5800
 20
21.5900
 30
0.0000
 41
1.5000
 42
1.5000
 43
1.0000
 50
90.0000
  0
INSERT
  8
17
  2
ROUNDP
 10
68.5800
 20
21.5900
 30
0.0000
 41
1.5000
 42
1.5000
 43
1.0000
 50
90.0000
  0
INSERT
  8
17
  2
ROUNDP
 10
71.1200
 20
21.5900
 30
0.0000
 41
1.5000
 42
1.5000
 43
1.0000
 50
90.0000
  0
INSERT
  8
17
  2
ROUNDP
 10
71.1200
 20
21.5900
 30
0.0000
 41
1.5000
 42
1.5000
 43
1.0000
 50
90.0000
  0
INSERT
  8
17
  2
ROUNDP
 10
73.6600
 20
21.5900
 30
0.0000
 41
1.5000
 42
1.5000
 43
1.0000
 50
90.0000
  0
INSERT
  8
17
  2
ROUNDP
 10
73.6600
 20
21.5900
 30
0.0000
 41
1.5000
 42
1.5000
 43
1.0000
 50
90.0000
  0
INSERT
  8
17
  2
ROUNDP
 10
76.2000
 20
21.5900
 30
0.0000
 41
1.5000
 42
1.5000
 43
1.0000
 50
90.0000
  0
INSERT
  8
17
  2
ROUNDP
 10
76.2000
 20
21.5900
 30
0.0000
 41
1.5000
 42
1.5000
 43
1.0000
 50
90.0000
  0
INSERT
  8
17
  2
ROUNDP
 10
78.7400
 20
21.5900
 30
0.0000
 41
1.5000
 42
1.5000
 43
1.0000
 50
90.0000
  0
INSERT
  8
17
  2
ROUNDP
 10
78.7400
 20
21.5900
 30
0.0000
 41
1.5000
 42
1.5000
 43
1.0000
 50
90.0000
  0
INSERT
  8
17
  2
ROUNDP
 10
81.2800
 20
21.5900
 30
0.0000
 41
1.5000
 42
1.5000
 43
1.0000
 50
90.0000
  0
INSERT
  8
17
  2
ROUNDP
 10
81.2800
 20
21.5900
 30
0.0000
 41
1.5000
 42
1.5000
 43
1.0000
 50
90.0000
  0
INSERT
  8
17
  2
ROUNDP
 10
83.8200
 20
21.5900
 30
0.0000
 41
1.5000
 42
1.5000
 43
1.0000
 50
90.0000
  0
INSERT
  8
17
  2
ROUNDP
 10
83.8200
 20
21.5900
 30
0.0000
 41
1.5000
 42
1.5000
 43
1.0000
 50
90.0000
  0
INSERT
  8
17
  2
ROUNDP
 10
86.3600
 20
21.5900
 30
0.0000
 41
1.5000
 42
1.5000
 43
1.0000
 50
90.0000
  0
INSERT
  8
17
  2
ROUNDP
 10
86.3600
 20
21.5900
 30
0.0000
 41
1.5000
 42
1.5000
 43
1.0000
 50
90.0000
  0
INSERT
  8
17
  2
ROUNDP
 10
88.9000
 20
21.5900
 30
0.0000
 41
1.5000
 42
1.5000
 43
1.0000
 50
90.0000
  0
INSERT
  8
17
  2
ROUNDP
 10
88.9000
 20
21.5900
 30
0.0000
 41
1.5000
 42
1.5000
 43
1.0000
 50
90.0000
  0
INSERT
  8
17
  2
ROUNDP
 10
91.4400
 20
21.5900
 30
0.0000
 41
1.5000
 42
1.5000
 43
1.0000
 50
90.0000
  0
INSERT
  8
17
  2
ROUNDP
 10
91.4400
 20
21.5900
 30
0.0000
 41
1.5000
 42
1.5000
 43
1.0000
 50
90.0000
  0
INSERT
  8
17
  2
ROUNDP
 10
93.9800
 20
21.5900
 30
0.0000
 41
1.5000
 42
1.5000
 43
1.0000
 50
90.0000
  0
INSERT
  8
17
  2
ROUNDP
 10
93.9800
 20
21.5900
 30
0.0000
 41
1.5000
 42
1.5000
 43
1.0000
 50
90.0000
  0
INSERT
  8
17
  2
ROUNDP
 10
96.5200
 20
21.5900
 30
0.0000
 41
1.5000
 42
1.5000
 43
1.0000
 50
90.0000
  0
INSERT
  8
17
  2
ROUNDP
 10
96.5200
 20
21.5900
 30
0.0000
 41
1.5000
 42
1.5000
 43
1.0000
 50
90.0000
  0
INSERT
  8
17
  2
ROUNDP
 10
63.5000
 20
24.1300
 30
0.0000
 41
1.5000
 42
1.5000
 43
1.0000
 50
90.0000
  0
INSERT
  8
17
  2
ROUNDP
 10
63.5000
 20
24.1300
 30
0.0000
 41
1.5000
 42
1.5000
 43
1.0000
 50
90.0000
  0
INSERT
  8
17
  2
ROUNDP
 10
66.0400
 20
24.1300
 30
0.0000
 41
1.5000
 42
1.5000
 43
1.0000
 50
90.0000
  0
INSERT
  8
17
  2
ROUNDP
 10
66.0400
 20
24.1300
 30
0.0000
 41
1.5000
 42
1.5000
 43
1.0000
 50
90.0000
  0
INSERT
  8
17
  2
ROUNDP
 10
68.5800
 20
24.1300
 30
0.0000
 41
1.5000
 42
1.5000
 43
1.0000
 50
90.0000
  0
INSERT
  8
17
  2
ROUNDP
 10
68.5800
 20
24.1300
 30
0.0000
 41
1.5000
 42
1.5000
 43
1.0000
 50
90.0000
  0
INSERT
  8
17
  2
ROUNDP
 10
71.1200
 20
24.1300
 30
0.0000
 41
1.5000
 42
1.5000
 43
1.0000
 50
90.0000
  0
INSERT
  8
17
  2
ROUNDP
 10
71.1200
 20
24.1300
 30
0.0000
 41
1.5000
 42
1.5000
 43
1.0000
 50
90.0000
  0
INSERT
  8
17
  2
ROUNDP
 10
73.6600
 20
24.1300
 30
0.0000
 41
1.5000
 42
1.5000
 43
1.0000
 50
90.0000
  0
INSERT
  8
17
  2
ROUNDP
 10
73.6600
 20
24.1300
 30
0.0000
 41
1.5000
 42
1.5000
 43
1.0000
 50
90.0000
  0
INSERT
  8
17
  2
ROUNDP
 10
76.2000
 20
24.1300
 30
0.0000
 41
1.5000
 42
1.5000
 43
1.0000
 50
90.0000
  0
INSERT
  8
17
  2
ROUNDP
 10
76.2000
 20
24.1300
 30
0.0000
 41
1.5000
 42
1.5000
 43
1.0000
 50
90.0000
  0
INSERT
  8
17
  2
ROUNDP
 10
78.7400
 20
24.1300
 30
0.0000
 41
1.5000
 42
1.5000
 43
1.0000
 50
90.0000
  0
INSERT
  8
17
  2
ROUNDP
 10
78.7400
 20
24.1300
 30
0.0000
 41
1.5000
 42
1.5000
 43
1.0000
 50
90.0000
  0
INSERT
  8
17
  2
ROUNDP
 10
81.2800
 20
24.1300
 30
0.0000
 41
1.5000
 42
1.5000
 43
1.0000
 50
90.0000
  0
INSERT
  8
17
  2
ROUNDP
 10
81.2800
 20
24.1300
 30
0.0000
 41
1.5000
 42
1.5000
 43
1.0000
 50
90.0000
  0
INSERT
  8
17
  2
ROUNDP
 10
83.8200
 20
24.1300
 30
0.0000
 41
1.5000
 42
1.5000
 43
1.0000
 50
90.0000
  0
INSERT
  8
17
  2
ROUNDP
 10
83.8200
 20
24.1300
 30
0.0000
 41
1.5000
 42
1.5000
 43
1.0000
 50
90.0000
  0
INSERT
  8
17
  2
ROUNDP
 10
86.3600
 20
24.1300
 30
0.0000
 41
1.5000
 42
1.5000
 43
1.0000
 50
90.0000
  0
INSERT
  8
17
  2
ROUNDP
 10
86.3600
 20
24.1300
 30
0.0000
 41
1.5000
 42
1.5000
 43
1.0000
 50
90.0000
  0
INSERT
  8
17
  2
ROUNDP
 10
88.9000
 20
24.1300
 30
0.0000
 41
1.5000
 42
1.5000
 43
1.0000
 50
90.0000
  0
INSERT
  8
17
  2
ROUNDP
 10
88.9000
 20
24.1300
 30
0.0000
 41
1.5000
 42
1.5000
 43
1.0000
 50
90.0000
  0
INSERT
  8
17
  2
ROUNDP
 10
91.4400
 20
24.1300
 30
0.0000
 41
1.5000
 42
1.5000
 43
1.0000
 50
90.0000
  0
INSERT
  8
17
  2
ROUNDP
 10
91.4400
 20
24.1300
 30
0.0000
 41
1.5000
 42
1.5000
 43
1.0000
 50
90.0000
  0
INSERT
  8
17
  2
ROUNDP
 10
105.8700
 20
54.6100
 30
0.0000
 41
1.5000
 42
1.5000
 43
1.0000
 50
90.0000
  0
INSERT
  8
17
  2
ROUNDP
 10
105.8700
 20
54.6100
 30
0.0000
 41
1.5000
 42
1.5000
 43
1.0000
 50
90.0000
  0
INSERT
  8
17
  2
ROUNDP
 10
108.4100
 20
54.6100
 30
0.0000
 41
1.5000
 42
1.5000
 43
1.0000
 50
90.0000
  0
INSERT
  8
17
  2
ROUNDP
 10
108.4100
 20
54.6100
 30
0.0000
 41
1.5000
 42
1.5000
 43
1.0000
 50
90.0000
  0
INSERT
  8
17
  2
ROUNDP
 10
110.9500
 20
54.6100
 30
0.0000
 41
1.5000
 42
1.5000
 43
1.0000
 50
90.0000
  0
INSERT
  8
17
  2
ROUNDP
 10
110.9500
 20
54.6100
 30
0.0000
 41
1.5000
 42
1.5000
 43
1.0000
 50
90.0000
  0
INSERT
  8
17
  2
ROUNDP
 10
113.4900
 20
54.6100
 30
0.0000
 41
1.5000
 42
1.5000
 43
1.0000
 50
90.0000
  0
INSERT
  8
17
  2
ROUNDP
 10
113.4900
 20
54.6100
 30
0.0000
 41
1.5000
 42
1.5000
 43
1.0000
 50
90.0000
  0
INSERT
  8
17
  2
ROUNDP
 10
116.0300
 20
54.6100
 30
0.0000
 41
1.5000
 42
1.5000
 43
1.0000
 50
90.0000
  0
INSERT
  8
17
  2
ROUNDP
 10
116.0300
 20
54.6100
 30
0.0000
 41
1.5000
 42
1.5000
 43
1.0000
 50
90.0000
  0
INSERT
  8
17
  2
ROUNDP
 10
118.5700
 20
54.6100
 30
0.0000
 41
1.5000
 42
1.5000
 43
1.0000
 50
90.0000
  0
INSERT
  8
17
  2
ROUNDP
 10
118.5700
 20
54.6100
 30
0.0000
 41
1.5000
 42
1.5000
 43
1.0000
 50
90.0000
  0
INSERT
  8
17
  2
ROUNDP
 10
121.1100
 20
54.6100
 30
0.0000
 41
1.5000
 42
1.5000
 43
1.0000
 50
90.0000
  0
INSERT
  8
17
  2
ROUNDP
 10
121.1100
 20
54.6100
 30
0.0000
 41
1.5000
 42
1.5000
 43
1.0000
 50
90.0000
  0
INSERT
  8
17
  2
ROUNDP
 10
123.6500
 20
54.6100
 30
0.0000
 41
1.5000
 42
1.5000
 43
1.0000
 50
90.0000
  0
INSERT
  8
17
  2
ROUNDP
 10
123.6500
 20
54.6100
 30
0.0000
 41
1.5000
 42
1.5000
 43
1.0000
 50
90.0000
  0
INSERT
  8
17
  2
ROUNDP
 10
126.1900
 20
54.6100
 30
0.0000
 41
1.5000
 42
1.5000
 43
1.0000
 50
90.0000
  0
INSERT
  8
17
  2
ROUNDP
 10
126.1900
 20
54.6100
 30
0.0000
 41
1.5000
 42
1.5000
 43
1.0000
 50
90.0000
  0
INSERT
  8
17
  2
ROUNDP
 10
128.7300
 20
54.6100
 30
0.0000
 41
1.5000
 42
1.5000
 43
1.0000
 50
90.0000
  0
INSERT
  8
17
  2
ROUNDP
 10
128.7300
 20
54.6100
 30
0.0000
 41
1.5000
 42
1.5000
 43
1.0000
 50
90.0000
  0
INSERT
  8
17
  2
ROUNDP
 10
131.2700
 20
54.6100
 30
0.0000
 41
1.5000
 42
1.5000
 43
1.0000
 50
90.0000
  0
INSERT
  8
17
  2
ROUNDP
 10
131.2700
 20
54.6100
 30
0.0000
 41
1.5000
 42
1.5000
 43
1.0000
 50
90.0000
  0
INSERT
  8
17
  2
ROUNDP
 10
133.8100
 20
54.6100
 30
0.0000
 41
1.5000
 42
1.5000
 43
1.0000
 50
90.0000
  0
INSERT
  8
17
  2
ROUNDP
 10
133.8100
 20
54.6100
 30
0.0000
 41
1.5000
 42
1.5000
 43
1.0000
 50
90.0000
  0
INSERT
  8
17
  2
ROUNDP
 10
136.3500
 20
54.6100
 30
0.0000
 41
1.5000
 42
1.5000
 43
1.0000
 50
90.0000
  0
INSERT
  8
17
  2
ROUNDP
 10
136.3500
 20
54.6100
 30
0.0000
 41
1.5000
 42
1.5000
 43
1.0000
 50
90.0000
  0
INSERT
  8
17
  2
ROUNDP
 10
105.8700
 20
57.1500
 30
0.0000
 41
1.5000
 42
1.5000
 43
1.0000
 50
90.0000
  0
INSERT
  8
17
  2
ROUNDP
 10
105.8700
 20
57.1500
 30
0.0000
 41
1.5000
 42
1.5000
 43
1.0000
 50
90.0000
  0
INSERT
  8
17
  2
ROUNDP
 10
108.4100
 20
57.1500
 30
0.0000
 41
1.5000
 42
1.5000
 43
1.0000
 50
90.0000
  0
INSERT
  8
17
  2
ROUNDP
 10
108.4100
 20
57.1500
 30
0.0000
 41
1.5000
 42
1.5000
 43
1.0000
 50
90.0000
  0
INSERT
  8
17
  2
ROUNDP
 10
110.9500
 20
57.1500
 30
0.0000
 41
1.5000
 42
1.5000
 43
1.0000
 50
90.0000
  0
INSERT
  8
17
  2
ROUNDP
 10
110.9500
 20
57.1500
 30
0.0000
 41
1.5000
 42
1.5000
 43
1.0000
 50
90.0000
  0
INSERT
  8
17
  2
ROUNDP
 10
113.4900
 20
57.1500
 30
0.0000
 41
1.5000
 42
1.5000
 43
1.0000
 50
90.0000
  0
INSERT
  8
17
  2
ROUNDP
 10
113.4900
 20
57.1500
 30
0.0000
 41
1.5000
 42
1.5000
 43
1.0000
 50
90.0000
  0
INSERT
  8
17
  2
ROUNDP
 10
116.0300
 20
57.1500
 30
0.0000
 41
1.5000
 42
1.5000
 43
1.0000
 50
90.0000
  0
INSERT
  8
17
  2
ROUNDP
 10
116.0300
 20
57.1500
 30
0.0000
 41
1.5000
 42
1.5000
 43
1.0000
 50
90.0000
  0
INSERT
  8
17
  2
ROUNDP
 10
118.5700
 20
57.1500
 30
0.0000
 41
1.5000
 42
1.5000
 43
1.0000
 50
90.0000
  0
INSERT
  8
17
  2
ROUNDP
 10
118.5700
 20
57.1500
 30
0.0000
 41
1.5000
 42
1.5000
 43
1.0000
 50
90.0000
  0
INSERT
  8
17
  2
ROUNDP
 10
121.1100
 20
57.1500
 30
0.0000
 41
1.5000
 42
1.5000
 43
1.0000
 50
90.0000
  0
INSERT
  8
17
  2
ROUNDP
 10
121.1100
 20
57.1500
 30
0.0000
 41
1.5000
 42
1.5000
 43
1.0000
 50
90.0000
  0
INSERT
  8
17
  2
ROUNDP
 10
123.6500
 20
57.1500
 30
0.0000
 41
1.5000
 42
1.5000
 43
1.0000
 50
90.0000
  0
INSERT
  8
17
  2
ROUNDP
 10
123.6500
 20
57.1500
 30
0.0000
 41
1.5000
 42
1.5000
 43
1.0000
 50
90.0000
  0
INSERT
  8
17
  2
ROUNDP
 10
126.1900
 20
57.1500
 30
0.0000
 41
1.5000
 42
1.5000
 43
1.0000
 50
90.0000
  0
INSERT
  8
17
  2
ROUNDP
 10
126.1900
 20
57.1500
 30
0.0000
 41
1.5000
 42
1.5000
 43
1.0000
 50
90.0000
  0
INSERT
  8
17
  2
ROUNDP
 10
128.7300
 20
57.1500
 30
0.0000
 41
1.5000
 42
1.5000
 43
1.0000
 50
90.0000
  0
INSERT
  8
17
  2
ROUNDP
 10
128.7300
 20
57.1500
 30
0.0000
 41
1.5000
 42
1.5000
 43
1.0000
 50
90.0000
  0
INSERT
  8
17
  2
ROUNDP
 10
131.2700
 20
57.1500
 30
0.0000
 41
1.5000
 42
1.5000
 43
1.0000
 50
90.0000
  0
INSERT
  8
17
  2
ROUNDP
 10
131.2700
 20
57.1500
 30
0.0000
 41
1.5000
 42
1.5000
 43
1.0000
 50
90.0000
  0
INSERT
  8
17
  2
ROUNDP
 10
133.8100
 20
57.1500
 30
0.0000
 41
1.5000
 42
1.5000
 43
1.0000
 50
90.0000
  0
INSERT
  8
17
  2
ROUNDP
 10
133.8100
 20
57.1500
 30
0.0000
 41
1.5000
 42
1.5000
 43
1.0000
 50
90.0000
  0
INSERT
  8
17
  2
ROUNDP
 10
136.3500
 20
57.1500
 30
0.0000
 41
1.5000
 42
1.5000
 43
1.0000
 50
90.0000
  0
INSERT
  8
17
  2
ROUNDP
 10
136.3500
 20
57.1500
 30
0.0000
 41
1.5000
 42
1.5000
 43
1.0000
 50
90.0000
  0
INSERT
  8
17
  2
ROUNDP
 10
104.6000
 20
21.5900
 30
0.0000
 41
1.5000
 42
1.5000
 43
1.0000
 50
90.0000
  0
INSERT
  8
17
  2
ROUNDP
 10
104.6000
 20
21.5900
 30
0.0000
 41
1.5000
 42
1.5000
 43
1.0000
 50
90.0000
  0
INSERT
  8
17
  2
ROUNDP
 10
135.0800
 20
24.1300
 30
0.0000
 41
1.5000
 42
1.5000
 43
1.0000
 50
90.0000
  0
INSERT
  8
17
  2
ROUNDP
 10
135.0800
 20
24.1300
 30
0.0000
 41
1.5000
 42
1.5000
 43
1.0000
 50
90.0000
  0
INSERT
  8
17
  2
ROUNDP
 10
107.1400
 20
21.5900
 30
0.0000
 41
1.5000
 42
1.5000
 43
1.0000
 50
90.0000
  0
INSERT
  8
17
  2
ROUNDP
 10
107.1400
 20
21.5900
 30
0.0000
 41
1.5000
 42
1.5000
 43
1.0000
 50
90.0000
  0
INSERT
  8
17
  2
ROUNDP
 10
137.6200
 20
24.1300
 30
0.0000
 41
1.5000
 42
1.5000
 43
1.0000
 50
90.0000
  0
INSERT
  8
17
  2
ROUNDP
 10
137.6200
 20
24.1300
 30
0.0000
 41
1.5000
 42
1.5000
 43
1.0000
 50
90.0000
  0
INSERT
  8
17
  2
ROUNDP
 10
109.6800
 20
21.5900
 30
0.0000
 41
1.5000
 42
1.5000
 43
1.0000
 50
90.0000
  0
INSERT
  8
17
  2
ROUNDP
 10
109.6800
 20
21.5900
 30
0.0000
 41
1.5000
 42
1.5000
 43
1.0000
 50
90.0000
  0
INSERT
  8
17
  2
ROUNDP
 10
112.2200
 20
21.5900
 30
0.0000
 41
1.5000
 42
1.5000
 43
1.0000
 50
90.0000
  0
INSERT
  8
17
  2
ROUNDP
 10
112.2200
 20
21.5900
 30
0.0000
 41
1.5000
 42
1.5000
 43
1.0000
 50
90.0000
  0
INSERT
  8
17
  2
ROUNDP
 10
114.7600
 20
21.5900
 30
0.0000
 41
1.5000
 42
1.5000
 43
1.0000
 50
90.0000
  0
INSERT
  8
17
  2
ROUNDP
 10
114.7600
 20
21.5900
 30
0.0000
 41
1.5000
 42
1.5000
 43
1.0000
 50
90.0000
  0
INSERT
  8
17
  2
ROUNDP
 10
117.3000
 20
21.5900
 30
0.0000
 41
1.5000
 42
1.5000
 43
1.0000
 50
90.0000
  0
INSERT
  8
17
  2
ROUNDP
 10
117.3000
 20
21.5900
 30
0.0000
 41
1.5000
 42
1.5000
 43
1.0000
 50
90.0000
  0
INSERT
  8
17
  2
ROUNDP
 10
119.8400
 20
21.5900
 30
0.0000
 41
1.5000
 42
1.5000
 43
1.0000
 50
90.0000
  0
INSERT
  8
17
  2
ROUNDP
 10
119.8400
 20
21.5900
 30
0.0000
 41
1.5000
 42
1.5000
 43
1.0000
 50
90.0000
  0
INSERT
  8
17
  2
ROUNDP
 10
122.3800
 20
21.5900
 30
0.0000
 41
1.5000
 42
1.5000
 43
1.0000
 50
90.0000
  0
INSERT
  8
17
  2
ROUNDP
 10
122.3800
 20
21.5900
 30
0.0000
 41
1.5000
 42
1.5000
 43
1.0000
 50
90.0000
  0
INSERT
  8
17
  2
ROUNDP
 10
124.9200
 20
21.5900
 30
0.0000
 41
1.5000
 42
1.5000
 43
1.0000
 50
90.0000
  0
INSERT
  8
17
  2
ROUNDP
 10
124.9200
 20
21.5900
 30
0.0000
 41
1.5000
 42
1.5000
 43
1.0000
 50
90.0000
  0
INSERT
  8
17
  2
ROUNDP
 10
127.4600
 20
21.5900
 30
0.0000
 41
1.5000
 42
1.5000
 43
1.0000
 50
90.0000
  0
INSERT
  8
17
  2
ROUNDP
 10
127.4600
 20
21.5900
 30
0.0000
 41
1.5000
 42
1.5000
 43
1.0000
 50
90.0000
  0
INSERT
  8
17
  2
ROUNDP
 10
130.0000
 20
21.5900
 30
0.0000
 41
1.5000
 42
1.5000
 43
1.0000
 50
90.0000
  0
INSERT
  8
17
  2
ROUNDP
 10
130.0000
 20
21.5900
 30
0.0000
 41
1.5000
 42
1.5000
 43
1.0000
 50
90.0000
  0
INSERT
  8
17
  2
ROUNDP
 10
132.5400
 20
21.5900
 30
0.0000
 41
1.5000
 42
1.5000
 43
1.0000
 50
90.0000
  0
INSERT
  8
17
  2
ROUNDP
 10
132.5400
 20
21.5900
 30
0.0000
 41
1.5000
 42
1.5000
 43
1.0000
 50
90.0000
  0
INSERT
  8
17
  2
ROUNDP
 10
135.0800
 20
21.5900
 30
0.0000
 41
1.5000
 42
1.5000
 43
1.0000
 50
90.0000
  0
INSERT
  8
17
  2
ROUNDP
 10
135.0800
 20
21.5900
 30
0.0000
 41
1.5000
 42
1.5000
 43
1.0000
 50
90.0000
  0
INSERT
  8
17
  2
ROUNDP
 10
137.6200
 20
21.5900
 30
0.0000
 41
1.5000
 42
1.5000
 43
1.0000
 50
90.0000
  0
INSERT
  8
17
  2
ROUNDP
 10
137.6200
 20
21.5900
 30
0.0000
 41
1.5000
 42
1.5000
 43
1.0000
 50
90.0000
  0
INSERT
  8
17
  2
ROUNDP
 10
104.6000
 20
24.1300
 30
0.0000
 41
1.5000
 42
1.5000
 43
1.0000
 50
90.0000
  0
INSERT
  8
17
  2
ROUNDP
 10
104.6000
 20
24.1300
 30
0.0000
 41
1.5000
 42
1.5000
 43
1.0000
 50
90.0000
  0
INSERT
  8
17
  2
ROUNDP
 10
107.1400
 20
24.1300
 30
0.0000
 41
1.5000
 42
1.5000
 43
1.0000
 50
90.0000
  0
INSERT
  8
17
  2
ROUNDP
 10
107.1400
 20
24.1300
 30
0.0000
 41
1.5000
 42
1.5000
 43
1.0000
 50
90.0000
  0
INSERT
  8
17
  2
ROUNDP
 10
109.6800
 20
24.1300
 30
0.0000
 41
1.5000
 42
1.5000
 43
1.0000
 50
90.0000
  0
INSERT
  8
17
  2
ROUNDP
 10
109.6800
 20
24.1300
 30
0.0000
 41
1.5000
 42
1.5000
 43
1.0000
 50
90.0000
  0
INSERT
  8
17
  2
ROUNDP
 10
112.2200
 20
24.1300
 30
0.0000
 41
1.5000
 42
1.5000
 43
1.0000
 50
90.0000
  0
INSERT
  8
17
  2
ROUNDP
 10
112.2200
 20
24.1300
 30
0.0000
 41
1.5000
 42
1.5000
 43
1.0000
 50
90.0000
  0
INSERT
  8
17
  2
ROUNDP
 10
114.7600
 20
24.1300
 30
0.0000
 41
1.5000
 42
1.5000
 43
1.0000
 50
90.0000
  0
INSERT
  8
17
  2
ROUNDP
 10
114.7600
 20
24.1300
 30
0.0000
 41
1.5000
 42
1.5000
 43
1.0000
 50
90.0000
  0
INSERT
  8
17
  2
ROUNDP
 10
117.3000
 20
24.1300
 30
0.0000
 41
1.5000
 42
1.5000
 43
1.0000
 50
90.0000
  0
INSERT
  8
17
  2
ROUNDP
 10
117.3000
 20
24.1300
 30
0.0000
 41
1.5000
 42
1.5000
 43
1.0000
 50
90.0000
  0
INSERT
  8
17
  2
ROUNDP
 10
119.8400
 20
24.1300
 30
0.0000
 41
1.5000
 42
1.5000
 43
1.0000
 50
90.0000
  0
INSERT
  8
17
  2
ROUNDP
 10
119.8400
 20
24.1300
 30
0.0000
 41
1.5000
 42
1.5000
 43
1.0000
 50
90.0000
  0
INSERT
  8
17
  2
ROUNDP
 10
122.3800
 20
24.1300
 30
0.0000
 41
1.5000
 42
1.5000
 43
1.0000
 50
90.0000
  0
INSERT
  8
17
  2
ROUNDP
 10
122.3800
 20
24.1300
 30
0.0000
 41
1.5000
 42
1.5000
 43
1.0000
 50
90.0000
  0
INSERT
  8
17
  2
ROUNDP
 10
124.9200
 20
24.1300
 30
0.0000
 41
1.5000
 42
1.5000
 43
1.0000
 50
90.0000
  0
INSERT
  8
17
  2
ROUNDP
 10
124.9200
 20
24.1300
 30
0.0000
 41
1.5000
 42
1.5000
 43
1.0000
 50
90.0000
  0
INSERT
  8
17
  2
ROUNDP
 10
127.4600
 20
24.1300
 30
0.0000
 41
1.5000
 42
1.5000
 43
1.0000
 50
90.0000
  0
INSERT
  8
17
  2
ROUNDP
 10
127.4600
 20
24.1300
 30
0.0000
 41
1.5000
 42
1.5000
 43
1.0000
 50
90.0000
  0
INSERT
  8
17
  2
ROUNDP
 10
130.0000
 20
24.1300
 30
0.0000
 41
1.5000
 42
1.5000
 43
1.0000
 50
90.0000
  0
INSERT
  8
17
  2
ROUNDP
 10
130.0000
 20
24.1300
 30
0.0000
 41
1.5000
 42
1.5000
 43
1.0000
 50
90.0000
  0
INSERT
  8
17
  2
ROUNDP
 10
132.5400
 20
24.1300
 30
0.0000
 41
1.5000
 42
1.5000
 43
1.0000
 50
90.0000
  0
INSERT
  8
17
  2
ROUNDP
 10
132.5400
 20
24.1300
 30
0.0000
 41
1.5000
 42
1.5000
 43
1.0000
 50
90.0000
  0
LINE
  8
21
 10
36.3300
 20
68.1870
 30
0.0000
 11
36.3300
 21
72.0870
 31
0.0000
  0
LINE
  8
21
 10
36.3300
 20
72.0870
 30
0.0000
 11
46.2300
 21
72.0870
 31
0.0000
  0
LINE
  8
21
 10
46.2300
 20
72.0870
 30
0.0000
 11
46.2300
 21
68.1870
 31
0.0000
  0
LINE
  8
21
 10
46.2300
 20
68.1870
 30
0.0000
 11
36.3300
 21
68.1870
 31
0.0000
  0
ARC
  8
25
 10
35.3131
 20
69.0584
 30
0.0000
 40
0.2088
 50
0.0000
 51
90.0000
  0
ARC
  8
25
 10
35.0807
 20
69.0584
 30
0.0000
 40
0.4412
 50
314.7611
 51
359.9999
  0
ARC
  8
25
 10
34.7909
 20
68.9801
 30
0.0000
 40
0.2088
 50
180.0000
 51
270.0000
  0
ARC
  8
25
 10
34.9737
 20
68.9801
 30
0.0000
 40
0.3916
 50
143.1292
 51
180.0000
  0
ARC
  8
25
 10
34.7909
 20
68.9833
 30
0.0000
 40
0.2121
 50
269.9997
 51
329.4903
  0
ARC
  8
25
 10
35.3131
 20
69.0551
 30
0.0000
 40
0.2121
 50
90.0001
 51
149.4899
  0
LINE
  8
25
 10
35.1303
 20
69.1628
 30
0.0000
 11
34.9737
 21
68.8756
 31
0.0000
  0
LINE
  8
25
 10
35.5219
 20
69.6595
 30
0.0000
 11
34.5821
 21
69.6595
 31
0.0000
  0
LINE
  8
25
 10
34.5821
 20
69.6595
 30
0.0000
 11
35.5219
 21
70.1816
 31
0.0000
  0
LINE
  8
25
 10
35.5219
 20
70.1816
 30
0.0000
 11
34.5821
 21
70.1816
 31
0.0000
  0
LINE
  8
25
 10
34.6865
 20
70.6044
 30
0.0000
 11
34.5821
 21
70.6044
 31
0.0000
  0
LINE
  8
25
 10
34.5821
 20
70.6044
 30
0.0000
 11
34.5821
 21
71.1265
 31
0.0000
  0
LINE
  8
25
 10
34.5821
 20
71.1265
 30
0.0000
 11
35.5219
 21
70.8654
 31
0.0000
  0
LINE
  8
25
 10
34.5821
 20
71.7276
 30
0.0000
 11
35.3131
 21
71.5188
 31
0.0000
  0
LINE
  8
25
 10
35.3131
 20
71.5188
 30
0.0000
 11
35.3131
 21
72.0409
 31
0.0000
  0
LINE
  8
25
 10
35.1042
 20
71.8842
 30
0.0000
 11
35.5219
 21
71.8842
 31
0.0000
  0
LINE
  8
25
 10
35.5219
 20
72.8483
 30
0.0000
 11
35.5219
 21
72.6394
 31
0.0000
  0
ARC
  8
25
 10
35.3131
 20
72.6394
 30
0.0000
 40
0.2088
 50
270.0000
 51
0.0000
  0
LINE
  8
25
 10
35.3131
 20
72.4306
 30
0.0000
 11
34.7909
 21
72.4306
 31
0.0000
  0
ARC
  8
25
 10
34.7909
 20
72.6394
 30
0.0000
 40
0.2089
 50
180.0017
 51
270.0000
  0
LINE
  8
25
 10
34.5821
 20
72.6394
 30
0.0000
 11
34.5821
 21
72.8483
 31
0.0000
  0
LINE
  8
25
 10
34.9998
 20
73.2388
 30
0.0000
 11
34.9998
 21
73.4998
 31
0.0000
  0
ARC
  8
25
 10
35.2608
 20
73.4998
 30
0.0000
 40
0.2611
 50
0.0000
 51
180.0000
  0
LINE
  8
25
 10
35.5219
 20
73.4998
 30
0.0000
 11
35.5219
 21
73.2388
 31
0.0000
  0
LINE
  8
25
 10
35.5219
 20
73.2388
 30
0.0000
 11
34.5821
 21
73.2388
 31
0.0000
  0
LINE
  8
25
 10
34.5821
 20
73.2388
 30
0.0000
 11
34.5821
 21
73.4998
 31
0.0000
  0
ARC
  8
25
 10
34.7909
 20
73.4998
 30
0.0000
 40
0.2088
 50
0.0000
 51
180.0000
  0
LINE
  8
25
 10
35.5219
 20
74.3097
 30
0.0000
 11
34.5821
 21
74.3097
 31
0.0000
  0
LINE
  8
25
 10
34.5821
 20
74.0486
 30
0.0000
 11
34.5821
 21
74.5707
 31
0.0000
  0
LINE
  8
25
 10
34.5821
 20
74.9343
 30
0.0000
 11
35.5219
 21
74.9343
 31
0.0000
  0
LINE
  8
25
 10
35.5219
 20
74.9343
 30
0.0000
 11
35.5219
 21
75.3520
 31
0.0000
  0
LINE
  8
25
 10
34.5821
 20
75.6423
 30
0.0000
 11
35.5219
 21
75.9556
 31
0.0000
  0
LINE
  8
25
 10
35.5219
 20
75.9556
 30
0.0000
 11
34.5821
 21
76.2688
 31
0.0000
  0
LINE
  8
25
 10
35.5219
 20
76.6089
 30
0.0000
 11
35.5219
 21
76.8700
 31
0.0000
  0
ARC
  8
25
 10
35.2608
 20
76.8700
 30
0.0000
 40
0.2611
 50
0.0000
 51
180.0000
  0
LINE
  8
25
 10
34.5821
 20
76.6089
 30
0.0000
 11
34.5821
 21
76.9222
 31
0.0000
  0
ARC
  8
25
 10
34.7909
 20
76.9222
 30
0.0000
 40
0.2088
 50
0.0000
 51
180.0000
  0
LINE
  8
25
 10
34.9998
 20
76.9222
 30
0.0000
 11
34.9998
 21
76.7133
 31
0.0000
  0
ARC
  8
25
 10
34.8171
 20
77.8105
 30
0.0000
 40
0.2350
 50
90.0000
 51
180.0000
  0
ARC
  8
25
 10
34.8839
 20
77.8105
 30
0.0000
 40
0.3018
 50
180.0002
 51
252.0556
  0
ARC
  8
25
 10
34.8171
 20
77.7931
 30
0.0000
 40
0.2524
 50
43.6037
 51
90.0001
  0
LINE
  8
25
 10
34.9998
 20
77.9671
 30
0.0000
 11
35.5219
 21
77.5233
 31
0.0000
  0
LINE
  8
25
 10
35.5219
 20
77.5233
 30
0.0000
 11
35.5219
 21
78.0454
 31
0.0000
  0
LINE
  8
25
 10
35.5219
 20
78.4377
 30
0.0000
 11
35.5219
 21
78.7510
 31
0.0000
  0
ARC
  8
25
 10
35.3131
 20
78.7510
 30
0.0000
 40
0.2088
 50
0.0000
 51
90.0000
  0
LINE
  8
25
 10
35.3131
 20
78.9598
 30
0.0000
 11
35.2086
 21
78.9598
 31
0.0000
  0
ARC
  8
25
 10
35.2086
 20
78.7510
 30
0.0000
 40
0.2088
 50
90.0000
 51
180.0000
  0
LINE
  8
25
 10
34.9998
 20
78.7510
 30
0.0000
 11
34.9998
 21
78.4377
 31
0.0000
  0
LINE
  8
25
 10
34.9998
 20
78.4377
 30
0.0000
 11
34.5821
 21
78.4377
 31
0.0000
  0
LINE
  8
25
 10
34.5821
 20
78.4377
 30
0.0000
 11
34.5821
 21
78.9598
 31
0.0000
  0
LINE
  8
25
 10
34.6865
 20
79.3521
 30
0.0000
 11
34.5821
 21
79.3521
 31
0.0000
  0
LINE
  8
25
 10
34.5821
 20
79.3521
 30
0.0000
 11
34.5821
 21
79.8742
 31
0.0000
  0
LINE
  8
25
 10
34.5821
 20
79.8742
 30
0.0000
 11
35.5219
 21
79.6132
 31
0.0000
  0
LINE
  8
25
 10
35.5219
 20
80.3101
 30
0.0000
 11
34.5821
 21
80.3101
 31
0.0000
  0
LINE
  8
25
 10
34.5821
 20
80.3101
 30
0.0000
 11
34.5821
 21
80.5712
 31
0.0000
  0
ARC
  8
25
 10
34.8432
 20
80.5712
 30
0.0000
 40
0.2611
 50
0.0000
 51
180.0000
  0
LINE
  8
25
 10
35.1042
 20
80.5712
 30
0.0000
 11
35.1042
 21
80.3101
 31
0.0000
  0
LINE
  8
25
 10
34.5821
 20
81.1462
 30
0.0000
 11
35.5219
 21
81.3550
 31
0.0000
  0
LINE
  8
25
 10
35.5219
 20
81.3550
 30
0.0000
 11
34.8954
 21
81.5639
 31
0.0000
  0
LINE
  8
25
 10
34.8954
 20
81.5639
 30
0.0000
 11
35.5219
 21
81.7727
 31
0.0000
  0
LINE
  8
25
 10
35.5219
 20
81.7727
 30
0.0000
 11
34.5821
 21
81.9816
 31
0.0000
  0
LINE
  8
25
 10
35.5219
 20
82.3753
 30
0.0000
 11
34.5821
 21
82.3753
 31
0.0000
  0
LINE
  8
25
 10
34.5821
 20
82.3753
 30
0.0000
 11
34.5821
 21
82.6364
 31
0.0000
  0
ARC
  8
25
 10
34.8432
 20
82.6364
 30
0.0000
 40
0.2611
 50
0.0000
 51
180.0000
  0
LINE
  8
25
 10
35.1042
 20
82.6364
 30
0.0000
 11
35.1042
 21
82.3753
 31
0.0000
  0
LINE
  8
25
 10
35.5219
 20
82.8974
 30
0.0000
 11
35.1042
 21
82.6886
 31
0.0000
  0
LINE
  8
25
 10
47.2821
 20
68.7451
 30
0.0000
 11
47.9608
 21
68.7451
 31
0.0000
  0
ARC
  8
25
 10
47.9608
 20
69.0062
 30
0.0000
 40
0.2611
 50
270.0000
 51
90.0000
  0
LINE
  8
25
 10
47.9608
 20
69.2672
 30
0.0000
 11
47.2821
 21
69.2672
 31
0.0000
  0
LINE
  8
25
 10
47.4909
 20
69.6900
 30
0.0000
 11
47.2821
 21
69.9510
 31
0.0000
  0
LINE
  8
25
 10
47.2821
 20
69.9510
 30
0.0000
 11
48.2219
 21
69.9510
 31
0.0000
  0
LINE
  8
25
 10
48.2219
 20
69.6900
 30
0.0000
 11
48.2219
 21
70.2121
 31
0.0000
  0
CIRCLE
  8
21
 10
36.8300
 20
68.7070
 30
0.0000
 40
0.2300
  0
LINE
  8
21
 10
91.1940
 20
68.3140
 30
0.0000
 11
91.1940
 21
72.2140
 31
0.0000
  0
LINE
  8
21
 10
91.1940
 20
72.2140
 30
0.0000
 11
101.0940
 21
72.2140
 31
0.0000
  0
LINE
  8
21
 10
101.0940
 20
72.2140
 30
0.0000
 11
101.0940
 21
68.3140
 31
0.0000
  0
LINE
  8
21
 10
101.0940
 20
68.3140
 30
0.0000
 11
91.1940
 21
68.3140
 31
0.0000
  0
ARC
  8
25
 10
90.1771
 20
69.1854
 30
0.0000
 40
0.2088
 50
0.0000
 51
90.0000
  0
ARC
  8
25
 10
89.9447
 20
69.1854
 30
0.0000
 40
0.4412
 50
314.7611
 51
359.9999
  0
ARC
  8
25
 10
89.6549
 20
69.1071
 30
0.0000
 40
0.2088
 50
180.0000
 51
270.0000
  0
ARC
  8
25
 10
89.8377
 20
69.1071
 30
0.0000
 40
0.3916
 50
143.1292
 51
180.0000
  0
ARC
  8
25
 10
89.6549
 20
69.1103
 30
0.0000
 40
0.2121
 50
269.9997
 51
329.4903
  0
ARC
  8
25
 10
90.1771
 20
69.1821
 30
0.0000
 40
0.2121
 50
90.0001
 51
149.4899
  0
LINE
  8
25
 10
89.9943
 20
69.2898
 30
0.0000
 11
89.8377
 21
69.0026
 31
0.0000
  0
LINE
  8
25
 10
90.3859
 20
69.7865
 30
0.0000
 11
89.4461
 21
69.7865
 31
0.0000
  0
LINE
  8
25
 10
89.4461
 20
69.7865
 30
0.0000
 11
90.3859
 21
70.3086
 31
0.0000
  0
LINE
  8
25
 10
90.3859
 20
70.3086
 30
0.0000
 11
89.4461
 21
70.3086
 31
0.0000
  0
LINE
  8
25
 10
89.5505
 20
70.7314
 30
0.0000
 11
89.4461
 21
70.7314
 31
0.0000
  0
LINE
  8
25
 10
89.4461
 20
70.7314
 30
0.0000
 11
89.4461
 21
71.2535
 31
0.0000
  0
LINE
  8
25
 10
89.4461
 20
71.2535
 30
0.0000
 11
90.3859
 21
70.9924
 31
0.0000
  0
LINE
  8
25
 10
89.4461
 20
71.8546
 30
0.0000
 11
90.1771
 21
71.6458
 31
0.0000
  0
LINE
  8
25
 10
90.1771
 20
71.6458
 30
0.0000
 11
90.1771
 21
72.1679
 31
0.0000
  0
LINE
  8
25
 10
89.9682
 20
72.0112
 30
0.0000
 11
90.3859
 21
72.0112
 31
0.0000
  0
LINE
  8
25
 10
90.3859
 20
72.9753
 30
0.0000
 11
90.3859
 21
72.7664
 31
0.0000
  0
ARC
  8
25
 10
90.1771
 20
72.7664
 30
0.0000
 40
0.2088
 50
270.0000
 51
0.0000
  0
LINE
  8
25
 10
90.1771
 20
72.5576
 30
0.0000
 11
89.6549
 21
72.5576
 31
0.0000
  0
ARC
  8
25
 10
89.6549
 20
72.7664
 30
0.0000
 40
0.2089
 50
180.0017
 51
270.0000
  0
LINE
  8
25
 10
89.4461
 20
72.7664
 30
0.0000
 11
89.4461
 21
72.9753
 31
0.0000
  0
LINE
  8
25
 10
89.8638
 20
73.3658
 30
0.0000
 11
89.8638
 21
73.6268
 31
0.0000
  0
ARC
  8
25
 10
90.1248
 20
73.6268
 30
0.0000
 40
0.2611
 50
0.0000
 51
180.0000
  0
LINE
  8
25
 10
90.3859
 20
73.6268
 30
0.0000
 11
90.3859
 21
73.3658
 31
0.0000
  0
LINE
  8
25
 10
90.3859
 20
73.3658
 30
0.0000
 11
89.4461
 21
73.3658
 31
0.0000
  0
LINE
  8
25
 10
89.4461
 20
73.3658
 30
0.0000
 11
89.4461
 21
73.6268
 31
0.0000
  0
ARC
  8
25
 10
89.6549
 20
73.6268
 30
0.0000
 40
0.2088
 50
0.0000
 51
180.0000
  0
LINE
  8
25
 10
90.3859
 20
74.4367
 30
0.0000
 11
89.4461
 21
74.4367
 31
0.0000
  0
LINE
  8
25
 10
89.4461
 20
74.1756
 30
0.0000
 11
89.4461
 21
74.6977
 31
0.0000
  0
LINE
  8
25
 10
89.4461
 20
75.0613
 30
0.0000
 11
90.3859
 21
75.0613
 31
0.0000
  0
LINE
  8
25
 10
90.3859
 20
75.0613
 30
0.0000
 11
90.3859
 21
75.4790
 31
0.0000
  0
LINE
  8
25
 10
89.4461
 20
75.7693
 30
0.0000
 11
90.3859
 21
76.0826
 31
0.0000
  0
LINE
  8
25
 10
90.3859
 20
76.0826
 30
0.0000
 11
89.4461
 21
76.3958
 31
0.0000
  0
LINE
  8
25
 10
90.3859
 20
76.7359
 30
0.0000
 11
90.3859
 21
76.9970
 31
0.0000
  0
ARC
  8
25
 10
90.1248
 20
76.9970
 30
0.0000
 40
0.2611
 50
0.0000
 51
180.0000
  0
LINE
  8
25
 10
89.4461
 20
76.7359
 30
0.0000
 11
89.4461
 21
77.0492
 31
0.0000
  0
ARC
  8
25
 10
89.6549
 20
77.0492
 30
0.0000
 40
0.2088
 50
0.0000
 51
180.0000
  0
LINE
  8
25
 10
89.8638
 20
77.0492
 30
0.0000
 11
89.8638
 21
76.8403
 31
0.0000
  0
ARC
  8
25
 10
89.6810
 20
77.9375
 30
0.0000
 40
0.2350
 50
90.0000
 51
180.0000
  0
ARC
  8
25
 10
89.7479
 20
77.9375
 30
0.0000
 40
0.3018
 50
180.0002
 51
252.0556
  0
ARC
  8
25
 10
89.6810
 20
77.9201
 30
0.0000
 40
0.2524
 50
43.6037
 51
90.0001
  0
LINE
  8
25
 10
89.8638
 20
78.0941
 30
0.0000
 11
90.3859
 21
77.6503
 31
0.0000
  0
LINE
  8
25
 10
90.3859
 20
77.6503
 30
0.0000
 11
90.3859
 21
78.1724
 31
0.0000
  0
LINE
  8
25
 10
90.3859
 20
78.5647
 30
0.0000
 11
90.3859
 21
78.8780
 31
0.0000
  0
ARC
  8
25
 10
90.1771
 20
78.8780
 30
0.0000
 40
0.2088
 50
0.0000
 51
90.0000
  0
LINE
  8
25
 10
90.1771
 20
79.0868
 30
0.0000
 11
90.0726
 21
79.0868
 31
0.0000
  0
ARC
  8
25
 10
90.0726
 20
78.8780
 30
0.0000
 40
0.2088
 50
90.0000
 51
180.0000
  0
LINE
  8
25
 10
89.8638
 20
78.8780
 30
0.0000
 11
89.8638
 21
78.5647
 31
0.0000
  0
LINE
  8
25
 10
89.8638
 20
78.5647
 30
0.0000
 11
89.4461
 21
78.5647
 31
0.0000
  0
LINE
  8
25
 10
89.4461
 20
78.5647
 30
0.0000
 11
89.4461
 21
79.0868
 31
0.0000
  0
LINE
  8
25
 10
89.5505
 20
79.4791
 30
0.0000
 11
89.4461
 21
79.4791
 31
0.0000
  0
LINE
  8
25
 10
89.4461
 20
79.4791
 30
0.0000
 11
89.4461
 21
80.0012
 31
0.0000
  0
LINE
  8
25
 10
89.4461
 20
80.0012
 30
0.0000
 11
90.3859
 21
79.7401
 31
0.0000
  0
LINE
  8
25
 10
90.3859
 20
80.4371
 30
0.0000
 11
89.4461
 21
80.4371
 31
0.0000
  0
LINE
  8
25
 10
89.4461
 20
80.4371
 30
0.0000
 11
89.4461
 21
80.6981
 31
0.0000
  0
ARC
  8
25
 10
89.7072
 20
80.6981
 30
0.0000
 40
0.2611
 50
0.0000
 51
180.0000
  0
LINE
  8
25
 10
89.9682
 20
80.6981
 30
0.0000
 11
89.9682
 21
80.4371
 31
0.0000
  0
LINE
  8
25
 10
89.4461
 20
81.2732
 30
0.0000
 11
90.3859
 21
81.4820
 31
0.0000
  0
LINE
  8
25
 10
90.3859
 20
81.4820
 30
0.0000
 11
89.7594
 21
81.6909
 31
0.0000
  0
LINE
  8
25
 10
89.7594
 20
81.6909
 30
0.0000
 11
90.3859
 21
81.8997
 31
0.0000
  0
LINE
  8
25
 10
90.3859
 20
81.8997
 30
0.0000
 11
89.4461
 21
82.1086
 31
0.0000
  0
LINE
  8
25
 10
90.3859
 20
82.5023
 30
0.0000
 11
89.4461
 21
82.5023
 31
0.0000
  0
LINE
  8
25
 10
89.4461
 20
82.5023
 30
0.0000
 11
89.4461
 21
82.7634
 31
0.0000
  0
ARC
  8
25
 10
89.7072
 20
82.7634
 30
0.0000
 40
0.2611
 50
0.0000
 51
180.0000
  0
LINE
  8
25
 10
89.9682
 20
82.7634
 30
0.0000
 11
89.9682
 21
82.5023
 31
0.0000
  0
LINE
  8
25
 10
90.3859
 20
83.0244
 30
0.0000
 11
89.9682
 21
82.8156
 31
0.0000
  0
LINE
  8
25
 10
102.1461
 20
68.8721
 30
0.0000
 11
102.8248
 21
68.8721
 31
0.0000
  0
ARC
  8
25
 10
102.8248
 20
69.1332
 30
0.0000
 40
0.2611
 50
270.0000
 51
90.0000
  0
LINE
  8
25
 10
102.8248
 20
69.3942
 30
0.0000
 11
102.1461
 21
69.3942
 31
0.0000
  0
ARC
  8
25
 10
102.3811
 20
70.1041
 30
0.0000
 40
0.2350
 50
90.0000
 51
180.0000
  0
ARC
  8
25
 10
102.4479
 20
70.1041
 30
0.0000
 40
0.3018
 50
180.0002
 51
252.0556
  0
ARC
  8
25
 10
102.3811
 20
70.0867
 30
0.0000
 40
0.2524
 50
43.6037
 51
90.0001
  0
LINE
  8
25
 10
102.5638
 20
70.2608
 30
0.0000
 11
103.0859
 21
69.8170
 31
0.0000
  0
LINE
  8
25
 10
103.0859
 20
69.8170
 30
0.0000
 11
103.0859
 21
70.3391
 31
0.0000
  0
CIRCLE
  8
21
 10
91.6940
 20
68.8340
 30
0.0000
 40
0.2300
  0
ENDSEC
  0
EOF
