M48
;GenerationSoftware,Autodesk,EAGLE,9.1.3*%
;CreationDate,2020-03-16T18:04:21Z*%
FMAT,2
ICI,OFF
METRIC,TZ,000.000
T5C0.350
T4C1.000
T3C1.020
T2C1.200
T1C3.302
%
G90
M71
T1
X31750Y6350
X107950Y6350
X54737Y68961
X107950Y69850
T2
X60775Y69469
X71275Y69469
X74775Y69469
X78275Y69469
X81775Y69469
X85275Y69469
X31808Y72136
X28308Y72136
X24808Y72136
X21308Y72136
X17808Y72136
X44986Y6350
X14308Y72136
X10808Y72136
X41486Y6350
X7308Y72136
X57996Y6477
X61496Y6477
X64996Y6477
X80800Y6858
X84300Y6858
X87800Y6858
X68496Y6477
X64275Y69469
X67775Y69469
X48486Y6350
X51986Y6350
X77300Y6858
T3
X9910Y21400
X7410Y21400
X4910Y21400
X9910Y18900
X7410Y18900
X4910Y18900
X2410Y18900
X9910Y15900
X7410Y15900
X4910Y15900
X2410Y21400
X2410Y15900
X3920Y29210
X7410Y52160
X4910Y52160
X2410Y52160
X9910Y24400
X7410Y24400
X4910Y24400
X9000Y46990
X9000Y44450
X9000Y41910
X9000Y39370
X9000Y36830
X9000Y34290
X9000Y31750
X9000Y29210
X6460Y46990
X6460Y44450
X6460Y41910
X6460Y39370
X6460Y36830
X6460Y34290
X6460Y31750
X6460Y29210
X3920Y46990
X3920Y44450
X3920Y41910
X3920Y39370
X3920Y36830
X3920Y34290
X3920Y31750
X2410Y24400
X9910Y60660
X7410Y60660
X4910Y60660
X2410Y60660
X9910Y57660
X7410Y57660
X4910Y57660
X2410Y57660
X9910Y55160
X7410Y55160
X4910Y55160
X2410Y55160
X9910Y52160
T4
X131270Y54610
X133810Y54610
X110950Y57150
X113490Y57150
X116030Y57150
X118570Y57150
X121110Y57150
X123650Y57150
X128730Y57150
X131270Y57150
X133810Y57150
X136350Y54610
X136350Y57150
X108410Y54610
X108410Y57150
X105870Y54610
X105870Y57150
X126190Y57150
X36014Y57150
X27124Y21590
X29664Y21590
X32204Y21590
X34744Y21590
X37284Y21590
X39824Y21590
X42364Y21590
X44904Y21590
X47444Y21590
X49984Y21590
X27124Y24130
X29664Y24130
X32204Y24130
X34744Y24130
X37284Y24130
X39824Y24130
X42364Y24130
X44904Y24130
X47444Y24130
X49984Y24130
X22044Y21590
X24584Y21590
X22044Y24130
X24584Y24130
X52524Y21590
X55064Y21590
X52524Y24130
X55064Y24130
X28394Y54610
X30934Y54610
X33474Y54610
X36014Y54610
X38554Y54610
X41094Y54610
X43634Y54610
X46174Y54610
X48714Y54610
X51254Y54610
X28394Y57150
X30934Y57150
X33474Y57150
X127460Y21590
X38554Y57150
X41094Y57150
X43634Y57150
X46174Y57150
X48714Y57150
X51254Y57150
X53794Y54610
X53794Y57150
X25854Y54610
X25854Y57150
X23314Y54610
X23314Y57150
X68580Y21590
X71120Y21590
X73660Y21590
X76200Y21590
X78740Y21590
X81280Y21590
X83820Y21590
X86360Y21590
X88900Y21590
X91440Y21590
X68580Y24130
X71120Y24130
X73660Y24130
X76200Y24130
X78740Y24130
X81280Y24130
X83820Y24130
X86360Y24130
X88900Y24130
X91440Y24130
X63500Y21590
X66040Y21590
X63500Y24130
X66040Y24130
X93980Y21590
X96520Y21590
X93980Y24130
X96520Y24130
X69850Y54610
X72390Y54610
X74930Y54610
X77470Y54610
X80010Y54610
X82550Y54610
X85090Y54610
X87630Y54610
X90170Y54610
X92710Y54610
X69850Y57150
X72390Y57150
X74930Y57150
X77470Y57150
X80010Y57150
X82550Y57150
X85090Y57150
X87630Y57150
X90170Y57150
X92710Y57150
X95250Y54610
X95250Y57150
X67310Y54610
X67310Y57150
X64770Y54610
X64770Y57150
X109680Y21590
X112220Y21590
X114760Y21590
X117300Y21590
X119840Y21590
X122380Y21590
X124920Y21590
X130000Y21590
X132540Y21590
X109680Y24130
X112220Y24130
X114760Y24130
X117300Y24130
X119840Y24130
X122380Y24130
X124920Y24130
X127460Y24130
X130000Y24130
X132540Y24130
X104600Y21590
X107140Y21590
X104600Y24130
X107140Y24130
X135080Y21590
X137620Y21590
X135080Y24130
X137620Y24130
X110950Y54610
X113490Y54610
X116030Y54610
X118570Y54610
X121110Y54610
X123650Y54610
X126190Y54610
X128730Y54610
T5
X47371Y67310
X103251Y68072
X96139Y70866
X51689Y70866
X89027Y65913
X99568Y61849
X112268Y62103
X106299Y61976
X94488Y61722
X89154Y61722
X30607Y66040
X26670Y66167
X21590Y66802
X17145Y68072
X112395Y67818
X114935Y73279
X128524Y62103
X11557Y47371
X17780Y75057
X92964Y65151
X96774Y66040
X98806Y69215
X94107Y69215
X42418Y65532
X39370Y65659
X28702Y59896
X44450Y65405
X40640Y69215
X91694Y69342
X50292Y67056
X66548Y65278
X33147Y64770
X81534Y61341
X85598Y61595
X71247Y63000
X78754Y63000
X37350Y63000
X13487Y40488
X48387Y13462
X13335Y41910
X76200Y63754
X117348Y63754
X34867Y63754
X10795Y43561
X90043Y73025
X35179Y73151
X35052Y71120
M30