G04 EAGLE Gerber X2 export*
%TF.Part,Single*%
%TF.FileFunction,Legend,Bot,1*%
%TF.FilePolarity,Positive*%
%TF.GenerationSoftware,Autodesk,EAGLE,9.1.3*%
%TF.CreationDate,2020-03-16T18:04:25Z*%
G75*
%MOMM*%
%FSLAX34Y34*%
%LPD*%
%AMOC8*
5,1,8,0,0,1.08239X$1,22.5*%
G01*
%ADD10C,0.127000*%
%ADD11C,0.101600*%
%ADD12C,0.200000*%


D10*
X355219Y709704D02*
X355219Y708632D01*
X355221Y708567D01*
X355227Y708503D01*
X355237Y708439D01*
X355250Y708375D01*
X355268Y708313D01*
X355289Y708252D01*
X355313Y708192D01*
X355342Y708134D01*
X355374Y708077D01*
X355409Y708023D01*
X355447Y707971D01*
X355489Y707921D01*
X355533Y707874D01*
X355580Y707830D01*
X355630Y707788D01*
X355682Y707750D01*
X355736Y707715D01*
X355793Y707683D01*
X355851Y707654D01*
X355911Y707630D01*
X355972Y707609D01*
X356034Y707591D01*
X356098Y707578D01*
X356162Y707568D01*
X356226Y707562D01*
X356291Y707560D01*
X356291Y707559D02*
X358973Y707559D01*
X358973Y707560D02*
X359038Y707562D01*
X359102Y707568D01*
X359166Y707578D01*
X359230Y707591D01*
X359292Y707609D01*
X359353Y707630D01*
X359413Y707654D01*
X359471Y707683D01*
X359528Y707715D01*
X359582Y707750D01*
X359634Y707788D01*
X359684Y707830D01*
X359731Y707874D01*
X359775Y707921D01*
X359817Y707971D01*
X359855Y708023D01*
X359890Y708077D01*
X359922Y708134D01*
X359951Y708192D01*
X359975Y708252D01*
X359996Y708313D01*
X360014Y708375D01*
X360027Y708439D01*
X360037Y708503D01*
X360043Y708567D01*
X360045Y708632D01*
X360045Y709704D01*
X360045Y713634D02*
X360043Y713702D01*
X360037Y713769D01*
X360028Y713836D01*
X360015Y713903D01*
X359998Y713968D01*
X359977Y714033D01*
X359953Y714096D01*
X359925Y714158D01*
X359894Y714218D01*
X359860Y714276D01*
X359822Y714332D01*
X359782Y714387D01*
X359738Y714438D01*
X359691Y714487D01*
X359642Y714534D01*
X359591Y714578D01*
X359536Y714618D01*
X359480Y714656D01*
X359422Y714690D01*
X359362Y714721D01*
X359300Y714749D01*
X359237Y714773D01*
X359172Y714794D01*
X359107Y714811D01*
X359040Y714824D01*
X358973Y714833D01*
X358906Y714839D01*
X358838Y714841D01*
X360045Y713634D02*
X360043Y713556D01*
X360037Y713478D01*
X360027Y713401D01*
X360014Y713324D01*
X359996Y713248D01*
X359975Y713173D01*
X359950Y713099D01*
X359921Y713027D01*
X359889Y712956D01*
X359853Y712887D01*
X359814Y712819D01*
X359771Y712754D01*
X359725Y712691D01*
X359676Y712630D01*
X359624Y712572D01*
X359569Y712517D01*
X359512Y712464D01*
X359452Y712415D01*
X359389Y712368D01*
X359324Y712325D01*
X359258Y712285D01*
X359189Y712248D01*
X359118Y712215D01*
X359046Y712185D01*
X358973Y712159D01*
X357900Y714439D02*
X357949Y714488D01*
X358001Y714535D01*
X358056Y714578D01*
X358113Y714619D01*
X358172Y714657D01*
X358233Y714691D01*
X358296Y714722D01*
X358360Y714750D01*
X358426Y714774D01*
X358492Y714794D01*
X358560Y714811D01*
X358629Y714824D01*
X358698Y714833D01*
X358768Y714839D01*
X358838Y714841D01*
X357900Y714439D02*
X355219Y712160D01*
X355219Y714841D01*
X903859Y716252D02*
X903859Y717324D01*
X903859Y716252D02*
X903861Y716187D01*
X903867Y716123D01*
X903877Y716059D01*
X903890Y715995D01*
X903908Y715933D01*
X903929Y715872D01*
X903953Y715812D01*
X903982Y715754D01*
X904014Y715697D01*
X904049Y715643D01*
X904087Y715591D01*
X904129Y715541D01*
X904173Y715494D01*
X904220Y715450D01*
X904270Y715408D01*
X904322Y715370D01*
X904376Y715335D01*
X904433Y715303D01*
X904491Y715274D01*
X904551Y715250D01*
X904612Y715229D01*
X904674Y715211D01*
X904738Y715198D01*
X904802Y715188D01*
X904866Y715182D01*
X904931Y715180D01*
X904931Y715179D02*
X907613Y715179D01*
X907613Y715180D02*
X907678Y715182D01*
X907742Y715188D01*
X907806Y715198D01*
X907870Y715211D01*
X907932Y715229D01*
X907993Y715250D01*
X908053Y715274D01*
X908111Y715303D01*
X908168Y715335D01*
X908222Y715370D01*
X908274Y715408D01*
X908324Y715450D01*
X908371Y715494D01*
X908415Y715541D01*
X908457Y715591D01*
X908495Y715643D01*
X908530Y715697D01*
X908562Y715754D01*
X908591Y715812D01*
X908615Y715872D01*
X908636Y715933D01*
X908654Y715995D01*
X908667Y716059D01*
X908677Y716123D01*
X908683Y716187D01*
X908685Y716252D01*
X908685Y717324D01*
X907613Y719780D02*
X908685Y721120D01*
X903859Y721120D01*
X903859Y719780D02*
X903859Y722461D01*
X875250Y682690D02*
X875250Y774690D01*
X585250Y774690D02*
X585250Y682690D01*
X585250Y774690D02*
X875250Y774690D01*
X594550Y682690D02*
X585250Y682690D01*
X865950Y682690D02*
X875250Y682690D01*
D11*
X892847Y799794D02*
X892847Y808882D01*
X892848Y799794D02*
X892850Y799695D01*
X892856Y799595D01*
X892865Y799496D01*
X892878Y799398D01*
X892895Y799300D01*
X892916Y799202D01*
X892941Y799106D01*
X892969Y799011D01*
X893001Y798917D01*
X893036Y798824D01*
X893075Y798732D01*
X893118Y798642D01*
X893163Y798554D01*
X893213Y798467D01*
X893265Y798383D01*
X893321Y798300D01*
X893379Y798220D01*
X893441Y798142D01*
X893506Y798067D01*
X893574Y797994D01*
X893644Y797924D01*
X893717Y797856D01*
X893792Y797791D01*
X893870Y797729D01*
X893950Y797671D01*
X894033Y797615D01*
X894117Y797563D01*
X894204Y797513D01*
X894292Y797468D01*
X894382Y797425D01*
X894474Y797386D01*
X894567Y797351D01*
X894661Y797319D01*
X894756Y797291D01*
X894852Y797266D01*
X894950Y797245D01*
X895048Y797228D01*
X895146Y797215D01*
X895245Y797206D01*
X895345Y797200D01*
X895444Y797198D01*
X896742Y797198D01*
X887574Y799794D02*
X884978Y808882D01*
X887574Y799794D02*
X881083Y799794D01*
X883030Y802391D02*
X883030Y797198D01*
D12*
X851750Y792690D02*
X851752Y792753D01*
X851758Y792815D01*
X851768Y792877D01*
X851781Y792939D01*
X851799Y792999D01*
X851820Y793058D01*
X851845Y793116D01*
X851874Y793172D01*
X851906Y793226D01*
X851941Y793278D01*
X851979Y793327D01*
X852021Y793375D01*
X852065Y793419D01*
X852113Y793461D01*
X852162Y793499D01*
X852214Y793534D01*
X852268Y793566D01*
X852324Y793595D01*
X852382Y793620D01*
X852441Y793641D01*
X852501Y793659D01*
X852563Y793672D01*
X852625Y793682D01*
X852687Y793688D01*
X852750Y793690D01*
X852813Y793688D01*
X852875Y793682D01*
X852937Y793672D01*
X852999Y793659D01*
X853059Y793641D01*
X853118Y793620D01*
X853176Y793595D01*
X853232Y793566D01*
X853286Y793534D01*
X853338Y793499D01*
X853387Y793461D01*
X853435Y793419D01*
X853479Y793375D01*
X853521Y793327D01*
X853559Y793278D01*
X853594Y793226D01*
X853626Y793172D01*
X853655Y793116D01*
X853680Y793058D01*
X853701Y792999D01*
X853719Y792939D01*
X853732Y792877D01*
X853742Y792815D01*
X853748Y792753D01*
X853750Y792690D01*
X853748Y792627D01*
X853742Y792565D01*
X853732Y792503D01*
X853719Y792441D01*
X853701Y792381D01*
X853680Y792322D01*
X853655Y792264D01*
X853626Y792208D01*
X853594Y792154D01*
X853559Y792102D01*
X853521Y792053D01*
X853479Y792005D01*
X853435Y791961D01*
X853387Y791919D01*
X853338Y791881D01*
X853286Y791846D01*
X853232Y791814D01*
X853176Y791785D01*
X853118Y791760D01*
X853059Y791739D01*
X852999Y791721D01*
X852937Y791708D01*
X852875Y791698D01*
X852813Y791692D01*
X852750Y791690D01*
X852687Y791692D01*
X852625Y791698D01*
X852563Y791708D01*
X852501Y791721D01*
X852441Y791739D01*
X852382Y791760D01*
X852324Y791785D01*
X852268Y791814D01*
X852214Y791846D01*
X852162Y791881D01*
X852113Y791919D01*
X852065Y791961D01*
X852021Y792005D01*
X851979Y792053D01*
X851941Y792102D01*
X851906Y792154D01*
X851874Y792208D01*
X851845Y792264D01*
X851820Y792322D01*
X851799Y792381D01*
X851781Y792441D01*
X851768Y792503D01*
X851758Y792565D01*
X851752Y792627D01*
X851750Y792690D01*
M02*
